<?xml version="1.0" encoding="UTF-8" standalone="no"?>
<!DOCTYPE svg PUBLIC "-//W3C//DTD SVG 1.1//EN"
 "http://www.w3.org/Graphics/SVG/1.1/DTD/svg11.dtd">
<!-- Generated by graphviz version 2.43.0 (0)
 -->
<!-- Title: belongs_to_erd Pages: 1 -->
<svg width="1191pt" height="1899pt"
 viewBox="0.00 0.00 1190.66 1899.00" xmlns="http://www.w3.org/2000/svg" xmlns:xlink="http://www.w3.org/1999/xlink">
<g id="graph0" class="graph" transform="scale(1 1) rotate(0) translate(4 1895)">
<title>belongs_to_erd</title>
<polygon fill="white" stroke="transparent" points="-4,4 -4,-1895 1186.66,-1895 1186.66,4 -4,4"/>
<!-- AppealSeries -->
<g id="node1" class="node">
<title>AppealSeries</title>
<ellipse fill="none" stroke="black" cx="599.29" cy="-18" rx="71.49" ry="18"/>
<text text-anchor="middle" x="599.29" y="-14.3" font-family="Times,serif" font-size="14.00">AppealSeries</text>
</g>
<!-- LegacyAppeal -->
<g id="node2" class="node">
<title>LegacyAppeal</title>
<ellipse fill="#ffff00" stroke="black" cx="123.5" cy="-18" rx="75.29" ry="18"/>
<text text-anchor="middle" x="123.5" y="-14.3" font-family="Times,serif" font-size="14.00">LegacyAppeal</text>
</g>
<!-- LegacyAppeal&#45;&gt;AppealSeries -->
<g id="edge1" class="edge">
<title>LegacyAppeal&#45;&gt;AppealSeries</title>
<path fill="none" stroke="black" d="M199.05,-18C285.75,-18 428.33,-18 517.58,-18"/>
<polygon fill="black" stroke="black" points="517.65,-21.5 527.65,-18 517.65,-14.5 517.65,-21.5"/>
<text text-anchor="middle" x="370.5" y="-21.8" font-family="Times,serif" font-size="14.00">appeal_series</text>
</g>
<!-- ETL::Appeal -->
<g id="node3" class="node">
<title>ETL::Appeal</title>
<ellipse fill="none" stroke="black" cx="1080.62" cy="-153" rx="66.89" ry="18"/>
<text text-anchor="middle" x="1080.62" y="-149.3" font-family="Times,serif" font-size="14.00">ETL::Appeal</text>
</g>
<!-- ETL::Appeal&#45;&gt;ETL::Appeal -->
<g id="edge2" class="edge">
<title>ETL::Appeal&#45;&gt;ETL::Appeal</title>
<path fill="none" stroke="black" d="M1040.8,-167.79C1027.84,-178.42 1041.11,-189 1080.62,-189 1108.4,-189 1123.21,-183.77 1125.05,-176.97"/>
<polygon fill="black" stroke="black" points="1128.06,-175.16 1120.44,-167.79 1121.8,-178.3 1128.06,-175.16"/>
<text text-anchor="middle" x="1080.62" y="-192.8" font-family="Times,serif" font-size="14.00">parent</text>
</g>
<!-- ETL::Build -->
<g id="node4" class="node">
<title>ETL::Build</title>
<ellipse fill="none" stroke="black" cx="599.29" cy="-321" rx="59.59" ry="18"/>
<text text-anchor="middle" x="599.29" y="-317.3" font-family="Times,serif" font-size="14.00">ETL::Build</text>
</g>
<!-- ETL::BuildTable -->
<g id="node5" class="node">
<title>ETL::BuildTable</title>
<ellipse fill="none" stroke="black" cx="123.5" cy="-321" rx="84.49" ry="18"/>
<text text-anchor="middle" x="123.5" y="-317.3" font-family="Times,serif" font-size="14.00">ETL::BuildTable</text>
</g>
<!-- ETL::BuildTable&#45;&gt;ETL::Build -->
<g id="edge3" class="edge">
<title>ETL::BuildTable&#45;&gt;ETL::Build</title>
<path fill="none" stroke="black" d="M208.11,-321C299.5,-321 444.23,-321 529.36,-321"/>
<polygon fill="black" stroke="black" points="529.44,-324.5 539.44,-321 529.44,-317.5 529.44,-324.5"/>
<text text-anchor="middle" x="370.5" y="-324.8" font-family="Times,serif" font-size="14.00">etl_build</text>
</g>
<!-- ETL::HearingRecord -->
<g id="node6" class="node">
<title>ETL::HearingRecord</title>
<ellipse fill="#66ccff" stroke="black" cx="599.29" cy="-267" rx="105.08" ry="18"/>
<text text-anchor="middle" x="599.29" y="-263.3" font-family="Times,serif" font-size="14.00">ETL::HearingRecord</text>
</g>
<!-- ETL::HearingRecord&#45;&gt;ETL::Appeal -->
<g id="edge4" class="edge">
<title>ETL::HearingRecord&#45;&gt;ETL::Appeal</title>
<path fill="none" stroke="black" d="M673.65,-254.21C746.86,-240.86 862.28,-218.25 960.58,-192 983.72,-185.82 1008.98,-177.74 1030.26,-170.54"/>
<polygon fill="black" stroke="black" points="1031.4,-173.85 1039.73,-167.3 1029.14,-167.22 1031.4,-173.85"/>
<text text-anchor="middle" x="841.58" y="-247.8" font-family="Times,serif" font-size="14.00">appeal</text>
</g>
<!-- ETL::Task -->
<g id="node7" class="node">
<title>ETL::Task</title>
<ellipse fill="none" stroke="black" cx="599.29" cy="-180" rx="55.79" ry="18"/>
<text text-anchor="middle" x="599.29" y="-176.3" font-family="Times,serif" font-size="14.00">ETL::Task</text>
</g>
<!-- ETL::Task&#45;&gt;ETL::Appeal -->
<g id="edge7" class="edge">
<title>ETL::Task&#45;&gt;ETL::Appeal</title>
<path fill="none" stroke="black" d="M654.81,-176.93C740.72,-172.09 907.78,-162.68 1004.83,-157.21"/>
<polygon fill="black" stroke="black" points="1005.08,-160.7 1014.87,-156.65 1004.69,-153.72 1005.08,-160.7"/>
<text text-anchor="middle" x="841.58" y="-176.8" font-family="Times,serif" font-size="14.00">appeal</text>
</g>
<!-- ETL::Task&#45;&gt;ETL::Task -->
<g id="edge6" class="edge">
<title>ETL::Task&#45;&gt;ETL::Task</title>
<path fill="none" stroke="black" d="M562.55,-193.67C547.86,-204.66 560.1,-216 599.29,-216 628.68,-216 642.92,-209.62 642,-201.79"/>
<polygon fill="black" stroke="black" points="644.77,-199.65 636.03,-193.67 639.13,-203.8 644.77,-199.65"/>
<text text-anchor="middle" x="599.29" y="-219.8" font-family="Times,serif" font-size="14.00">parent</text>
</g>
<!-- ETL::JudgeCaseReview -->
<g id="node8" class="node">
<title>ETL::JudgeCaseReview</title>
<ellipse fill="none" stroke="black" cx="123.5" cy="-180" rx="117.78" ry="18"/>
<text text-anchor="middle" x="123.5" y="-176.3" font-family="Times,serif" font-size="14.00">ETL::JudgeCaseReview</text>
</g>
<!-- ETL::JudgeCaseReview&#45;&gt;ETL::Task -->
<g id="edge5" class="edge">
<title>ETL::JudgeCaseReview&#45;&gt;ETL::Task</title>
<path fill="none" stroke="black" d="M241.31,-180C333.17,-180 457.78,-180 532.87,-180"/>
<polygon fill="black" stroke="black" points="533.13,-183.5 543.13,-180 533.13,-176.5 533.13,-183.5"/>
<text text-anchor="middle" x="370.5" y="-183.8" font-family="Times,serif" font-size="14.00">actual_task</text>
</g>
<!-- ETL::Hearing -->
<g id="node9" class="node">
<title>ETL::Hearing</title>
<ellipse fill="#66ccff" stroke="black" cx="599.29" cy="-126" rx="72.59" ry="18"/>
<text text-anchor="middle" x="599.29" y="-122.3" font-family="Times,serif" font-size="14.00">ETL::Hearing</text>
</g>
<!-- ETL::Hearing&#45;&gt;ETL::Appeal -->
<g id="edge8" class="edge">
<title>ETL::Hearing&#45;&gt;ETL::Appeal</title>
<path fill="none" stroke="black" d="M671.78,-128.17C744.52,-130.61 860.48,-135.16 960.58,-142 975.78,-143.04 992.06,-144.39 1007.54,-145.78"/>
<polygon fill="black" stroke="black" points="1007.3,-149.27 1017.58,-146.7 1007.94,-142.3 1007.3,-149.27"/>
<text text-anchor="middle" x="841.58" y="-145.8" font-family="Times,serif" font-size="14.00">appeal</text>
</g>
<!-- ETL::LegacyHearing -->
<g id="node10" class="node">
<title>ETL::LegacyHearing</title>
<ellipse fill="#66ccff" stroke="black" cx="599.29" cy="-72" rx="105.08" ry="18"/>
<text text-anchor="middle" x="599.29" y="-68.3" font-family="Times,serif" font-size="14.00">ETL::LegacyHearing</text>
</g>
<!-- ETL::LegacyHearing&#45;&gt;ETL::Appeal -->
<g id="edge9" class="edge">
<title>ETL::LegacyHearing&#45;&gt;ETL::Appeal</title>
<path fill="none" stroke="black" d="M700.29,-77.15C773.14,-82.34 873.85,-92.5 960.58,-112 985.09,-117.51 1011.57,-126.33 1033.33,-134.38"/>
<polygon fill="black" stroke="black" points="1032.38,-137.77 1042.97,-138.02 1034.84,-131.22 1032.38,-137.77"/>
<text text-anchor="middle" x="841.58" y="-115.8" font-family="Times,serif" font-size="14.00">appeal</text>
</g>
<!-- Task -->
<g id="node11" class="node">
<title>Task</title>
<polygon fill="#00ff00" stroke="#0000ff" points="75.5,-358 75.5,-404 171.5,-404 171.5,-358 75.5,-358"/>
<text text-anchor="middle" x="123.5" y="-388.8" font-family="Times,serif" font-size="14.00" fill="#0000ff">Task</text>
<polyline fill="none" stroke="#0000ff" points="75.5,-381 171.5,-381 "/>
<text text-anchor="middle" x="123.5" y="-365.8" font-family="Times,serif" font-size="14.00" fill="#0000ff">(120 tasks)</text>
</g>
<!-- Task&#45;&gt;Task -->
<g id="edge26" class="edge">
<title>Task&#45;&gt;Task</title>
<path fill="none" stroke="#6600cc" stroke-dasharray="1,5" d="M77.93,-404.05C74.2,-413.99 89.39,-422.5 123.5,-422.5 145.35,-422.5 159.44,-419.01 165.76,-413.88"/>
<polygon fill="#6600cc" stroke="#6600cc" points="169.2,-414.64 169.07,-404.05 162.57,-412.41 169.2,-414.64"/>
</g>
<!-- Claimant -->
<g id="node12" class="node">
<title>Claimant</title>
<polygon fill="#a9a9a9" stroke="#0000ff" points="68.5,-441 68.5,-487 178.5,-487 178.5,-441 68.5,-441"/>
<text text-anchor="middle" x="123.5" y="-471.8" font-family="Times,serif" font-size="14.00" fill="#0000ff">Claimant</text>
<polyline fill="none" stroke="#0000ff" points="68.5,-464 178.5,-464 "/>
<text text-anchor="middle" x="123.5" y="-448.8" font-family="Times,serif" font-size="14.00" fill="#0000ff">(6 claimants)</text>
</g>
<!-- DecisionReview -->
<g id="node13" class="node">
<title>DecisionReview</title>
<polygon fill="#ffff00" stroke="#0000ff" points="518.79,-485.5 518.79,-576.5 679.79,-576.5 679.79,-485.5 518.79,-485.5"/>
<text text-anchor="middle" x="599.29" y="-561.3" font-family="Times,serif" font-size="14.00" fill="#0000ff">DecisionReview</text>
<polyline fill="none" stroke="#0000ff" points="518.79,-553.5 679.79,-553.5 "/>
<text text-anchor="middle" x="599.29" y="-538.3" font-family="Times,serif" font-size="14.00" fill="#0000ff">Appeal,</text>
<text text-anchor="middle" x="599.29" y="-523.3" font-family="Times,serif" font-size="14.00" fill="#0000ff">ClaimReview,</text>
<text text-anchor="middle" x="599.29" y="-508.3" font-family="Times,serif" font-size="14.00" fill="#0000ff">SupplementalClaim,</text>
<text text-anchor="middle" x="599.29" y="-493.3" font-family="Times,serif" font-size="14.00" fill="#0000ff">HigherLevelReview</text>
</g>
<!-- ClaimReview -->
<g id="node14" class="node">
<title>ClaimReview</title>
<polygon fill="#ffff00" stroke="#0000ff" points="518.79,-595.5 518.79,-656.5 679.79,-656.5 679.79,-595.5 518.79,-595.5"/>
<text text-anchor="middle" x="599.29" y="-641.3" font-family="Times,serif" font-size="14.00" fill="#0000ff">ClaimReview</text>
<polyline fill="none" stroke="#0000ff" points="518.79,-633.5 679.79,-633.5 "/>
<text text-anchor="middle" x="599.29" y="-618.3" font-family="Times,serif" font-size="14.00" fill="#0000ff">SupplementalClaim,</text>
<text text-anchor="middle" x="599.29" y="-603.3" font-family="Times,serif" font-size="14.00" fill="#0000ff">HigherLevelReview</text>
</g>
<!-- RampReview -->
<g id="node15" class="node">
<title>RampReview</title>
<polygon fill="#cc99ff" stroke="#0000ff" points="538.79,-675.5 538.79,-736.5 659.79,-736.5 659.79,-675.5 538.79,-675.5"/>
<text text-anchor="middle" x="599.29" y="-721.3" font-family="Times,serif" font-size="14.00" fill="#0000ff">RampReview</text>
<polyline fill="none" stroke="#0000ff" points="538.79,-713.5 659.79,-713.5 "/>
<text text-anchor="middle" x="599.29" y="-698.3" font-family="Times,serif" font-size="14.00" fill="#0000ff">RampElection,</text>
<text text-anchor="middle" x="599.29" y="-683.3" font-family="Times,serif" font-size="14.00" fill="#0000ff">RampRefiling</text>
</g>
<!-- RequestIssue -->
<g id="node16" class="node">
<title>RequestIssue</title>
<polygon fill="#ffa500" stroke="#0000ff" points="31,-742.5 31,-803.5 216,-803.5 216,-742.5 31,-742.5"/>
<text text-anchor="middle" x="123.5" y="-788.3" font-family="Times,serif" font-size="14.00" fill="#0000ff">RequestIssue</text>
<polyline fill="none" stroke="#0000ff" points="31,-780.5 216,-780.5 "/>
<text text-anchor="middle" x="123.5" y="-765.3" font-family="Times,serif" font-size="14.00" fill="#0000ff">RatingRequestIssue,</text>
<text text-anchor="middle" x="123.5" y="-750.3" font-family="Times,serif" font-size="14.00" fill="#0000ff">NonratingRequestIssue</text>
</g>
<!-- appeal_type -->
<g id="node17" class="node">
<title>appeal_type</title>
<polygon fill="#ffff00" stroke="#0000ff" points="65.5,-822.5 65.5,-883.5 181.5,-883.5 181.5,-822.5 65.5,-822.5"/>
<text text-anchor="middle" x="123.5" y="-868.3" font-family="Times,serif" font-size="14.00" fill="#0000ff">appeal_type</text>
<polyline fill="none" stroke="#0000ff" points="65.5,-860.5 181.5,-860.5 "/>
<text text-anchor="middle" x="123.5" y="-845.3" font-family="Times,serif" font-size="14.00" fill="#0000ff">Appeal,</text>
<text text-anchor="middle" x="123.5" y="-830.3" font-family="Times,serif" font-size="14.00" fill="#0000ff">LegacyAppeal</text>
</g>
<!-- hearing_type -->
<g id="node18" class="node">
<title>hearing_type</title>
<polygon fill="none" stroke="#0000ff" stroke-dasharray="1,5" points="61,-902.5 61,-963.5 186,-963.5 186,-902.5 61,-902.5"/>
<text text-anchor="middle" x="123.5" y="-948.3" font-family="Times,serif" font-size="14.00" fill="#0000ff">hearing_type</text>
<polyline fill="none" stroke="#0000ff" stroke-dasharray="1,5" points="61,-940.5 186,-940.5 "/>
<text text-anchor="middle" x="123.5" y="-925.3" font-family="Times,serif" font-size="14.00" fill="#0000ff">Hearing,</text>
<text text-anchor="middle" x="123.5" y="-910.3" font-family="Times,serif" font-size="14.00" fill="#0000ff">LegacyHearing</text>
</g>
<!-- decision_review_type -->
<g id="node19" class="node">
<title>decision_review_type</title>
<polygon fill="#ffff00" stroke="#0000ff" points="515.29,-1063 515.29,-1139 683.29,-1139 683.29,-1063 515.29,-1063"/>
<text text-anchor="middle" x="599.29" y="-1123.8" font-family="Times,serif" font-size="14.00" fill="#0000ff">decision_review_type</text>
<polyline fill="none" stroke="#0000ff" points="515.29,-1116 683.29,-1116 "/>
<text text-anchor="middle" x="599.29" y="-1100.8" font-family="Times,serif" font-size="14.00" fill="#0000ff">Appeal,</text>
<text text-anchor="middle" x="599.29" y="-1085.8" font-family="Times,serif" font-size="14.00" fill="#0000ff">SupplementalClaim,</text>
<text text-anchor="middle" x="599.29" y="-1070.8" font-family="Times,serif" font-size="14.00" fill="#0000ff">HigherLevelReview</text>
</g>
<!-- decision_review_remanded_type -->
<g id="node20" class="node">
<title>decision_review_remanded_type</title>
<polygon fill="#ffff00" stroke="#0000ff" points="0,-1158 0,-1234 247,-1234 247,-1158 0,-1158"/>
<text text-anchor="middle" x="123.5" y="-1218.8" font-family="Times,serif" font-size="14.00" fill="#0000ff">decision_review_remanded_type</text>
<polyline fill="none" stroke="#0000ff" points="0,-1211 247,-1211 "/>
<text text-anchor="middle" x="123.5" y="-1195.8" font-family="Times,serif" font-size="14.00" fill="#0000ff">Appeal,</text>
<text text-anchor="middle" x="123.5" y="-1180.8" font-family="Times,serif" font-size="14.00" fill="#0000ff">SupplementalClaim,</text>
<text text-anchor="middle" x="123.5" y="-1165.8" font-family="Times,serif" font-size="14.00" fill="#0000ff">HigherLevelReview</text>
</g>
<!-- decision_review_remanded_type&#45;&gt;decision_review_type -->
<g id="edge22" class="edge">
<title>decision_review_remanded_type&#45;&gt;decision_review_type</title>
<path fill="none" stroke="#6600cc" stroke-dasharray="1,5" d="M247.13,-1171.41C327.52,-1155.29 431,-1134.54 504.76,-1119.75"/>
<polygon fill="#6600cc" stroke="#6600cc" points="505.85,-1123.11 514.97,-1117.71 504.47,-1116.24 505.85,-1123.11"/>
<text text-anchor="middle" x="370.5" y="-1169.8" font-family="Times,serif" font-size="14.00" fill="#6600cc">a.k.a.</text>
</g>
<!-- review_type -->
<g id="node21" class="node">
<title>review_type</title>
<polygon fill="#ffff00" stroke="#0000ff" points="43,-1063 43,-1139 204,-1139 204,-1063 43,-1063"/>
<text text-anchor="middle" x="123.5" y="-1123.8" font-family="Times,serif" font-size="14.00" fill="#0000ff">review_type</text>
<polyline fill="none" stroke="#0000ff" points="43,-1116 204,-1116 "/>
<text text-anchor="middle" x="123.5" y="-1100.8" font-family="Times,serif" font-size="14.00" fill="#0000ff">Appeal,</text>
<text text-anchor="middle" x="123.5" y="-1085.8" font-family="Times,serif" font-size="14.00" fill="#0000ff">SupplementalClaim,</text>
<text text-anchor="middle" x="123.5" y="-1070.8" font-family="Times,serif" font-size="14.00" fill="#0000ff">HigherLevelReview</text>
</g>
<!-- review_type&#45;&gt;decision_review_type -->
<g id="edge23" class="edge">
<title>review_type&#45;&gt;decision_review_type</title>
<path fill="none" stroke="#6600cc" stroke-dasharray="1,5" d="M204.07,-1101C287.1,-1101 417.2,-1101 505.01,-1101"/>
<polygon fill="#6600cc" stroke="#6600cc" points="505.24,-1104.5 515.24,-1101 505.24,-1097.5 505.24,-1104.5"/>
<text text-anchor="middle" x="370.5" y="-1104.8" font-family="Times,serif" font-size="14.00" fill="#6600cc">a.k.a.</text>
</g>
<!-- original_decision_review_type -->
<g id="node22" class="node">
<title>original_decision_review_type</title>
<polygon fill="#ffff00" stroke="#0000ff" points="8.5,-1253.5 8.5,-1314.5 238.5,-1314.5 238.5,-1253.5 8.5,-1253.5"/>
<text text-anchor="middle" x="123.5" y="-1299.3" font-family="Times,serif" font-size="14.00" fill="#0000ff">original_decision_review_type</text>
<polyline fill="none" stroke="#0000ff" points="8.5,-1291.5 238.5,-1291.5 "/>
<text text-anchor="middle" x="123.5" y="-1276.3" font-family="Times,serif" font-size="14.00" fill="#0000ff">SupplementalClaim,</text>
<text text-anchor="middle" x="123.5" y="-1261.3" font-family="Times,serif" font-size="14.00" fill="#0000ff">HigherLevelReview</text>
</g>
<!-- source_type -->
<g id="node23" class="node">
<title>source_type</title>
<polygon fill="none" stroke="#0000ff" stroke-dasharray="1,5" points="43,-1334 43,-1440 204,-1440 204,-1334 43,-1334"/>
<text text-anchor="middle" x="123.5" y="-1424.8" font-family="Times,serif" font-size="14.00" fill="#0000ff">source_type</text>
<polyline fill="none" stroke="#0000ff" stroke-dasharray="1,5" points="43,-1417 204,-1417 "/>
<text text-anchor="middle" x="123.5" y="-1401.8" font-family="Times,serif" font-size="14.00" fill="#0000ff">DecisionDocument,</text>
<text text-anchor="middle" x="123.5" y="-1386.8" font-family="Times,serif" font-size="14.00" fill="#0000ff">SupplementalClaim,</text>
<text text-anchor="middle" x="123.5" y="-1371.8" font-family="Times,serif" font-size="14.00" fill="#0000ff">HigherLevelReview,</text>
<text text-anchor="middle" x="123.5" y="-1356.8" font-family="Times,serif" font-size="14.00" fill="#0000ff">RampRefiling,</text>
<text text-anchor="middle" x="123.5" y="-1341.8" font-family="Times,serif" font-size="14.00" fill="#0000ff">RampElection</text>
</g>
<!-- assigned_to_type -->
<g id="node24" class="node">
<title>assigned_to_type</title>
<polygon fill="none" stroke="#0000ff" stroke-dasharray="1,5" points="54,-1459.5 54,-1520.5 193,-1520.5 193,-1459.5 54,-1459.5"/>
<text text-anchor="middle" x="123.5" y="-1505.3" font-family="Times,serif" font-size="14.00" fill="#0000ff">assigned_to_type</text>
<polyline fill="none" stroke="#0000ff" stroke-dasharray="1,5" points="54,-1497.5 193,-1497.5 "/>
<text text-anchor="middle" x="123.5" y="-1482.3" font-family="Times,serif" font-size="14.00" fill="#0000ff">User,</text>
<text text-anchor="middle" x="123.5" y="-1467.3" font-family="Times,serif" font-size="14.00" fill="#0000ff">Organization</text>
</g>
<!-- record_type -->
<g id="node25" class="node">
<title>record_type</title>
<polygon fill="#ffff00" stroke="#0000ff" points="65.5,-982.5 65.5,-1043.5 181.5,-1043.5 181.5,-982.5 65.5,-982.5"/>
<text text-anchor="middle" x="123.5" y="-1028.3" font-family="Times,serif" font-size="14.00" fill="#0000ff">record_type</text>
<polyline fill="none" stroke="#0000ff" points="65.5,-1020.5 181.5,-1020.5 "/>
<text text-anchor="middle" x="123.5" y="-1005.3" font-family="Times,serif" font-size="14.00" fill="#0000ff">Appeal,</text>
<text text-anchor="middle" x="123.5" y="-990.3" font-family="Times,serif" font-size="14.00" fill="#0000ff">LegacyAppeal</text>
</g>
<!-- record_type&#45;&gt;decision_review_type -->
<g id="edge24" class="edge">
<title>record_type&#45;&gt;decision_review_type</title>
<path fill="none" stroke="#6600cc" d="M181.65,-1023.61C261.88,-1038.52 408.82,-1065.81 505.02,-1083.68"/>
<polygon fill="#6600cc" stroke="#6600cc" points="504.57,-1087.15 515.04,-1085.54 505.84,-1080.27 504.57,-1087.15"/>
<text text-anchor="middle" x="370.5" y="-1081.8" font-family="Times,serif" font-size="14.00" fill="#6600cc">(subset of)</text>
</g>
<!-- Message -->
<g id="node26" class="node">
<title>Message</title>
<polygon fill="#f2f2f2" stroke="#aaaaaa" points="163.5,-1575 83.5,-1575 83.5,-1571 79.5,-1571 79.5,-1567 83.5,-1567 83.5,-1547 79.5,-1547 79.5,-1543 83.5,-1543 83.5,-1539 163.5,-1539 163.5,-1575"/>
<polyline fill="none" stroke="#aaaaaa" points="83.5,-1571 87.5,-1571 87.5,-1567 83.5,-1567 "/>
<polyline fill="none" stroke="#aaaaaa" points="83.5,-1547 87.5,-1547 87.5,-1543 83.5,-1543 "/>
<text text-anchor="middle" x="123.5" y="-1553.3" font-family="Times,serif" font-size="14.00">Message</text>
</g>
<!-- JobNote -->
<g id="node27" class="node">
<title>JobNote</title>
<ellipse fill="none" stroke="black" cx="599.29" cy="-1557" rx="48.19" ry="18"/>
<text text-anchor="middle" x="599.29" y="-1553.3" font-family="Times,serif" font-size="14.00">JobNote</text>
</g>
<!-- Message&#45;&gt;JobNote -->
<g id="edge10" class="edge">
<title>Message&#45;&gt;JobNote</title>
<path fill="none" stroke="#0000ff" d="M163.68,-1557C247.21,-1557 443.15,-1557 540.83,-1557"/>
<polygon fill="#0000ff" stroke="#0000ff" points="541.11,-1560.5 551.11,-1557 541.11,-1553.5 541.11,-1560.5"/>
<text text-anchor="middle" x="370.5" y="-1560.8" font-family="Times,serif" font-size="14.00" fill="#0000ff">Message#detail</text>
</g>
<!-- SupplementalClaim -->
<g id="node28" class="node">
<title>SupplementalClaim</title>
<ellipse fill="#ffff00" stroke="black" cx="1080.62" cy="-1618" rx="102.08" ry="18"/>
<text text-anchor="middle" x="1080.62" y="-1614.3" font-family="Times,serif" font-size="14.00">SupplementalClaim</text>
</g>
<!-- Message&#45;&gt;SupplementalClaim -->
<g id="edge11" class="edge">
<title>Message&#45;&gt;SupplementalClaim</title>
<path fill="none" stroke="#0000ff" d="M163.51,-1570.51C230.22,-1592.81 370.95,-1636.44 494,-1652 672.74,-1674.61 884.11,-1649.73 997.65,-1632.2"/>
<polygon fill="#0000ff" stroke="#0000ff" points="998.33,-1635.64 1007.66,-1630.64 997.24,-1628.73 998.33,-1635.64"/>
<text text-anchor="middle" x="599.29" y="-1665.8" font-family="Times,serif" font-size="14.00" fill="#0000ff">Message#detail</text>
</g>
<!-- HigherLevelReview -->
<g id="node29" class="node">
<title>HigherLevelReview</title>
<ellipse fill="#ffff00" stroke="black" cx="1080.62" cy="-1506" rx="101.28" ry="18"/>
<text text-anchor="middle" x="1080.62" y="-1502.3" font-family="Times,serif" font-size="14.00">HigherLevelReview</text>
</g>
<!-- Message&#45;&gt;HigherLevelReview -->
<g id="edge12" class="edge">
<title>Message&#45;&gt;HigherLevelReview</title>
<path fill="none" stroke="#0000ff" d="M163.76,-1551.26C231.14,-1541.69 373.2,-1522.78 494,-1515 659.4,-1504.35 851.59,-1503.62 969.4,-1504.49"/>
<polygon fill="#0000ff" stroke="#0000ff" points="969.48,-1507.99 979.51,-1504.57 969.54,-1500.99 969.48,-1507.99"/>
<text text-anchor="middle" x="599.29" y="-1518.8" font-family="Times,serif" font-size="14.00" fill="#0000ff">Message#detail</text>
</g>
<!-- JobNote&#45;&gt;SupplementalClaim -->
<g id="edge20" class="edge">
<title>JobNote&#45;&gt;SupplementalClaim</title>
<path fill="none" stroke="#0000ff" d="M645.87,-1561.69C714.31,-1568.87 847.67,-1583.41 960.58,-1599 971.89,-1600.56 983.78,-1602.32 995.49,-1604.12"/>
<polygon fill="#0000ff" stroke="#0000ff" points="995.3,-1607.63 1005.72,-1605.71 996.37,-1600.71 995.3,-1607.63"/>
<text text-anchor="middle" x="841.58" y="-1602.8" font-family="Times,serif" font-size="14.00" fill="#0000ff">JobNote#job</text>
</g>
<!-- JobNote&#45;&gt;HigherLevelReview -->
<g id="edge21" class="edge">
<title>JobNote&#45;&gt;HigherLevelReview</title>
<path fill="none" stroke="#0000ff" d="M644.99,-1551.28C668.13,-1548.38 696.86,-1544.87 722.58,-1542 723.39,-1541.91 876.61,-1526.46 982.04,-1515.84"/>
<polygon fill="#0000ff" stroke="#0000ff" points="982.49,-1519.31 992.09,-1514.82 981.78,-1512.34 982.49,-1519.31"/>
<text text-anchor="middle" x="841.58" y="-1545.8" font-family="Times,serif" font-size="14.00" fill="#0000ff">JobNote#job</text>
</g>
<!-- AppealIntake -->
<g id="node30" class="node">
<title>AppealIntake</title>
<polygon fill="#ffffcc" stroke="black" points="166.5,-1749 68.5,-1749 68.5,-1711 166.5,-1711 178.5,-1730 166.5,-1749"/>
<text text-anchor="middle" x="123.5" y="-1726.3" font-family="Times,serif" font-size="14.00">AppealIntake</text>
</g>
<!-- Appeal -->
<g id="node31" class="node">
<title>Appeal</title>
<ellipse fill="#ffff00" stroke="black" cx="599.29" cy="-1730" rx="42.49" ry="18"/>
<text text-anchor="middle" x="599.29" y="-1726.3" font-family="Times,serif" font-size="14.00">Appeal</text>
</g>
<!-- AppealIntake&#45;&gt;Appeal -->
<g id="edge13" class="edge">
<title>AppealIntake&#45;&gt;Appeal</title>
<path fill="none" stroke="#0000ff" d="M178.85,-1730C270.97,-1730 456.54,-1730 546.73,-1730"/>
<polygon fill="#0000ff" stroke="#0000ff" points="546.98,-1733.5 556.98,-1730 546.98,-1726.5 546.98,-1733.5"/>
<text text-anchor="middle" x="370.5" y="-1733.8" font-family="Times,serif" font-size="14.00" fill="#0000ff">AppealIntake#detail</text>
</g>
<!-- RampElectionIntake -->
<g id="node32" class="node">
<title>RampElectionIntake</title>
<polygon fill="#ffffcc" stroke="black" points="192,-1817 43,-1817 43,-1779 192,-1779 204,-1798 192,-1817"/>
<text text-anchor="middle" x="123.5" y="-1794.3" font-family="Times,serif" font-size="14.00">RampElectionIntake</text>
</g>
<!-- RampElection -->
<g id="node33" class="node">
<title>RampElection</title>
<ellipse fill="#cc99ff" stroke="black" cx="599.29" cy="-1798" rx="75.29" ry="18"/>
<text text-anchor="middle" x="599.29" y="-1794.3" font-family="Times,serif" font-size="14.00">RampElection</text>
</g>
<!-- RampElectionIntake&#45;&gt;RampElection -->
<g id="edge14" class="edge">
<title>RampElectionIntake&#45;&gt;RampElection</title>
<path fill="none" stroke="#0000ff" d="M204.07,-1798C289.77,-1798 425.59,-1798 513.33,-1798"/>
<polygon fill="#0000ff" stroke="#0000ff" points="513.51,-1801.5 523.51,-1798 513.51,-1794.5 513.51,-1801.5"/>
<text text-anchor="middle" x="370.5" y="-1801.8" font-family="Times,serif" font-size="14.00" fill="#0000ff">RampElectionIntake#detail</text>
</g>
<!-- RampRefilingIntake -->
<g id="node34" class="node">
<title>RampRefilingIntake</title>
<polygon fill="#ffffcc" stroke="black" points="190.5,-1885 44.5,-1885 44.5,-1847 190.5,-1847 202.5,-1866 190.5,-1885"/>
<text text-anchor="middle" x="123.5" y="-1862.3" font-family="Times,serif" font-size="14.00">RampRefilingIntake</text>
</g>
<!-- RampRefiling -->
<g id="node35" class="node">
<title>RampRefiling</title>
<ellipse fill="#cc99ff" stroke="black" cx="599.29" cy="-1866" rx="73.39" ry="18"/>
<text text-anchor="middle" x="599.29" y="-1862.3" font-family="Times,serif" font-size="14.00">RampRefiling</text>
</g>
<!-- RampRefilingIntake&#45;&gt;RampRefiling -->
<g id="edge15" class="edge">
<title>RampRefilingIntake&#45;&gt;RampRefiling</title>
<path fill="none" stroke="#0000ff" d="M202.74,-1866C289.08,-1866 427.45,-1866 515.55,-1866"/>
<polygon fill="#0000ff" stroke="#0000ff" points="515.77,-1869.5 525.77,-1866 515.77,-1862.5 515.77,-1869.5"/>
<text text-anchor="middle" x="370.5" y="-1869.8" font-family="Times,serif" font-size="14.00" fill="#0000ff">RampRefilingIntake#detail</text>
</g>
<!-- HigherLevelReviewIntake -->
<g id="node36" class="node">
<title>HigherLevelReviewIntake</title>
<polygon fill="#ffffcc" stroke="black" points="687.79,-1464 498.79,-1464 498.79,-1426 687.79,-1426 699.79,-1445 687.79,-1464"/>
<text text-anchor="middle" x="599.29" y="-1441.3" font-family="Times,serif" font-size="14.00">HigherLevelReviewIntake</text>
</g>
<!-- HigherLevelReviewIntake&#45;&gt;HigherLevelReview -->
<g id="edge16" class="edge">
<title>HigherLevelReviewIntake&#45;&gt;HigherLevelReview</title>
<path fill="none" stroke="#0000ff" d="M699.81,-1449.81C772.44,-1454.29 873.07,-1462.54 960.58,-1477 978.39,-1479.94 997.47,-1484.12 1015.02,-1488.39"/>
<polygon fill="#0000ff" stroke="#0000ff" points="1014.61,-1491.9 1025.16,-1490.91 1016.3,-1485.1 1014.61,-1491.9"/>
<text text-anchor="middle" x="841.58" y="-1480.8" font-family="Times,serif" font-size="14.00" fill="#0000ff">HigherLevelReviewIntake#detail</text>
</g>
<!-- SupplementalClaimIntake -->
<g id="node37" class="node">
<title>SupplementalClaimIntake</title>
<polygon fill="#ffffcc" stroke="black" points="688.29,-1637 498.29,-1637 498.29,-1599 688.29,-1599 700.29,-1618 688.29,-1637"/>
<text text-anchor="middle" x="599.29" y="-1614.3" font-family="Times,serif" font-size="14.00">SupplementalClaimIntake</text>
</g>
<!-- SupplementalClaimIntake&#45;&gt;SupplementalClaim -->
<g id="edge17" class="edge">
<title>SupplementalClaimIntake&#45;&gt;SupplementalClaim</title>
<path fill="none" stroke="#0000ff" d="M700.48,-1618C778.65,-1618 887.18,-1618 968.1,-1618"/>
<polygon fill="#0000ff" stroke="#0000ff" points="968.32,-1621.5 978.32,-1618 968.32,-1614.5 968.32,-1621.5"/>
<text text-anchor="middle" x="841.58" y="-1621.8" font-family="Times,serif" font-size="14.00" fill="#0000ff">SupplementalClaimIntake#detail</text>
</g>
<!-- DecisionReviewIntake -->
<g id="node38" class="node">
<title>DecisionReviewIntake</title>
<polygon fill="#ffffcc" stroke="black" points="198.5,-550 36.5,-550 36.5,-512 198.5,-512 210.5,-531 198.5,-550"/>
<text text-anchor="middle" x="123.5" y="-527.3" font-family="Times,serif" font-size="14.00">DecisionReviewIntake</text>
</g>
<!-- DecisionReviewIntake&#45;&gt;DecisionReview -->
<g id="edge18" class="edge">
<title>DecisionReviewIntake&#45;&gt;DecisionReview</title>
<path fill="none" stroke="#0000ff" d="M210.57,-531C294.92,-531 422.93,-531 508.52,-531"/>
<polygon fill="#0000ff" stroke="#0000ff" points="508.74,-534.5 518.74,-531 508.74,-527.5 508.74,-534.5"/>
<text text-anchor="middle" x="370.5" y="-534.8" font-family="Times,serif" font-size="14.00" fill="#0000ff">DecisionReviewIntake#detail</text>
</g>
<!-- ClaimReviewIntake -->
<g id="node39" class="node">
<title>ClaimReviewIntake</title>
<polygon fill="#ffffcc" stroke="black" points="189,-645 46,-645 46,-607 189,-607 201,-626 189,-645"/>
<text text-anchor="middle" x="123.5" y="-622.3" font-family="Times,serif" font-size="14.00">ClaimReviewIntake</text>
</g>
<!-- ClaimReviewIntake&#45;&gt;ClaimReview -->
<g id="edge19" class="edge">
<title>ClaimReviewIntake&#45;&gt;ClaimReview</title>
<path fill="none" stroke="#0000ff" d="M201.15,-626C285.13,-626 419.68,-626 508.52,-626"/>
<polygon fill="#0000ff" stroke="#0000ff" points="508.59,-629.5 518.59,-626 508.59,-622.5 508.59,-629.5"/>
<text text-anchor="middle" x="370.5" y="-629.8" font-family="Times,serif" font-size="14.00" fill="#0000ff">ClaimReviewIntake#detail</text>
</g>
<!-- RampIssue -->
<g id="node40" class="node">
<title>RampIssue</title>
<ellipse fill="#cc99ff" stroke="black" cx="123.5" cy="-706" rx="61.99" ry="18"/>
<text text-anchor="middle" x="123.5" y="-702.3" font-family="Times,serif" font-size="14.00">RampIssue</text>
</g>
<!-- RampIssue&#45;&gt;RampReview -->
<g id="edge25" class="edge">
<title>RampIssue&#45;&gt;RampReview</title>
<path fill="none" stroke="#6600cc" d="M185.47,-706C273.52,-706 435.85,-706 528.55,-706"/>
<polygon fill="#6600cc" stroke="#6600cc" points="528.67,-709.5 538.67,-706 528.67,-702.5 528.67,-709.5"/>
<text text-anchor="middle" x="370.5" y="-709.8" font-family="Times,serif" font-size="14.00" fill="#6600cc">(ramp_)review</text>
</g>
</g>
</svg>
