<?xml version="1.0" encoding="UTF-8" standalone="no"?>
<!DOCTYPE svg PUBLIC "-//W3C//DTD SVG 1.1//EN"
 "http://www.w3.org/Graphics/SVG/1.1/DTD/svg11.dtd">
<!-- Generated by graphviz version 2.43.0 (0)
 -->
<!-- Title: belongs_to_erd_subclasses Pages: 1 -->
<svg width="1391pt" height="2051pt"
 viewBox="0.00 0.00 1390.85 2051.00" xmlns="http://www.w3.org/2000/svg" xmlns:xlink="http://www.w3.org/1999/xlink">
<g id="graph0" class="graph" transform="scale(1 1) rotate(0) translate(4 2047)">
<title>belongs_to_erd_subclasses</title>
<polygon fill="white" stroke="transparent" points="-4,4 -4,-2047 1386.85,-2047 1386.85,4 -4,4"/>
<!-- AppealSeries -->
<g id="node1" class="node">
<title>AppealSeries</title>
<ellipse fill="none" stroke="black" cx="699.38" cy="-18" rx="71.49" ry="18"/>
<text text-anchor="middle" x="699.38" y="-14.3" font-family="Times,serif" font-size="14.00">AppealSeries</text>
</g>
<!-- LegacyAppeal -->
<g id="node2" class="node">
<title>LegacyAppeal</title>
<ellipse fill="#ffff00" stroke="black" cx="123.5" cy="-18" rx="75.29" ry="18"/>
<text text-anchor="middle" x="123.5" y="-14.3" font-family="Times,serif" font-size="14.00">LegacyAppeal</text>
</g>
<!-- LegacyAppeal&#45;&gt;AppealSeries -->
<g id="edge1" class="edge">
<title>LegacyAppeal&#45;&gt;AppealSeries</title>
<path fill="none" stroke="black" d="M198.94,-18C306.87,-18 506.07,-18 617.5,-18"/>
<polygon fill="black" stroke="black" points="617.68,-21.5 627.68,-18 617.68,-14.5 617.68,-21.5"/>
<text text-anchor="middle" x="370.5" y="-21.8" font-family="Times,serif" font-size="14.00">appeal_series</text>
</g>
<!-- ETL::Appeal -->
<g id="node3" class="node">
<title>ETL::Appeal</title>
<ellipse fill="none" stroke="black" cx="1280.8" cy="-190" rx="66.89" ry="18"/>
<text text-anchor="middle" x="1280.8" y="-186.3" font-family="Times,serif" font-size="14.00">ETL::Appeal</text>
</g>
<!-- ETL::Appeal&#45;&gt;ETL::Appeal -->
<g id="edge2" class="edge">
<title>ETL::Appeal&#45;&gt;ETL::Appeal</title>
<path fill="none" stroke="black" d="M1240.98,-204.79C1228.02,-215.42 1241.29,-226 1280.8,-226 1308.59,-226 1323.4,-220.77 1325.23,-213.97"/>
<polygon fill="black" stroke="black" points="1328.24,-212.16 1320.62,-204.79 1321.99,-215.3 1328.24,-212.16"/>
<text text-anchor="middle" x="1280.8" y="-229.8" font-family="Times,serif" font-size="14.00">parent</text>
</g>
<!-- ETL::Build -->
<g id="node4" class="node">
<title>ETL::Build</title>
<ellipse fill="none" stroke="black" cx="699.38" cy="-318" rx="59.59" ry="18"/>
<text text-anchor="middle" x="699.38" y="-314.3" font-family="Times,serif" font-size="14.00">ETL::Build</text>
</g>
<!-- ETL::BuildTable -->
<g id="node5" class="node">
<title>ETL::BuildTable</title>
<ellipse fill="none" stroke="black" cx="123.5" cy="-318" rx="84.49" ry="18"/>
<text text-anchor="middle" x="123.5" y="-314.3" font-family="Times,serif" font-size="14.00">ETL::BuildTable</text>
</g>
<!-- ETL::BuildTable&#45;&gt;ETL::Build -->
<g id="edge3" class="edge">
<title>ETL::BuildTable&#45;&gt;ETL::Build</title>
<path fill="none" stroke="black" d="M208.25,-318C322.06,-318 523.45,-318 629.17,-318"/>
<polygon fill="black" stroke="black" points="629.4,-321.5 639.4,-318 629.4,-314.5 629.4,-321.5"/>
<text text-anchor="middle" x="370.5" y="-321.8" font-family="Times,serif" font-size="14.00">etl_build</text>
</g>
<!-- ETL::HearingRecord -->
<g id="node6" class="node">
<title>ETL::HearingRecord</title>
<polygon fill="none" stroke="#000099" stroke-dasharray="5,2" points="42.5,-195 42.5,-231 204.5,-231 204.5,-195 42.5,-195"/>
<text text-anchor="middle" x="123.5" y="-209.3" font-family="Times,serif" font-size="14.00" fill="#000099">ETL::HearingRecord</text>
</g>
<!-- ETL::HearingRecord&#45;&gt;ETL::Appeal -->
<g id="edge4" class="edge">
<title>ETL::HearingRecord&#45;&gt;ETL::Appeal</title>
<path fill="none" stroke="black" d="M204.69,-221.59C224.4,-223.53 245.45,-225.47 265,-227 366.63,-234.94 392.1,-237.11 494,-240 790.32,-248.4 868.52,-272.67 1160.76,-223 1183.11,-219.2 1207.3,-212.91 1228,-206.84"/>
<polygon fill="black" stroke="black" points="1229.28,-210.11 1237.86,-203.89 1227.27,-203.4 1229.28,-210.11"/>
<text text-anchor="middle" x="699.38" y="-257.8" font-family="Times,serif" font-size="14.00">appeal</text>
</g>
<!-- ETL::Hearing -->
<g id="node9" class="node">
<title>ETL::Hearing</title>
<ellipse fill="#66ccff" stroke="black" cx="699.38" cy="-213" rx="72.59" ry="18"/>
<text text-anchor="middle" x="699.38" y="-209.3" font-family="Times,serif" font-size="14.00">ETL::Hearing</text>
</g>
<!-- ETL::HearingRecord&#45;&gt;ETL::Hearing -->
<g id="edge30" class="edge">
<title>ETL::HearingRecord&#45;&gt;ETL::Hearing</title>
<path fill="none" stroke="#000099" stroke-dasharray="1,5" d="M204.6,-213C313.4,-213 506.87,-213 616.56,-213"/>
<polygon fill="#000099" stroke="#000099" points="616.58,-216.5 626.58,-213 616.58,-209.5 616.58,-216.5"/>
</g>
<!-- ETL::LegacyHearing -->
<g id="node10" class="node">
<title>ETL::LegacyHearing</title>
<ellipse fill="#66ccff" stroke="black" cx="699.38" cy="-159" rx="105.08" ry="18"/>
<text text-anchor="middle" x="699.38" y="-155.3" font-family="Times,serif" font-size="14.00">ETL::LegacyHearing</text>
</g>
<!-- ETL::HearingRecord&#45;&gt;ETL::LegacyHearing -->
<g id="edge31" class="edge">
<title>ETL::HearingRecord&#45;&gt;ETL::LegacyHearing</title>
<path fill="none" stroke="#000099" stroke-dasharray="1,5" d="M204.6,-205.46C306.97,-195.83 484.31,-179.14 596.28,-168.61"/>
<polygon fill="#000099" stroke="#000099" points="596.94,-172.06 606.57,-167.64 596.29,-165.09 596.94,-172.06"/>
</g>
<!-- ETL::Task -->
<g id="node7" class="node">
<title>ETL::Task</title>
<ellipse fill="none" stroke="black" cx="699.38" cy="-72" rx="55.79" ry="18"/>
<text text-anchor="middle" x="699.38" y="-68.3" font-family="Times,serif" font-size="14.00">ETL::Task</text>
</g>
<!-- ETL::Task&#45;&gt;ETL::Appeal -->
<g id="edge7" class="edge">
<title>ETL::Task&#45;&gt;ETL::Appeal</title>
<path fill="none" stroke="black" d="M753.2,-77.11C839.51,-86.2 1015.71,-107.92 1160.76,-146 1185.83,-152.58 1212.98,-162.4 1235.02,-171.09"/>
<polygon fill="black" stroke="black" points="1233.86,-174.4 1244.44,-174.86 1236.46,-167.9 1233.86,-174.4"/>
<text text-anchor="middle" x="1041.76" y="-149.8" font-family="Times,serif" font-size="14.00">appeal</text>
</g>
<!-- ETL::Task&#45;&gt;ETL::Task -->
<g id="edge6" class="edge">
<title>ETL::Task&#45;&gt;ETL::Task</title>
<path fill="none" stroke="black" d="M653.74,-82.5C622.35,-94.36 637.56,-108 699.38,-108 753.96,-108 772.21,-97.37 754.14,-86.72"/>
<polygon fill="black" stroke="black" points="755.57,-83.52 745.02,-82.5 752.63,-89.88 755.57,-83.52"/>
<text text-anchor="middle" x="699.38" y="-111.8" font-family="Times,serif" font-size="14.00">parent</text>
</g>
<!-- ETL::JudgeCaseReview -->
<g id="node8" class="node">
<title>ETL::JudgeCaseReview</title>
<ellipse fill="none" stroke="black" cx="123.5" cy="-72" rx="117.78" ry="18"/>
<text text-anchor="middle" x="123.5" y="-68.3" font-family="Times,serif" font-size="14.00">ETL::JudgeCaseReview</text>
</g>
<!-- ETL::JudgeCaseReview&#45;&gt;ETL::Task -->
<g id="edge5" class="edge">
<title>ETL::JudgeCaseReview&#45;&gt;ETL::Task</title>
<path fill="none" stroke="black" d="M241.33,-72C359.58,-72 538.18,-72 633.32,-72"/>
<polygon fill="black" stroke="black" points="633.38,-75.5 643.38,-72 633.38,-68.5 633.38,-75.5"/>
<text text-anchor="middle" x="370.5" y="-75.8" font-family="Times,serif" font-size="14.00">actual_task</text>
</g>
<!-- ETL::Hearing&#45;&gt;ETL::Appeal -->
<g id="edge8" class="edge">
<title>ETL::Hearing&#45;&gt;ETL::Appeal</title>
<path fill="none" stroke="black" d="M771.43,-210.18C881.32,-205.82 1091.56,-197.47 1204.17,-193"/>
<polygon fill="black" stroke="black" points="1204.58,-196.49 1214.43,-192.6 1204.3,-189.49 1204.58,-196.49"/>
<text text-anchor="middle" x="1041.76" y="-207.8" font-family="Times,serif" font-size="14.00">appeal</text>
</g>
<!-- ETL::LegacyHearing&#45;&gt;ETL::Appeal -->
<g id="edge9" class="edge">
<title>ETL::LegacyHearing&#45;&gt;ETL::Appeal</title>
<path fill="none" stroke="black" d="M804.74,-160.47C898.14,-162.35 1038.75,-166.59 1160.76,-176 1176.91,-177.25 1194.25,-179.03 1210.56,-180.91"/>
<polygon fill="black" stroke="black" points="1210.22,-184.39 1220.56,-182.08 1211.03,-177.44 1210.22,-184.39"/>
<text text-anchor="middle" x="1041.76" y="-179.8" font-family="Times,serif" font-size="14.00">appeal</text>
</g>
<!-- Task -->
<g id="node11" class="node">
<title>Task</title>
<polygon fill="#00ff00" stroke="#0000ff" points="75.5,-355 75.5,-401 171.5,-401 171.5,-355 75.5,-355"/>
<text text-anchor="middle" x="123.5" y="-385.8" font-family="Times,serif" font-size="14.00" fill="#0000ff">Task</text>
<polyline fill="none" stroke="#0000ff" points="75.5,-378 171.5,-378 "/>
<text text-anchor="middle" x="123.5" y="-362.8" font-family="Times,serif" font-size="14.00" fill="#0000ff">(120 tasks)</text>
</g>
<!-- Task&#45;&gt;Task -->
<g id="edge26" class="edge">
<title>Task&#45;&gt;Task</title>
<path fill="none" stroke="#6600cc" stroke-dasharray="1,5" d="M77.93,-401.05C74.2,-410.99 89.39,-419.5 123.5,-419.5 145.35,-419.5 159.44,-416.01 165.76,-410.88"/>
<polygon fill="#6600cc" stroke="#6600cc" points="169.2,-411.64 169.07,-401.05 162.57,-409.41 169.2,-411.64"/>
</g>
<!-- Claimant -->
<g id="node12" class="node">
<title>Claimant</title>
<polygon fill="#a9a9a9" stroke="#0000ff" points="68.5,-438 68.5,-484 178.5,-484 178.5,-438 68.5,-438"/>
<text text-anchor="middle" x="123.5" y="-468.8" font-family="Times,serif" font-size="14.00" fill="#0000ff">Claimant</text>
<polyline fill="none" stroke="#0000ff" points="68.5,-461 178.5,-461 "/>
<text text-anchor="middle" x="123.5" y="-445.8" font-family="Times,serif" font-size="14.00" fill="#0000ff">(6 claimants)</text>
</g>
<!-- DecisionReview -->
<g id="node13" class="node">
<title>DecisionReview</title>
<polygon fill="#ffff00" stroke="#0000ff" points="618.88,-482.5 618.88,-573.5 779.88,-573.5 779.88,-482.5 618.88,-482.5"/>
<text text-anchor="middle" x="699.38" y="-558.3" font-family="Times,serif" font-size="14.00" fill="#0000ff">DecisionReview</text>
<polyline fill="none" stroke="#0000ff" points="618.88,-550.5 779.88,-550.5 "/>
<text text-anchor="middle" x="699.38" y="-535.3" font-family="Times,serif" font-size="14.00" fill="#0000ff">Appeal,</text>
<text text-anchor="middle" x="699.38" y="-520.3" font-family="Times,serif" font-size="14.00" fill="#0000ff">ClaimReview,</text>
<text text-anchor="middle" x="699.38" y="-505.3" font-family="Times,serif" font-size="14.00" fill="#0000ff">SupplementalClaim,</text>
<text text-anchor="middle" x="699.38" y="-490.3" font-family="Times,serif" font-size="14.00" fill="#0000ff">HigherLevelReview</text>
</g>
<!-- ClaimReview -->
<g id="node14" class="node">
<title>ClaimReview</title>
<polygon fill="#ffff00" stroke="#0000ff" points="618.88,-592.5 618.88,-653.5 779.88,-653.5 779.88,-592.5 618.88,-592.5"/>
<text text-anchor="middle" x="699.38" y="-638.3" font-family="Times,serif" font-size="14.00" fill="#0000ff">ClaimReview</text>
<polyline fill="none" stroke="#0000ff" points="618.88,-630.5 779.88,-630.5 "/>
<text text-anchor="middle" x="699.38" y="-615.3" font-family="Times,serif" font-size="14.00" fill="#0000ff">SupplementalClaim,</text>
<text text-anchor="middle" x="699.38" y="-600.3" font-family="Times,serif" font-size="14.00" fill="#0000ff">HigherLevelReview</text>
</g>
<!-- RampReview -->
<g id="node15" class="node">
<title>RampReview</title>
<polygon fill="#cc99ff" stroke="#0000ff" points="638.88,-672.5 638.88,-733.5 759.88,-733.5 759.88,-672.5 638.88,-672.5"/>
<text text-anchor="middle" x="699.38" y="-718.3" font-family="Times,serif" font-size="14.00" fill="#0000ff">RampReview</text>
<polyline fill="none" stroke="#0000ff" points="638.88,-710.5 759.88,-710.5 "/>
<text text-anchor="middle" x="699.38" y="-695.3" font-family="Times,serif" font-size="14.00" fill="#0000ff">RampElection,</text>
<text text-anchor="middle" x="699.38" y="-680.3" font-family="Times,serif" font-size="14.00" fill="#0000ff">RampRefiling</text>
</g>
<!-- RequestIssue -->
<g id="node16" class="node">
<title>RequestIssue</title>
<polygon fill="#ffa500" stroke="#0000ff" points="31,-739.5 31,-800.5 216,-800.5 216,-739.5 31,-739.5"/>
<text text-anchor="middle" x="123.5" y="-785.3" font-family="Times,serif" font-size="14.00" fill="#0000ff">RequestIssue</text>
<polyline fill="none" stroke="#0000ff" points="31,-777.5 216,-777.5 "/>
<text text-anchor="middle" x="123.5" y="-762.3" font-family="Times,serif" font-size="14.00" fill="#0000ff">RatingRequestIssue,</text>
<text text-anchor="middle" x="123.5" y="-747.3" font-family="Times,serif" font-size="14.00" fill="#0000ff">NonratingRequestIssue</text>
</g>
<!-- appeal_type -->
<g id="node17" class="node">
<title>appeal_type</title>
<polygon fill="#ffff00" stroke="#0000ff" points="65.5,-819.5 65.5,-880.5 181.5,-880.5 181.5,-819.5 65.5,-819.5"/>
<text text-anchor="middle" x="123.5" y="-865.3" font-family="Times,serif" font-size="14.00" fill="#0000ff">appeal_type</text>
<polyline fill="none" stroke="#0000ff" points="65.5,-857.5 181.5,-857.5 "/>
<text text-anchor="middle" x="123.5" y="-842.3" font-family="Times,serif" font-size="14.00" fill="#0000ff">Appeal,</text>
<text text-anchor="middle" x="123.5" y="-827.3" font-family="Times,serif" font-size="14.00" fill="#0000ff">LegacyAppeal</text>
</g>
<!-- hearing_type -->
<g id="node18" class="node">
<title>hearing_type</title>
<polygon fill="none" stroke="#0000ff" stroke-dasharray="1,5" points="61,-899.5 61,-960.5 186,-960.5 186,-899.5 61,-899.5"/>
<text text-anchor="middle" x="123.5" y="-945.3" font-family="Times,serif" font-size="14.00" fill="#0000ff">hearing_type</text>
<polyline fill="none" stroke="#0000ff" stroke-dasharray="1,5" points="61,-937.5 186,-937.5 "/>
<text text-anchor="middle" x="123.5" y="-922.3" font-family="Times,serif" font-size="14.00" fill="#0000ff">Hearing,</text>
<text text-anchor="middle" x="123.5" y="-907.3" font-family="Times,serif" font-size="14.00" fill="#0000ff">LegacyHearing</text>
</g>
<!-- decision_review_type -->
<g id="node19" class="node">
<title>decision_review_type</title>
<polygon fill="#ffff00" stroke="#0000ff" points="615.38,-1060 615.38,-1136 783.38,-1136 783.38,-1060 615.38,-1060"/>
<text text-anchor="middle" x="699.38" y="-1120.8" font-family="Times,serif" font-size="14.00" fill="#0000ff">decision_review_type</text>
<polyline fill="none" stroke="#0000ff" points="615.38,-1113 783.38,-1113 "/>
<text text-anchor="middle" x="699.38" y="-1097.8" font-family="Times,serif" font-size="14.00" fill="#0000ff">Appeal,</text>
<text text-anchor="middle" x="699.38" y="-1082.8" font-family="Times,serif" font-size="14.00" fill="#0000ff">SupplementalClaim,</text>
<text text-anchor="middle" x="699.38" y="-1067.8" font-family="Times,serif" font-size="14.00" fill="#0000ff">HigherLevelReview</text>
</g>
<!-- decision_review_remanded_type -->
<g id="node20" class="node">
<title>decision_review_remanded_type</title>
<polygon fill="#ffff00" stroke="#0000ff" points="0,-1155 0,-1231 247,-1231 247,-1155 0,-1155"/>
<text text-anchor="middle" x="123.5" y="-1215.8" font-family="Times,serif" font-size="14.00" fill="#0000ff">decision_review_remanded_type</text>
<polyline fill="none" stroke="#0000ff" points="0,-1208 247,-1208 "/>
<text text-anchor="middle" x="123.5" y="-1192.8" font-family="Times,serif" font-size="14.00" fill="#0000ff">Appeal,</text>
<text text-anchor="middle" x="123.5" y="-1177.8" font-family="Times,serif" font-size="14.00" fill="#0000ff">SupplementalClaim,</text>
<text text-anchor="middle" x="123.5" y="-1162.8" font-family="Times,serif" font-size="14.00" fill="#0000ff">HigherLevelReview</text>
</g>
<!-- decision_review_remanded_type&#45;&gt;decision_review_type -->
<g id="edge22" class="edge">
<title>decision_review_remanded_type&#45;&gt;decision_review_type</title>
<path fill="none" stroke="#6600cc" stroke-dasharray="1,5" d="M247.26,-1172.68C354.43,-1154.94 507.65,-1129.57 605.06,-1113.45"/>
<polygon fill="#6600cc" stroke="#6600cc" points="605.9,-1116.86 615.19,-1111.77 604.75,-1109.95 605.9,-1116.86"/>
<text text-anchor="middle" x="370.5" y="-1171.8" font-family="Times,serif" font-size="14.00" fill="#6600cc">a.k.a.</text>
</g>
<!-- review_type -->
<g id="node21" class="node">
<title>review_type</title>
<polygon fill="#ffff00" stroke="#0000ff" points="43,-1060 43,-1136 204,-1136 204,-1060 43,-1060"/>
<text text-anchor="middle" x="123.5" y="-1120.8" font-family="Times,serif" font-size="14.00" fill="#0000ff">review_type</text>
<polyline fill="none" stroke="#0000ff" points="43,-1113 204,-1113 "/>
<text text-anchor="middle" x="123.5" y="-1097.8" font-family="Times,serif" font-size="14.00" fill="#0000ff">Appeal,</text>
<text text-anchor="middle" x="123.5" y="-1082.8" font-family="Times,serif" font-size="14.00" fill="#0000ff">SupplementalClaim,</text>
<text text-anchor="middle" x="123.5" y="-1067.8" font-family="Times,serif" font-size="14.00" fill="#0000ff">HigherLevelReview</text>
</g>
<!-- review_type&#45;&gt;decision_review_type -->
<g id="edge23" class="edge">
<title>review_type&#45;&gt;decision_review_type</title>
<path fill="none" stroke="#6600cc" stroke-dasharray="1,5" d="M204.3,-1098C309.27,-1098 493.46,-1098 604.86,-1098"/>
<polygon fill="#6600cc" stroke="#6600cc" points="605.08,-1101.5 615.08,-1098 605.08,-1094.5 605.08,-1101.5"/>
<text text-anchor="middle" x="370.5" y="-1101.8" font-family="Times,serif" font-size="14.00" fill="#6600cc">a.k.a.</text>
</g>
<!-- original_decision_review_type -->
<g id="node22" class="node">
<title>original_decision_review_type</title>
<polygon fill="#ffff00" stroke="#0000ff" points="8.5,-1250.5 8.5,-1311.5 238.5,-1311.5 238.5,-1250.5 8.5,-1250.5"/>
<text text-anchor="middle" x="123.5" y="-1296.3" font-family="Times,serif" font-size="14.00" fill="#0000ff">original_decision_review_type</text>
<polyline fill="none" stroke="#0000ff" points="8.5,-1288.5 238.5,-1288.5 "/>
<text text-anchor="middle" x="123.5" y="-1273.3" font-family="Times,serif" font-size="14.00" fill="#0000ff">SupplementalClaim,</text>
<text text-anchor="middle" x="123.5" y="-1258.3" font-family="Times,serif" font-size="14.00" fill="#0000ff">HigherLevelReview</text>
</g>
<!-- source_type -->
<g id="node23" class="node">
<title>source_type</title>
<polygon fill="none" stroke="#0000ff" stroke-dasharray="1,5" points="43,-1331 43,-1437 204,-1437 204,-1331 43,-1331"/>
<text text-anchor="middle" x="123.5" y="-1421.8" font-family="Times,serif" font-size="14.00" fill="#0000ff">source_type</text>
<polyline fill="none" stroke="#0000ff" stroke-dasharray="1,5" points="43,-1414 204,-1414 "/>
<text text-anchor="middle" x="123.5" y="-1398.8" font-family="Times,serif" font-size="14.00" fill="#0000ff">DecisionDocument,</text>
<text text-anchor="middle" x="123.5" y="-1383.8" font-family="Times,serif" font-size="14.00" fill="#0000ff">SupplementalClaim,</text>
<text text-anchor="middle" x="123.5" y="-1368.8" font-family="Times,serif" font-size="14.00" fill="#0000ff">HigherLevelReview,</text>
<text text-anchor="middle" x="123.5" y="-1353.8" font-family="Times,serif" font-size="14.00" fill="#0000ff">RampRefiling,</text>
<text text-anchor="middle" x="123.5" y="-1338.8" font-family="Times,serif" font-size="14.00" fill="#0000ff">RampElection</text>
</g>
<!-- assigned_to_type -->
<g id="node24" class="node">
<title>assigned_to_type</title>
<polygon fill="none" stroke="#0000ff" stroke-dasharray="1,5" points="54,-1456.5 54,-1517.5 193,-1517.5 193,-1456.5 54,-1456.5"/>
<text text-anchor="middle" x="123.5" y="-1502.3" font-family="Times,serif" font-size="14.00" fill="#0000ff">assigned_to_type</text>
<polyline fill="none" stroke="#0000ff" stroke-dasharray="1,5" points="54,-1494.5 193,-1494.5 "/>
<text text-anchor="middle" x="123.5" y="-1479.3" font-family="Times,serif" font-size="14.00" fill="#0000ff">User,</text>
<text text-anchor="middle" x="123.5" y="-1464.3" font-family="Times,serif" font-size="14.00" fill="#0000ff">Organization</text>
</g>
<!-- record_type -->
<g id="node25" class="node">
<title>record_type</title>
<polygon fill="#ffff00" stroke="#0000ff" points="65.5,-979.5 65.5,-1040.5 181.5,-1040.5 181.5,-979.5 65.5,-979.5"/>
<text text-anchor="middle" x="123.5" y="-1025.3" font-family="Times,serif" font-size="14.00" fill="#0000ff">record_type</text>
<polyline fill="none" stroke="#0000ff" points="65.5,-1017.5 181.5,-1017.5 "/>
<text text-anchor="middle" x="123.5" y="-1002.3" font-family="Times,serif" font-size="14.00" fill="#0000ff">Appeal,</text>
<text text-anchor="middle" x="123.5" y="-987.3" font-family="Times,serif" font-size="14.00" fill="#0000ff">LegacyAppeal</text>
</g>
<!-- record_type&#45;&gt;decision_review_type -->
<g id="edge24" class="edge">
<title>record_type&#45;&gt;decision_review_type</title>
<path fill="none" stroke="#6600cc" d="M181.62,-1018.76C280.76,-1033.96 485.51,-1065.36 605.38,-1083.74"/>
<polygon fill="#6600cc" stroke="#6600cc" points="604.87,-1087.2 615.28,-1085.26 605.93,-1080.28 604.87,-1087.2"/>
<text text-anchor="middle" x="370.5" y="-1065.8" font-family="Times,serif" font-size="14.00" fill="#6600cc">(subset of)</text>
</g>
<!-- Message -->
<g id="node26" class="node">
<title>Message</title>
<polygon fill="#f2f2f2" stroke="#aaaaaa" points="163.5,-1572 83.5,-1572 83.5,-1568 79.5,-1568 79.5,-1564 83.5,-1564 83.5,-1544 79.5,-1544 79.5,-1540 83.5,-1540 83.5,-1536 163.5,-1536 163.5,-1572"/>
<polyline fill="none" stroke="#aaaaaa" points="83.5,-1568 87.5,-1568 87.5,-1564 83.5,-1564 "/>
<polyline fill="none" stroke="#aaaaaa" points="83.5,-1544 87.5,-1544 87.5,-1540 83.5,-1540 "/>
<text text-anchor="middle" x="123.5" y="-1550.3" font-family="Times,serif" font-size="14.00">Message</text>
</g>
<!-- JobNote -->
<g id="node27" class="node">
<title>JobNote</title>
<ellipse fill="none" stroke="black" cx="699.38" cy="-1554" rx="48.19" ry="18"/>
<text text-anchor="middle" x="699.38" y="-1550.3" font-family="Times,serif" font-size="14.00">JobNote</text>
</g>
<!-- Message&#45;&gt;JobNote -->
<g id="edge10" class="edge">
<title>Message&#45;&gt;JobNote</title>
<path fill="none" stroke="#0000ff" d="M163.95,-1554C263.38,-1554 524.62,-1554 641.01,-1554"/>
<polygon fill="#0000ff" stroke="#0000ff" points="641.14,-1557.5 651.14,-1554 641.14,-1550.5 641.14,-1557.5"/>
<text text-anchor="middle" x="370.5" y="-1557.8" font-family="Times,serif" font-size="14.00" fill="#0000ff">Message#detail</text>
</g>
<!-- SupplementalClaim -->
<g id="node28" class="node">
<title>SupplementalClaim</title>
<ellipse fill="#ffff00" stroke="black" cx="1280.8" cy="-1615" rx="102.08" ry="18"/>
<text text-anchor="middle" x="1280.8" y="-1611.3" font-family="Times,serif" font-size="14.00">SupplementalClaim</text>
</g>
<!-- Message&#45;&gt;SupplementalClaim -->
<g id="edge11" class="edge">
<title>Message&#45;&gt;SupplementalClaim</title>
<path fill="none" stroke="#0000ff" d="M163.51,-1567.51C230.22,-1589.81 370.95,-1633.44 494,-1649 788.07,-1686.2 866.09,-1666.07 1160.76,-1634 1172.83,-1632.69 1185.54,-1630.99 1197.98,-1629.16"/>
<polygon fill="#0000ff" stroke="#0000ff" points="1198.52,-1632.62 1207.88,-1627.66 1197.47,-1625.7 1198.52,-1632.62"/>
<text text-anchor="middle" x="699.38" y="-1673.8" font-family="Times,serif" font-size="14.00" fill="#0000ff">Message#detail</text>
</g>
<!-- HigherLevelReview -->
<g id="node29" class="node">
<title>HigherLevelReview</title>
<ellipse fill="#ffff00" stroke="black" cx="1280.8" cy="-1503" rx="101.28" ry="18"/>
<text text-anchor="middle" x="1280.8" y="-1499.3" font-family="Times,serif" font-size="14.00">HigherLevelReview</text>
</g>
<!-- Message&#45;&gt;HigherLevelReview -->
<g id="edge12" class="edge">
<title>Message&#45;&gt;HigherLevelReview</title>
<path fill="none" stroke="#0000ff" d="M163.76,-1548.21C231.13,-1538.57 373.18,-1519.54 494,-1512 734.6,-1496.99 1017.41,-1498.41 1169.55,-1500.73"/>
<polygon fill="#0000ff" stroke="#0000ff" points="1169.78,-1504.24 1179.83,-1500.89 1169.89,-1497.24 1169.78,-1504.24"/>
<text text-anchor="middle" x="699.38" y="-1515.8" font-family="Times,serif" font-size="14.00" fill="#0000ff">Message#detail</text>
</g>
<!-- JobNote&#45;&gt;SupplementalClaim -->
<g id="edge20" class="edge">
<title>JobNote&#45;&gt;SupplementalClaim</title>
<path fill="none" stroke="#0000ff" d="M746.89,-1557.2C830.1,-1563.16 1009.85,-1577.09 1160.76,-1596 1172.44,-1597.46 1184.74,-1599.2 1196.81,-1601.02"/>
<polygon fill="#0000ff" stroke="#0000ff" points="1196.47,-1604.51 1206.89,-1602.57 1197.53,-1597.59 1196.47,-1604.51"/>
<text text-anchor="middle" x="1041.76" y="-1599.8" font-family="Times,serif" font-size="14.00" fill="#0000ff">JobNote#job</text>
</g>
<!-- JobNote&#45;&gt;HigherLevelReview -->
<g id="edge21" class="edge">
<title>JobNote&#45;&gt;HigherLevelReview</title>
<path fill="none" stroke="#0000ff" d="M746.8,-1550.31C829.87,-1543.66 1009.41,-1529.04 1160.76,-1515 1167.87,-1514.34 1175.22,-1513.64 1182.61,-1512.93"/>
<polygon fill="#0000ff" stroke="#0000ff" points="1183.09,-1516.4 1192.7,-1511.94 1182.41,-1509.43 1183.09,-1516.4"/>
<text text-anchor="middle" x="1041.76" y="-1538.8" font-family="Times,serif" font-size="14.00" fill="#0000ff">JobNote#job</text>
</g>
<!-- AppealIntake -->
<g id="node30" class="node">
<title>AppealIntake</title>
<polygon fill="#ffffcc" stroke="black" points="166.5,-1746 68.5,-1746 68.5,-1708 166.5,-1708 178.5,-1727 166.5,-1746"/>
<text text-anchor="middle" x="123.5" y="-1723.3" font-family="Times,serif" font-size="14.00">AppealIntake</text>
</g>
<!-- Appeal -->
<g id="node31" class="node">
<title>Appeal</title>
<ellipse fill="#ffff00" stroke="black" cx="699.38" cy="-1727" rx="42.49" ry="18"/>
<text text-anchor="middle" x="699.38" y="-1723.3" font-family="Times,serif" font-size="14.00">Appeal</text>
</g>
<!-- AppealIntake&#45;&gt;Appeal -->
<g id="edge13" class="edge">
<title>AppealIntake&#45;&gt;Appeal</title>
<path fill="none" stroke="#0000ff" d="M178.75,-1727C289.18,-1727 538.78,-1727 646.87,-1727"/>
<polygon fill="#0000ff" stroke="#0000ff" points="646.88,-1730.5 656.88,-1727 646.88,-1723.5 646.88,-1730.5"/>
<text text-anchor="middle" x="370.5" y="-1730.8" font-family="Times,serif" font-size="14.00" fill="#0000ff">AppealIntake#detail</text>
</g>
<!-- RampElectionIntake -->
<g id="node32" class="node">
<title>RampElectionIntake</title>
<polygon fill="#ffffcc" stroke="black" points="192,-1814 43,-1814 43,-1776 192,-1776 204,-1795 192,-1814"/>
<text text-anchor="middle" x="123.5" y="-1791.3" font-family="Times,serif" font-size="14.00">RampElectionIntake</text>
</g>
<!-- RampElection -->
<g id="node33" class="node">
<title>RampElection</title>
<ellipse fill="#cc99ff" stroke="black" cx="699.38" cy="-1795" rx="75.29" ry="18"/>
<text text-anchor="middle" x="699.38" y="-1791.3" font-family="Times,serif" font-size="14.00">RampElection</text>
</g>
<!-- RampElectionIntake&#45;&gt;RampElection -->
<g id="edge14" class="edge">
<title>RampElectionIntake&#45;&gt;RampElection</title>
<path fill="none" stroke="#0000ff" d="M204.3,-1795C312.11,-1795 503.47,-1795 613.73,-1795"/>
<polygon fill="#0000ff" stroke="#0000ff" points="613.82,-1798.5 623.82,-1795 613.82,-1791.5 613.82,-1798.5"/>
<text text-anchor="middle" x="370.5" y="-1798.8" font-family="Times,serif" font-size="14.00" fill="#0000ff">RampElectionIntake#detail</text>
</g>
<!-- RampRefilingIntake -->
<g id="node34" class="node">
<title>RampRefilingIntake</title>
<polygon fill="#ffffcc" stroke="black" points="190.5,-1882 44.5,-1882 44.5,-1844 190.5,-1844 202.5,-1863 190.5,-1882"/>
<text text-anchor="middle" x="123.5" y="-1859.3" font-family="Times,serif" font-size="14.00">RampRefilingIntake</text>
</g>
<!-- RampRefiling -->
<g id="node35" class="node">
<title>RampRefiling</title>
<ellipse fill="#cc99ff" stroke="black" cx="699.38" cy="-1863" rx="73.39" ry="18"/>
<text text-anchor="middle" x="699.38" y="-1859.3" font-family="Times,serif" font-size="14.00">RampRefiling</text>
</g>
<!-- RampRefilingIntake&#45;&gt;RampRefiling -->
<g id="edge15" class="edge">
<title>RampRefilingIntake&#45;&gt;RampRefiling</title>
<path fill="none" stroke="#0000ff" d="M202.79,-1863C310.91,-1863 505.06,-1863 615.54,-1863"/>
<polygon fill="#0000ff" stroke="#0000ff" points="615.63,-1866.5 625.63,-1863 615.63,-1859.5 615.63,-1866.5"/>
<text text-anchor="middle" x="370.5" y="-1866.8" font-family="Times,serif" font-size="14.00" fill="#0000ff">RampRefilingIntake#detail</text>
</g>
<!-- HigherLevelReviewIntake -->
<g id="node36" class="node">
<title>HigherLevelReviewIntake</title>
<polygon fill="#ffffcc" stroke="black" points="787.88,-1461 598.88,-1461 598.88,-1423 787.88,-1423 799.88,-1442 787.88,-1461"/>
<text text-anchor="middle" x="699.38" y="-1438.3" font-family="Times,serif" font-size="14.00">HigherLevelReviewIntake</text>
</g>
<!-- HigherLevelReviewIntake&#45;&gt;HigherLevelReview -->
<g id="edge16" class="edge">
<title>HigherLevelReviewIntake&#45;&gt;HigherLevelReview</title>
<path fill="none" stroke="#0000ff" d="M800.16,-1444.06C893.78,-1447.15 1037.46,-1454.84 1160.76,-1474 1178.94,-1476.83 1198.42,-1481.05 1216.25,-1485.41"/>
<polygon fill="#0000ff" stroke="#0000ff" points="1215.42,-1488.81 1225.97,-1487.84 1217.12,-1482.02 1215.42,-1488.81"/>
<text text-anchor="middle" x="1041.76" y="-1477.8" font-family="Times,serif" font-size="14.00" fill="#0000ff">HigherLevelReviewIntake#detail</text>
</g>
<!-- SupplementalClaimIntake -->
<g id="node37" class="node">
<title>SupplementalClaimIntake</title>
<polygon fill="#ffffcc" stroke="black" points="788.38,-1634 598.38,-1634 598.38,-1596 788.38,-1596 800.38,-1615 788.38,-1634"/>
<text text-anchor="middle" x="699.38" y="-1611.3" font-family="Times,serif" font-size="14.00">SupplementalClaimIntake</text>
</g>
<!-- SupplementalClaimIntake&#45;&gt;SupplementalClaim -->
<g id="edge17" class="edge">
<title>SupplementalClaimIntake&#45;&gt;SupplementalClaim</title>
<path fill="none" stroke="#0000ff" d="M800.65,-1615C903.1,-1615 1061.83,-1615 1168.21,-1615"/>
<polygon fill="#0000ff" stroke="#0000ff" points="1168.34,-1618.5 1178.34,-1615 1168.34,-1611.5 1168.34,-1618.5"/>
<text text-anchor="middle" x="1041.76" y="-1618.8" font-family="Times,serif" font-size="14.00" fill="#0000ff">SupplementalClaimIntake#detail</text>
</g>
<!-- DecisionReviewIntake -->
<g id="node38" class="node">
<title>DecisionReviewIntake</title>
<polygon fill="#ffffcc" stroke="black" points="198.5,-547 36.5,-547 36.5,-509 198.5,-509 210.5,-528 198.5,-547"/>
<text text-anchor="middle" x="123.5" y="-524.3" font-family="Times,serif" font-size="14.00">DecisionReviewIntake</text>
</g>
<!-- DecisionReviewIntake&#45;&gt;DecisionReview -->
<g id="edge18" class="edge">
<title>DecisionReviewIntake&#45;&gt;DecisionReview</title>
<path fill="none" stroke="#0000ff" d="M210.73,-528C317.73,-528 499.34,-528 608.16,-528"/>
<polygon fill="#0000ff" stroke="#0000ff" points="608.46,-531.5 618.46,-528 608.46,-524.5 608.46,-531.5"/>
<text text-anchor="middle" x="370.5" y="-531.8" font-family="Times,serif" font-size="14.00" fill="#0000ff">DecisionReviewIntake#detail</text>
</g>
<!-- ClaimReviewIntake -->
<g id="node39" class="node">
<title>ClaimReviewIntake</title>
<polygon fill="#ffffcc" stroke="black" points="189,-642 46,-642 46,-604 189,-604 201,-623 189,-642"/>
<text text-anchor="middle" x="123.5" y="-619.3" font-family="Times,serif" font-size="14.00">ClaimReviewIntake</text>
</g>
<!-- ClaimReviewIntake&#45;&gt;ClaimReview -->
<g id="edge19" class="edge">
<title>ClaimReviewIntake&#45;&gt;ClaimReview</title>
<path fill="none" stroke="#0000ff" d="M201,-623C306.5,-623 496.29,-623 608.45,-623"/>
<polygon fill="#0000ff" stroke="#0000ff" points="608.72,-626.5 618.72,-623 608.72,-619.5 608.72,-626.5"/>
<text text-anchor="middle" x="370.5" y="-626.8" font-family="Times,serif" font-size="14.00" fill="#0000ff">ClaimReviewIntake#detail</text>
</g>
<!-- RampIssue -->
<g id="node40" class="node">
<title>RampIssue</title>
<ellipse fill="#cc99ff" stroke="black" cx="123.5" cy="-703" rx="61.99" ry="18"/>
<text text-anchor="middle" x="123.5" y="-699.3" font-family="Times,serif" font-size="14.00">RampIssue</text>
</g>
<!-- RampIssue&#45;&gt;RampReview -->
<g id="edge25" class="edge">
<title>RampIssue&#45;&gt;RampReview</title>
<path fill="none" stroke="#6600cc" d="M185.37,-703C292.65,-703 514.74,-703 628.26,-703"/>
<polygon fill="#6600cc" stroke="#6600cc" points="628.56,-706.5 638.56,-703 628.56,-699.5 628.56,-706.5"/>
<text text-anchor="middle" x="370.5" y="-706.8" font-family="Times,serif" font-size="14.00" fill="#6600cc">(ramp_)review</text>
</g>
<!-- ETL::DecisionReview -->
<g id="node41" class="node">
<title>ETL::DecisionReview</title>
<polygon fill="none" stroke="#000099" stroke-dasharray="5,2" points="40,-1953 40,-1989 207,-1989 207,-1953 40,-1953"/>
<text text-anchor="middle" x="123.5" y="-1967.3" font-family="Times,serif" font-size="14.00" fill="#000099">ETL::DecisionReview</text>
</g>
<!-- ETL::DecisionReview::Appeal -->
<g id="node42" class="node">
<title>ETL::DecisionReview::Appeal</title>
<ellipse fill="none" stroke="black" cx="699.38" cy="-2025" rx="145.67" ry="18"/>
<text text-anchor="middle" x="699.38" y="-2021.3" font-family="Times,serif" font-size="14.00">ETL::DecisionReview::Appeal</text>
</g>
<!-- ETL::DecisionReview&#45;&gt;ETL::DecisionReview::Appeal -->
<g id="edge27" class="edge">
<title>ETL::DecisionReview&#45;&gt;ETL::DecisionReview::Appeal</title>
<path fill="none" stroke="#000099" stroke-dasharray="1,5" d="M207.33,-1979.35C226.28,-1981.24 246.33,-1983.21 265,-1985 367.92,-1994.88 484.63,-2005.62 570.99,-2013.49"/>
<polygon fill="#000099" stroke="#000099" points="570.82,-2016.99 581.1,-2014.41 571.46,-2010.02 570.82,-2016.99"/>
</g>
<!-- ETL::DecisionReview::HigherLevelReview -->
<g id="node43" class="node">
<title>ETL::DecisionReview::HigherLevelReview</title>
<ellipse fill="none" stroke="black" cx="699.38" cy="-1971" rx="204.96" ry="18"/>
<text text-anchor="middle" x="699.38" y="-1967.3" font-family="Times,serif" font-size="14.00">ETL::DecisionReview::HigherLevelReview</text>
</g>
<!-- ETL::DecisionReview&#45;&gt;ETL::DecisionReview::HigherLevelReview -->
<g id="edge28" class="edge">
<title>ETL::DecisionReview&#45;&gt;ETL::DecisionReview::HigherLevelReview</title>
<path fill="none" stroke="#000099" stroke-dasharray="1,5" d="M207.03,-1971C279.37,-1971 387.78,-1971 484.37,-1971"/>
<polygon fill="#000099" stroke="#000099" points="484.58,-1974.5 494.58,-1971 484.58,-1967.5 484.58,-1974.5"/>
</g>
<!-- ETL::DecisionReview::SupplementalClaim -->
<g id="node44" class="node">
<title>ETL::DecisionReview::SupplementalClaim</title>
<ellipse fill="none" stroke="black" cx="699.38" cy="-1917" rx="205.26" ry="18"/>
<text text-anchor="middle" x="699.38" y="-1913.3" font-family="Times,serif" font-size="14.00">ETL::DecisionReview::SupplementalClaim</text>
</g>
<!-- ETL::DecisionReview&#45;&gt;ETL::DecisionReview::SupplementalClaim -->
<g id="edge29" class="edge">
<title>ETL::DecisionReview&#45;&gt;ETL::DecisionReview::SupplementalClaim</title>
<path fill="none" stroke="#000099" stroke-dasharray="1,5" d="M207.03,-1963.23C296.06,-1954.86 439.7,-1941.34 548.73,-1931.08"/>
<polygon fill="#000099" stroke="#000099" points="549.21,-1934.55 558.84,-1930.13 548.55,-1927.58 549.21,-1934.55"/>
</g>
</g>
</svg>
