<?xml version="1.0" encoding="UTF-8" standalone="no"?>
<!DOCTYPE svg PUBLIC "-//W3C//DTD SVG 1.1//EN"
 "http://www.w3.org/Graphics/SVG/1.1/DTD/svg11.dtd">
<!-- Generated by graphviz version 2.43.0 (0)
 -->
<!-- Title: subclasses Pages: 1 -->
<svg width="622pt" height="260pt"
 viewBox="0.00 0.00 621.76 260.00" xmlns="http://www.w3.org/2000/svg" xmlns:xlink="http://www.w3.org/1999/xlink">
<g id="graph0" class="graph" transform="scale(1 1) rotate(0) translate(4 256)">
<title>subclasses</title>
<polygon fill="white" stroke="transparent" points="-4,4 -4,-256 617.76,-256 617.76,4 -4,4"/>
<!-- ETL::DecisionReview -->
<g id="node1" class="node">
<title>ETL::DecisionReview</title>
<polygon fill="none" stroke="#000099" stroke-dasharray="5,2" points="0,-54 0,-90 167,-90 167,-54 0,-54"/>
<text text-anchor="middle" x="83.5" y="-68.3" font-family="Times,serif" font-size="14.00" fill="#000099">ETL::DecisionReview</text>
</g>
<!-- ETL::DecisionReview::Appeal -->
<g id="node2" class="node">
<title>ETL::DecisionReview::Appeal</title>
<ellipse fill="none" stroke="black" cx="408.38" cy="-126" rx="145.67" ry="18"/>
<text text-anchor="middle" x="408.38" y="-122.3" font-family="Times,serif" font-size="14.00">ETL::DecisionReview::Appeal</text>
</g>
<!-- ETL::DecisionReview&#45;&gt;ETL::DecisionReview::Appeal -->
<g id="edge1" class="edge">
<title>ETL::DecisionReview&#45;&gt;ETL::DecisionReview::Appeal</title>
<path fill="none" stroke="#000099" stroke-dasharray="1,5" d="M167.23,-85.84C211.1,-93.17 265.23,-102.23 310.99,-109.88"/>
<polygon fill="#000099" stroke="#000099" points="310.48,-113.34 320.92,-111.54 311.63,-106.44 310.48,-113.34"/>
</g>
<!-- ETL::DecisionReview::HigherLevelReview -->
<g id="node3" class="node">
<title>ETL::DecisionReview::HigherLevelReview</title>
<ellipse fill="none" stroke="black" cx="408.38" cy="-72" rx="204.96" ry="18"/>
<text text-anchor="middle" x="408.38" y="-68.3" font-family="Times,serif" font-size="14.00">ETL::DecisionReview::HigherLevelReview</text>
</g>
<!-- ETL::DecisionReview&#45;&gt;ETL::DecisionReview::HigherLevelReview -->
<g id="edge2" class="edge">
<title>ETL::DecisionReview&#45;&gt;ETL::DecisionReview::HigherLevelReview</title>
<path fill="none" stroke="#000099" stroke-dasharray="1,5" d="M167.23,-72C175.58,-72 184.3,-72 193.26,-72"/>
<polygon fill="#000099" stroke="#000099" points="193.48,-75.5 203.48,-72 193.48,-68.5 193.48,-75.5"/>
</g>
<!-- ETL::DecisionReview::SupplementalClaim -->
<g id="node4" class="node">
<title>ETL::DecisionReview::SupplementalClaim</title>
<ellipse fill="none" stroke="black" cx="408.38" cy="-18" rx="205.26" ry="18"/>
<text text-anchor="middle" x="408.38" y="-14.3" font-family="Times,serif" font-size="14.00">ETL::DecisionReview::SupplementalClaim</text>
</g>
<!-- ETL::DecisionReview&#45;&gt;ETL::DecisionReview::SupplementalClaim -->
<g id="edge3" class="edge">
<title>ETL::DecisionReview&#45;&gt;ETL::DecisionReview::SupplementalClaim</title>
<path fill="none" stroke="#000099" stroke-dasharray="1,5" d="M167.23,-58.16C208.23,-51.31 258.19,-42.95 301.9,-35.64"/>
<polygon fill="#000099" stroke="#000099" points="302.71,-39.05 312,-33.95 301.56,-32.15 302.71,-39.05"/>
</g>
<!-- ETL::HearingRecord -->
<g id="node5" class="node">
<title>ETL::HearingRecord</title>
<polygon fill="none" stroke="#000099" stroke-dasharray="5,2" points="2.5,-189 2.5,-225 164.5,-225 164.5,-189 2.5,-189"/>
<text text-anchor="middle" x="83.5" y="-203.3" font-family="Times,serif" font-size="14.00" fill="#000099">ETL::HearingRecord</text>
</g>
<!-- ETL::Hearing -->
<g id="node6" class="node">
<title>ETL::Hearing</title>
<ellipse fill="#66ccff" stroke="black" cx="408.38" cy="-234" rx="72.59" ry="18"/>
<text text-anchor="middle" x="408.38" y="-230.3" font-family="Times,serif" font-size="14.00">ETL::Hearing</text>
</g>
<!-- ETL::HearingRecord&#45;&gt;ETL::Hearing -->
<g id="edge4" class="edge">
<title>ETL::HearingRecord&#45;&gt;ETL::Hearing</title>
<path fill="none" stroke="#000099" stroke-dasharray="1,5" d="M164.73,-213.71C214.96,-217.91 279.38,-223.3 329.22,-227.46"/>
<polygon fill="#000099" stroke="#000099" points="329.05,-230.96 339.31,-228.31 329.63,-223.99 329.05,-230.96"/>
</g>
<!-- ETL::LegacyHearing -->
<g id="node7" class="node">
<title>ETL::LegacyHearing</title>
<ellipse fill="#66ccff" stroke="black" cx="408.38" cy="-180" rx="105.08" ry="18"/>
<text text-anchor="middle" x="408.38" y="-176.3" font-family="Times,serif" font-size="14.00">ETL::LegacyHearing</text>
</g>
<!-- ETL::HearingRecord&#45;&gt;ETL::LegacyHearing -->
<g id="edge5" class="edge">
<title>ETL::HearingRecord&#45;&gt;ETL::LegacyHearing</title>
<path fill="none" stroke="#000099" stroke-dasharray="1,5" d="M164.73,-200.29C206.66,-196.78 258.48,-192.45 303.45,-188.69"/>
<polygon fill="#000099" stroke="#000099" points="303.85,-192.17 313.53,-187.85 303.27,-185.19 303.85,-192.17"/>
</g>
</g>
</svg>
