<?xml version="1.0" encoding="UTF-8" standalone="no"?>
<!DOCTYPE svg PUBLIC "-//W3C//DTD SVG 1.1//EN"
 "http://www.w3.org/Graphics/SVG/1.1/DTD/svg11.dtd">
<!-- Generated by graphviz version 2.43.0 (0)
 -->
<!-- Title: belongs_to_erd Pages: 1 -->
<svg width="1191pt" height="1959pt"
 viewBox="0.00 0.00 1190.66 1959.00" xmlns="http://www.w3.org/2000/svg" xmlns:xlink="http://www.w3.org/1999/xlink">
<g id="graph0" class="graph" transform="scale(1 1) rotate(0) translate(4 1955)">
<title>belongs_to_erd</title>
<polygon fill="white" stroke="transparent" points="-4,4 -4,-1955 1186.66,-1955 1186.66,4 -4,4"/>
<!-- AppealSeries -->
<g id="node1" class="node">
<title>AppealSeries</title>
<ellipse fill="none" stroke="black" cx="599.29" cy="-18" rx="71.49" ry="18"/>
<text text-anchor="middle" x="599.29" y="-14.3" font-family="Times,serif" font-size="14.00">AppealSeries</text>
</g>
<!-- LegacyAppeal -->
<g id="node2" class="node">
<title>LegacyAppeal</title>
<ellipse fill="#ffff00" stroke="black" cx="123.5" cy="-18" rx="75.29" ry="18"/>
<text text-anchor="middle" x="123.5" y="-14.3" font-family="Times,serif" font-size="14.00">LegacyAppeal</text>
</g>
<!-- LegacyAppeal&#45;&gt;AppealSeries -->
<g id="edge1" class="edge">
<title>LegacyAppeal&#45;&gt;AppealSeries</title>
<path fill="none" stroke="black" d="M199.05,-18C285.75,-18 428.33,-18 517.58,-18"/>
<polygon fill="black" stroke="black" points="517.65,-21.5 527.65,-18 517.65,-14.5 517.65,-21.5"/>
<text text-anchor="middle" x="370.5" y="-21.8" font-family="Times,serif" font-size="14.00">appeal_series</text>
</g>
<!-- ETL::Appeal -->
<g id="node3" class="node">
<title>ETL::Appeal</title>
<ellipse fill="none" stroke="black" cx="1080.62" cy="-153" rx="66.89" ry="18"/>
<text text-anchor="middle" x="1080.62" y="-149.3" font-family="Times,serif" font-size="14.00">ETL::Appeal</text>
</g>
<!-- ETL::Appeal&#45;&gt;ETL::Appeal -->
<g id="edge2" class="edge">
<title>ETL::Appeal&#45;&gt;ETL::Appeal</title>
<path fill="none" stroke="black" d="M1040.8,-167.79C1027.84,-178.42 1041.11,-189 1080.62,-189 1108.4,-189 1123.21,-183.77 1125.05,-176.97"/>
<polygon fill="black" stroke="black" points="1128.06,-175.16 1120.44,-167.79 1121.8,-178.3 1128.06,-175.16"/>
<text text-anchor="middle" x="1080.62" y="-192.8" font-family="Times,serif" font-size="14.00">parent</text>
</g>
<!-- ETL::Build -->
<g id="node4" class="node">
<title>ETL::Build</title>
<ellipse fill="none" stroke="black" cx="599.29" cy="-321" rx="59.59" ry="18"/>
<text text-anchor="middle" x="599.29" y="-317.3" font-family="Times,serif" font-size="14.00">ETL::Build</text>
</g>
<!-- ETL::BuildTable -->
<g id="node5" class="node">
<title>ETL::BuildTable</title>
<ellipse fill="none" stroke="black" cx="123.5" cy="-321" rx="84.49" ry="18"/>
<text text-anchor="middle" x="123.5" y="-317.3" font-family="Times,serif" font-size="14.00">ETL::BuildTable</text>
</g>
<!-- ETL::BuildTable&#45;&gt;ETL::Build -->
<g id="edge3" class="edge">
<title>ETL::BuildTable&#45;&gt;ETL::Build</title>
<path fill="none" stroke="black" d="M208.11,-321C299.5,-321 444.23,-321 529.36,-321"/>
<polygon fill="black" stroke="black" points="529.44,-324.5 539.44,-321 529.44,-317.5 529.44,-324.5"/>
<text text-anchor="middle" x="370.5" y="-324.8" font-family="Times,serif" font-size="14.00">etl_build</text>
</g>
<!-- ETL::HearingRecord -->
<g id="node6" class="node">
<title>ETL::HearingRecord</title>
<ellipse fill="#66ccff" stroke="black" cx="599.29" cy="-267" rx="105.08" ry="18"/>
<text text-anchor="middle" x="599.29" y="-263.3" font-family="Times,serif" font-size="14.00">ETL::HearingRecord</text>
</g>
<!-- ETL::HearingRecord&#45;&gt;ETL::Appeal -->
<g id="edge4" class="edge">
<title>ETL::HearingRecord&#45;&gt;ETL::Appeal</title>
<path fill="none" stroke="black" d="M673.65,-254.21C746.86,-240.86 862.28,-218.25 960.58,-192 983.72,-185.82 1008.98,-177.74 1030.26,-170.54"/>
<polygon fill="black" stroke="black" points="1031.4,-173.85 1039.73,-167.3 1029.14,-167.22 1031.4,-173.85"/>
<text text-anchor="middle" x="841.58" y="-247.8" font-family="Times,serif" font-size="14.00">appeal</text>
</g>
<!-- ETL::Task -->
<g id="node7" class="node">
<title>ETL::Task</title>
<ellipse fill="none" stroke="black" cx="599.29" cy="-180" rx="55.79" ry="18"/>
<text text-anchor="middle" x="599.29" y="-176.3" font-family="Times,serif" font-size="14.00">ETL::Task</text>
</g>
<!-- ETL::Task&#45;&gt;ETL::Appeal -->
<g id="edge7" class="edge">
<title>ETL::Task&#45;&gt;ETL::Appeal</title>
<path fill="none" stroke="black" d="M654.81,-176.93C740.72,-172.09 907.78,-162.68 1004.83,-157.21"/>
<polygon fill="black" stroke="black" points="1005.08,-160.7 1014.87,-156.65 1004.69,-153.72 1005.08,-160.7"/>
<text text-anchor="middle" x="841.58" y="-176.8" font-family="Times,serif" font-size="14.00">appeal</text>
</g>
<!-- ETL::Task&#45;&gt;ETL::Task -->
<g id="edge6" class="edge">
<title>ETL::Task&#45;&gt;ETL::Task</title>
<path fill="none" stroke="black" d="M562.55,-193.67C547.86,-204.66 560.1,-216 599.29,-216 628.68,-216 642.92,-209.62 642,-201.79"/>
<polygon fill="black" stroke="black" points="644.77,-199.65 636.03,-193.67 639.13,-203.8 644.77,-199.65"/>
<text text-anchor="middle" x="599.29" y="-219.8" font-family="Times,serif" font-size="14.00">parent</text>
</g>
<!-- ETL::JudgeCaseReview -->
<g id="node8" class="node">
<title>ETL::JudgeCaseReview</title>
<ellipse fill="none" stroke="black" cx="123.5" cy="-180" rx="117.78" ry="18"/>
<text text-anchor="middle" x="123.5" y="-176.3" font-family="Times,serif" font-size="14.00">ETL::JudgeCaseReview</text>
</g>
<!-- ETL::JudgeCaseReview&#45;&gt;ETL::Task -->
<g id="edge5" class="edge">
<title>ETL::JudgeCaseReview&#45;&gt;ETL::Task</title>
<path fill="none" stroke="black" d="M241.31,-180C333.17,-180 457.78,-180 532.87,-180"/>
<polygon fill="black" stroke="black" points="533.13,-183.5 543.13,-180 533.13,-176.5 533.13,-183.5"/>
<text text-anchor="middle" x="370.5" y="-183.8" font-family="Times,serif" font-size="14.00">actual_task</text>
</g>
<!-- ETL::Hearing -->
<g id="node9" class="node">
<title>ETL::Hearing</title>
<ellipse fill="#66ccff" stroke="black" cx="599.29" cy="-126" rx="72.59" ry="18"/>
<text text-anchor="middle" x="599.29" y="-122.3" font-family="Times,serif" font-size="14.00">ETL::Hearing</text>
</g>
<!-- ETL::Hearing&#45;&gt;ETL::Appeal -->
<g id="edge8" class="edge">
<title>ETL::Hearing&#45;&gt;ETL::Appeal</title>
<path fill="none" stroke="black" d="M671.78,-128.17C744.52,-130.61 860.48,-135.16 960.58,-142 975.78,-143.04 992.06,-144.39 1007.54,-145.78"/>
<polygon fill="black" stroke="black" points="1007.3,-149.27 1017.58,-146.7 1007.94,-142.3 1007.3,-149.27"/>
<text text-anchor="middle" x="841.58" y="-145.8" font-family="Times,serif" font-size="14.00">appeal</text>
</g>
<!-- ETL::LegacyHearing -->
<g id="node10" class="node">
<title>ETL::LegacyHearing</title>
<ellipse fill="#66ccff" stroke="black" cx="599.29" cy="-72" rx="105.08" ry="18"/>
<text text-anchor="middle" x="599.29" y="-68.3" font-family="Times,serif" font-size="14.00">ETL::LegacyHearing</text>
</g>
<!-- ETL::LegacyHearing&#45;&gt;ETL::Appeal -->
<g id="edge9" class="edge">
<title>ETL::LegacyHearing&#45;&gt;ETL::Appeal</title>
<path fill="none" stroke="black" d="M700.29,-77.15C773.14,-82.34 873.85,-92.5 960.58,-112 985.09,-117.51 1011.57,-126.33 1033.33,-134.38"/>
<polygon fill="black" stroke="black" points="1032.38,-137.77 1042.97,-138.02 1034.84,-131.22 1032.38,-137.77"/>
<text text-anchor="middle" x="841.58" y="-115.8" font-family="Times,serif" font-size="14.00">appeal</text>
</g>
<!-- Task -->
<g id="node11" class="node">
<title>Task</title>
<polygon fill="#00ff00" stroke="#0000ff" points="75.5,-358 75.5,-404 171.5,-404 171.5,-358 75.5,-358"/>
<text text-anchor="middle" x="123.5" y="-388.8" font-family="Times,serif" font-size="14.00" fill="#0000ff">Task</text>
<polyline fill="none" stroke="#0000ff" points="75.5,-381 171.5,-381 "/>
<text text-anchor="middle" x="123.5" y="-365.8" font-family="Times,serif" font-size="14.00" fill="#0000ff">(112 tasks)</text>
</g>
<!-- Task&#45;&gt;Task -->
<g id="edge26" class="edge">
<title>Task&#45;&gt;Task</title>
<path fill="none" stroke="#6600cc" stroke-dasharray="1,5" d="M77.93,-404.05C74.2,-413.99 89.39,-422.5 123.5,-422.5 145.35,-422.5 159.44,-419.01 165.76,-413.88"/>
<polygon fill="#6600cc" stroke="#6600cc" points="169.2,-414.64 169.07,-404.05 162.57,-412.41 169.2,-414.64"/>
</g>
<!-- Claimant -->
<g id="node12" class="node">
<title>Claimant</title>
<polygon fill="#a9a9a9" stroke="#0000ff" points="40,-441 40,-547 207,-547 207,-441 40,-441"/>
<text text-anchor="middle" x="123.5" y="-531.8" font-family="Times,serif" font-size="14.00" fill="#0000ff">Claimant</text>
<polyline fill="none" stroke="#0000ff" points="40,-524 207,-524 "/>
<text text-anchor="middle" x="123.5" y="-508.8" font-family="Times,serif" font-size="14.00" fill="#0000ff">AttorneyClaimant,</text>
<text text-anchor="middle" x="123.5" y="-493.8" font-family="Times,serif" font-size="14.00" fill="#0000ff">BgsRelatedClaimant,</text>
<text text-anchor="middle" x="123.5" y="-478.8" font-family="Times,serif" font-size="14.00" fill="#0000ff">OtherClaimant,</text>
<text text-anchor="middle" x="123.5" y="-463.8" font-family="Times,serif" font-size="14.00" fill="#0000ff">DependentClaimant,</text>
<text text-anchor="middle" x="123.5" y="-448.8" font-family="Times,serif" font-size="14.00" fill="#0000ff">VeteranClaimant</text>
</g>
<!-- DecisionReview -->
<g id="node13" class="node">
<title>DecisionReview</title>
<polygon fill="#ffff00" stroke="#0000ff" points="518.79,-545.5 518.79,-636.5 679.79,-636.5 679.79,-545.5 518.79,-545.5"/>
<text text-anchor="middle" x="599.29" y="-621.3" font-family="Times,serif" font-size="14.00" fill="#0000ff">DecisionReview</text>
<polyline fill="none" stroke="#0000ff" points="518.79,-613.5 679.79,-613.5 "/>
<text text-anchor="middle" x="599.29" y="-598.3" font-family="Times,serif" font-size="14.00" fill="#0000ff">Appeal,</text>
<text text-anchor="middle" x="599.29" y="-583.3" font-family="Times,serif" font-size="14.00" fill="#0000ff">ClaimReview,</text>
<text text-anchor="middle" x="599.29" y="-568.3" font-family="Times,serif" font-size="14.00" fill="#0000ff">SupplementalClaim,</text>
<text text-anchor="middle" x="599.29" y="-553.3" font-family="Times,serif" font-size="14.00" fill="#0000ff">HigherLevelReview</text>
</g>
<!-- ClaimReview -->
<g id="node14" class="node">
<title>ClaimReview</title>
<polygon fill="#ffff00" stroke="#0000ff" points="518.79,-655.5 518.79,-716.5 679.79,-716.5 679.79,-655.5 518.79,-655.5"/>
<text text-anchor="middle" x="599.29" y="-701.3" font-family="Times,serif" font-size="14.00" fill="#0000ff">ClaimReview</text>
<polyline fill="none" stroke="#0000ff" points="518.79,-693.5 679.79,-693.5 "/>
<text text-anchor="middle" x="599.29" y="-678.3" font-family="Times,serif" font-size="14.00" fill="#0000ff">SupplementalClaim,</text>
<text text-anchor="middle" x="599.29" y="-663.3" font-family="Times,serif" font-size="14.00" fill="#0000ff">HigherLevelReview</text>
</g>
<!-- RampReview -->
<g id="node15" class="node">
<title>RampReview</title>
<polygon fill="#cc99ff" stroke="#0000ff" points="538.79,-735.5 538.79,-796.5 659.79,-796.5 659.79,-735.5 538.79,-735.5"/>
<text text-anchor="middle" x="599.29" y="-781.3" font-family="Times,serif" font-size="14.00" fill="#0000ff">RampReview</text>
<polyline fill="none" stroke="#0000ff" points="538.79,-773.5 659.79,-773.5 "/>
<text text-anchor="middle" x="599.29" y="-758.3" font-family="Times,serif" font-size="14.00" fill="#0000ff">RampElection,</text>
<text text-anchor="middle" x="599.29" y="-743.3" font-family="Times,serif" font-size="14.00" fill="#0000ff">RampRefiling</text>
</g>
<!-- RequestIssue -->
<g id="node16" class="node">
<title>RequestIssue</title>
<polygon fill="#ffa500" stroke="#0000ff" points="31,-802.5 31,-863.5 216,-863.5 216,-802.5 31,-802.5"/>
<text text-anchor="middle" x="123.5" y="-848.3" font-family="Times,serif" font-size="14.00" fill="#0000ff">RequestIssue</text>
<polyline fill="none" stroke="#0000ff" points="31,-840.5 216,-840.5 "/>
<text text-anchor="middle" x="123.5" y="-825.3" font-family="Times,serif" font-size="14.00" fill="#0000ff">RatingRequestIssue,</text>
<text text-anchor="middle" x="123.5" y="-810.3" font-family="Times,serif" font-size="14.00" fill="#0000ff">NonratingRequestIssue</text>
</g>
<!-- appeal_type -->
<g id="node17" class="node">
<title>appeal_type</title>
<polygon fill="#ffff00" stroke="#0000ff" points="65.5,-882.5 65.5,-943.5 181.5,-943.5 181.5,-882.5 65.5,-882.5"/>
<text text-anchor="middle" x="123.5" y="-928.3" font-family="Times,serif" font-size="14.00" fill="#0000ff">appeal_type</text>
<polyline fill="none" stroke="#0000ff" points="65.5,-920.5 181.5,-920.5 "/>
<text text-anchor="middle" x="123.5" y="-905.3" font-family="Times,serif" font-size="14.00" fill="#0000ff">Appeal,</text>
<text text-anchor="middle" x="123.5" y="-890.3" font-family="Times,serif" font-size="14.00" fill="#0000ff">LegacyAppeal</text>
</g>
<!-- hearing_type -->
<g id="node18" class="node">
<title>hearing_type</title>
<polygon fill="none" stroke="#0000ff" stroke-dasharray="1,5" points="61,-962.5 61,-1023.5 186,-1023.5 186,-962.5 61,-962.5"/>
<text text-anchor="middle" x="123.5" y="-1008.3" font-family="Times,serif" font-size="14.00" fill="#0000ff">hearing_type</text>
<polyline fill="none" stroke="#0000ff" stroke-dasharray="1,5" points="61,-1000.5 186,-1000.5 "/>
<text text-anchor="middle" x="123.5" y="-985.3" font-family="Times,serif" font-size="14.00" fill="#0000ff">Hearing,</text>
<text text-anchor="middle" x="123.5" y="-970.3" font-family="Times,serif" font-size="14.00" fill="#0000ff">LegacyHearing</text>
</g>
<!-- decision_review_type -->
<g id="node19" class="node">
<title>decision_review_type</title>
<polygon fill="#ffff00" stroke="#0000ff" points="515.29,-1123 515.29,-1199 683.29,-1199 683.29,-1123 515.29,-1123"/>
<text text-anchor="middle" x="599.29" y="-1183.8" font-family="Times,serif" font-size="14.00" fill="#0000ff">decision_review_type</text>
<polyline fill="none" stroke="#0000ff" points="515.29,-1176 683.29,-1176 "/>
<text text-anchor="middle" x="599.29" y="-1160.8" font-family="Times,serif" font-size="14.00" fill="#0000ff">Appeal,</text>
<text text-anchor="middle" x="599.29" y="-1145.8" font-family="Times,serif" font-size="14.00" fill="#0000ff">SupplementalClaim,</text>
<text text-anchor="middle" x="599.29" y="-1130.8" font-family="Times,serif" font-size="14.00" fill="#0000ff">HigherLevelReview</text>
</g>
<!-- decision_review_remanded_type -->
<g id="node20" class="node">
<title>decision_review_remanded_type</title>
<polygon fill="#ffff00" stroke="#0000ff" points="0,-1218 0,-1294 247,-1294 247,-1218 0,-1218"/>
<text text-anchor="middle" x="123.5" y="-1278.8" font-family="Times,serif" font-size="14.00" fill="#0000ff">decision_review_remanded_type</text>
<polyline fill="none" stroke="#0000ff" points="0,-1271 247,-1271 "/>
<text text-anchor="middle" x="123.5" y="-1255.8" font-family="Times,serif" font-size="14.00" fill="#0000ff">Appeal,</text>
<text text-anchor="middle" x="123.5" y="-1240.8" font-family="Times,serif" font-size="14.00" fill="#0000ff">SupplementalClaim,</text>
<text text-anchor="middle" x="123.5" y="-1225.8" font-family="Times,serif" font-size="14.00" fill="#0000ff">HigherLevelReview</text>
</g>
<!-- decision_review_remanded_type&#45;&gt;decision_review_type -->
<g id="edge22" class="edge">
<title>decision_review_remanded_type&#45;&gt;decision_review_type</title>
<path fill="none" stroke="#6600cc" stroke-dasharray="1,5" d="M247.13,-1231.41C327.52,-1215.29 431,-1194.54 504.76,-1179.75"/>
<polygon fill="#6600cc" stroke="#6600cc" points="505.85,-1183.11 514.97,-1177.71 504.47,-1176.24 505.85,-1183.11"/>
<text text-anchor="middle" x="370.5" y="-1229.8" font-family="Times,serif" font-size="14.00" fill="#6600cc">a.k.a.</text>
</g>
<!-- review_type -->
<g id="node21" class="node">
<title>review_type</title>
<polygon fill="#ffff00" stroke="#0000ff" points="43,-1123 43,-1199 204,-1199 204,-1123 43,-1123"/>
<text text-anchor="middle" x="123.5" y="-1183.8" font-family="Times,serif" font-size="14.00" fill="#0000ff">review_type</text>
<polyline fill="none" stroke="#0000ff" points="43,-1176 204,-1176 "/>
<text text-anchor="middle" x="123.5" y="-1160.8" font-family="Times,serif" font-size="14.00" fill="#0000ff">Appeal,</text>
<text text-anchor="middle" x="123.5" y="-1145.8" font-family="Times,serif" font-size="14.00" fill="#0000ff">SupplementalClaim,</text>
<text text-anchor="middle" x="123.5" y="-1130.8" font-family="Times,serif" font-size="14.00" fill="#0000ff">HigherLevelReview</text>
</g>
<!-- review_type&#45;&gt;decision_review_type -->
<g id="edge23" class="edge">
<title>review_type&#45;&gt;decision_review_type</title>
<path fill="none" stroke="#6600cc" stroke-dasharray="1,5" d="M204.07,-1161C287.1,-1161 417.2,-1161 505.01,-1161"/>
<polygon fill="#6600cc" stroke="#6600cc" points="505.24,-1164.5 515.24,-1161 505.24,-1157.5 505.24,-1164.5"/>
<text text-anchor="middle" x="370.5" y="-1164.8" font-family="Times,serif" font-size="14.00" fill="#6600cc">a.k.a.</text>
</g>
<!-- original_decision_review_type -->
<g id="node22" class="node">
<title>original_decision_review_type</title>
<polygon fill="#ffff00" stroke="#0000ff" points="8.5,-1313.5 8.5,-1374.5 238.5,-1374.5 238.5,-1313.5 8.5,-1313.5"/>
<text text-anchor="middle" x="123.5" y="-1359.3" font-family="Times,serif" font-size="14.00" fill="#0000ff">original_decision_review_type</text>
<polyline fill="none" stroke="#0000ff" points="8.5,-1351.5 238.5,-1351.5 "/>
<text text-anchor="middle" x="123.5" y="-1336.3" font-family="Times,serif" font-size="14.00" fill="#0000ff">SupplementalClaim,</text>
<text text-anchor="middle" x="123.5" y="-1321.3" font-family="Times,serif" font-size="14.00" fill="#0000ff">HigherLevelReview</text>
</g>
<!-- source_type -->
<g id="node23" class="node">
<title>source_type</title>
<polygon fill="none" stroke="#0000ff" stroke-dasharray="1,5" points="43,-1394 43,-1500 204,-1500 204,-1394 43,-1394"/>
<text text-anchor="middle" x="123.5" y="-1484.8" font-family="Times,serif" font-size="14.00" fill="#0000ff">source_type</text>
<polyline fill="none" stroke="#0000ff" stroke-dasharray="1,5" points="43,-1477 204,-1477 "/>
<text text-anchor="middle" x="123.5" y="-1461.8" font-family="Times,serif" font-size="14.00" fill="#0000ff">DecisionDocument,</text>
<text text-anchor="middle" x="123.5" y="-1446.8" font-family="Times,serif" font-size="14.00" fill="#0000ff">SupplementalClaim,</text>
<text text-anchor="middle" x="123.5" y="-1431.8" font-family="Times,serif" font-size="14.00" fill="#0000ff">HigherLevelReview,</text>
<text text-anchor="middle" x="123.5" y="-1416.8" font-family="Times,serif" font-size="14.00" fill="#0000ff">RampRefiling,</text>
<text text-anchor="middle" x="123.5" y="-1401.8" font-family="Times,serif" font-size="14.00" fill="#0000ff">RampElection</text>
</g>
<!-- assigned_to_type -->
<g id="node24" class="node">
<title>assigned_to_type</title>
<polygon fill="none" stroke="#0000ff" stroke-dasharray="1,5" points="54,-1519.5 54,-1580.5 193,-1580.5 193,-1519.5 54,-1519.5"/>
<text text-anchor="middle" x="123.5" y="-1565.3" font-family="Times,serif" font-size="14.00" fill="#0000ff">assigned_to_type</text>
<polyline fill="none" stroke="#0000ff" stroke-dasharray="1,5" points="54,-1557.5 193,-1557.5 "/>
<text text-anchor="middle" x="123.5" y="-1542.3" font-family="Times,serif" font-size="14.00" fill="#0000ff">User,</text>
<text text-anchor="middle" x="123.5" y="-1527.3" font-family="Times,serif" font-size="14.00" fill="#0000ff">Organization</text>
</g>
<!-- record_type -->
<g id="node25" class="node">
<title>record_type</title>
<polygon fill="#ffff00" stroke="#0000ff" points="65.5,-1042.5 65.5,-1103.5 181.5,-1103.5 181.5,-1042.5 65.5,-1042.5"/>
<text text-anchor="middle" x="123.5" y="-1088.3" font-family="Times,serif" font-size="14.00" fill="#0000ff">record_type</text>
<polyline fill="none" stroke="#0000ff" points="65.5,-1080.5 181.5,-1080.5 "/>
<text text-anchor="middle" x="123.5" y="-1065.3" font-family="Times,serif" font-size="14.00" fill="#0000ff">Appeal,</text>
<text text-anchor="middle" x="123.5" y="-1050.3" font-family="Times,serif" font-size="14.00" fill="#0000ff">LegacyAppeal</text>
</g>
<!-- record_type&#45;&gt;decision_review_type -->
<g id="edge24" class="edge">
<title>record_type&#45;&gt;decision_review_type</title>
<path fill="none" stroke="#6600cc" d="M181.65,-1083.61C261.88,-1098.52 408.82,-1125.81 505.02,-1143.68"/>
<polygon fill="#6600cc" stroke="#6600cc" points="504.57,-1147.15 515.04,-1145.54 505.84,-1140.27 504.57,-1147.15"/>
<text text-anchor="middle" x="370.5" y="-1141.8" font-family="Times,serif" font-size="14.00" fill="#6600cc">(subset of)</text>
</g>
<!-- Message -->
<g id="node26" class="node">
<title>Message</title>
<polygon fill="#f2f2f2" stroke="#aaaaaa" points="163.5,-1635 83.5,-1635 83.5,-1631 79.5,-1631 79.5,-1627 83.5,-1627 83.5,-1607 79.5,-1607 79.5,-1603 83.5,-1603 83.5,-1599 163.5,-1599 163.5,-1635"/>
<polyline fill="none" stroke="#aaaaaa" points="83.5,-1631 87.5,-1631 87.5,-1627 83.5,-1627 "/>
<polyline fill="none" stroke="#aaaaaa" points="83.5,-1607 87.5,-1607 87.5,-1603 83.5,-1603 "/>
<text text-anchor="middle" x="123.5" y="-1613.3" font-family="Times,serif" font-size="14.00">Message</text>
</g>
<!-- JobNote -->
<g id="node27" class="node">
<title>JobNote</title>
<ellipse fill="none" stroke="black" cx="599.29" cy="-1617" rx="48.19" ry="18"/>
<text text-anchor="middle" x="599.29" y="-1613.3" font-family="Times,serif" font-size="14.00">JobNote</text>
</g>
<!-- Message&#45;&gt;JobNote -->
<g id="edge10" class="edge">
<title>Message&#45;&gt;JobNote</title>
<path fill="none" stroke="#0000ff" d="M163.68,-1617C247.21,-1617 443.15,-1617 540.83,-1617"/>
<polygon fill="#0000ff" stroke="#0000ff" points="541.11,-1620.5 551.11,-1617 541.11,-1613.5 541.11,-1620.5"/>
<text text-anchor="middle" x="370.5" y="-1620.8" font-family="Times,serif" font-size="14.00" fill="#0000ff">Message#detail</text>
</g>
<!-- SupplementalClaim -->
<g id="node28" class="node">
<title>SupplementalClaim</title>
<ellipse fill="#ffff00" stroke="black" cx="1080.62" cy="-1678" rx="102.08" ry="18"/>
<text text-anchor="middle" x="1080.62" y="-1674.3" font-family="Times,serif" font-size="14.00">SupplementalClaim</text>
</g>
<!-- Message&#45;&gt;SupplementalClaim -->
<g id="edge11" class="edge">
<title>Message&#45;&gt;SupplementalClaim</title>
<path fill="none" stroke="#0000ff" d="M163.51,-1630.51C230.22,-1652.81 370.95,-1696.44 494,-1712 672.74,-1734.61 884.11,-1709.73 997.65,-1692.2"/>
<polygon fill="#0000ff" stroke="#0000ff" points="998.33,-1695.64 1007.66,-1690.64 997.24,-1688.73 998.33,-1695.64"/>
<text text-anchor="middle" x="599.29" y="-1725.8" font-family="Times,serif" font-size="14.00" fill="#0000ff">Message#detail</text>
</g>
<!-- HigherLevelReview -->
<g id="node29" class="node">
<title>HigherLevelReview</title>
<ellipse fill="#ffff00" stroke="black" cx="1080.62" cy="-1566" rx="101.28" ry="18"/>
<text text-anchor="middle" x="1080.62" y="-1562.3" font-family="Times,serif" font-size="14.00">HigherLevelReview</text>
</g>
<!-- Message&#45;&gt;HigherLevelReview -->
<g id="edge12" class="edge">
<title>Message&#45;&gt;HigherLevelReview</title>
<path fill="none" stroke="#0000ff" d="M163.76,-1611.26C231.14,-1601.69 373.2,-1582.78 494,-1575 659.4,-1564.35 851.59,-1563.62 969.4,-1564.49"/>
<polygon fill="#0000ff" stroke="#0000ff" points="969.48,-1567.99 979.51,-1564.57 969.54,-1560.99 969.48,-1567.99"/>
<text text-anchor="middle" x="599.29" y="-1578.8" font-family="Times,serif" font-size="14.00" fill="#0000ff">Message#detail</text>
</g>
<!-- JobNote&#45;&gt;SupplementalClaim -->
<g id="edge20" class="edge">
<title>JobNote&#45;&gt;SupplementalClaim</title>
<path fill="none" stroke="#0000ff" d="M645.87,-1621.69C714.31,-1628.87 847.67,-1643.41 960.58,-1659 971.89,-1660.56 983.78,-1662.32 995.49,-1664.12"/>
<polygon fill="#0000ff" stroke="#0000ff" points="995.3,-1667.63 1005.72,-1665.71 996.37,-1660.71 995.3,-1667.63"/>
<text text-anchor="middle" x="841.58" y="-1662.8" font-family="Times,serif" font-size="14.00" fill="#0000ff">JobNote#job</text>
</g>
<!-- JobNote&#45;&gt;HigherLevelReview -->
<g id="edge21" class="edge">
<title>JobNote&#45;&gt;HigherLevelReview</title>
<path fill="none" stroke="#0000ff" d="M644.99,-1611.28C668.13,-1608.38 696.86,-1604.87 722.58,-1602 723.39,-1601.91 876.61,-1586.46 982.04,-1575.84"/>
<polygon fill="#0000ff" stroke="#0000ff" points="982.49,-1579.31 992.09,-1574.82 981.78,-1572.34 982.49,-1579.31"/>
<text text-anchor="middle" x="841.58" y="-1605.8" font-family="Times,serif" font-size="14.00" fill="#0000ff">JobNote#job</text>
</g>
<!-- AppealIntake -->
<g id="node30" class="node">
<title>AppealIntake</title>
<polygon fill="#ffffcc" stroke="black" points="166.5,-1809 68.5,-1809 68.5,-1771 166.5,-1771 178.5,-1790 166.5,-1809"/>
<text text-anchor="middle" x="123.5" y="-1786.3" font-family="Times,serif" font-size="14.00">AppealIntake</text>
</g>
<!-- Appeal -->
<g id="node31" class="node">
<title>Appeal</title>
<ellipse fill="#ffff00" stroke="black" cx="599.29" cy="-1790" rx="42.49" ry="18"/>
<text text-anchor="middle" x="599.29" y="-1786.3" font-family="Times,serif" font-size="14.00">Appeal</text>
</g>
<!-- AppealIntake&#45;&gt;Appeal -->
<g id="edge13" class="edge">
<title>AppealIntake&#45;&gt;Appeal</title>
<path fill="none" stroke="#0000ff" d="M178.85,-1790C270.97,-1790 456.54,-1790 546.73,-1790"/>
<polygon fill="#0000ff" stroke="#0000ff" points="546.98,-1793.5 556.98,-1790 546.98,-1786.5 546.98,-1793.5"/>
<text text-anchor="middle" x="370.5" y="-1793.8" font-family="Times,serif" font-size="14.00" fill="#0000ff">AppealIntake#detail</text>
</g>
<!-- RampElectionIntake -->
<g id="node32" class="node">
<title>RampElectionIntake</title>
<polygon fill="#ffffcc" stroke="black" points="192,-1877 43,-1877 43,-1839 192,-1839 204,-1858 192,-1877"/>
<text text-anchor="middle" x="123.5" y="-1854.3" font-family="Times,serif" font-size="14.00">RampElectionIntake</text>
</g>
<!-- RampElection -->
<g id="node33" class="node">
<title>RampElection</title>
<ellipse fill="#cc99ff" stroke="black" cx="599.29" cy="-1858" rx="75.29" ry="18"/>
<text text-anchor="middle" x="599.29" y="-1854.3" font-family="Times,serif" font-size="14.00">RampElection</text>
</g>
<!-- RampElectionIntake&#45;&gt;RampElection -->
<g id="edge14" class="edge">
<title>RampElectionIntake&#45;&gt;RampElection</title>
<path fill="none" stroke="#0000ff" d="M204.07,-1858C289.77,-1858 425.59,-1858 513.33,-1858"/>
<polygon fill="#0000ff" stroke="#0000ff" points="513.51,-1861.5 523.51,-1858 513.51,-1854.5 513.51,-1861.5"/>
<text text-anchor="middle" x="370.5" y="-1861.8" font-family="Times,serif" font-size="14.00" fill="#0000ff">RampElectionIntake#detail</text>
</g>
<!-- RampRefilingIntake -->
<g id="node34" class="node">
<title>RampRefilingIntake</title>
<polygon fill="#ffffcc" stroke="black" points="190.5,-1945 44.5,-1945 44.5,-1907 190.5,-1907 202.5,-1926 190.5,-1945"/>
<text text-anchor="middle" x="123.5" y="-1922.3" font-family="Times,serif" font-size="14.00">RampRefilingIntake</text>
</g>
<!-- RampRefiling -->
<g id="node35" class="node">
<title>RampRefiling</title>
<ellipse fill="#cc99ff" stroke="black" cx="599.29" cy="-1926" rx="73.39" ry="18"/>
<text text-anchor="middle" x="599.29" y="-1922.3" font-family="Times,serif" font-size="14.00">RampRefiling</text>
</g>
<!-- RampRefilingIntake&#45;&gt;RampRefiling -->
<g id="edge15" class="edge">
<title>RampRefilingIntake&#45;&gt;RampRefiling</title>
<path fill="none" stroke="#0000ff" d="M202.74,-1926C289.08,-1926 427.45,-1926 515.55,-1926"/>
<polygon fill="#0000ff" stroke="#0000ff" points="515.77,-1929.5 525.77,-1926 515.77,-1922.5 515.77,-1929.5"/>
<text text-anchor="middle" x="370.5" y="-1929.8" font-family="Times,serif" font-size="14.00" fill="#0000ff">RampRefilingIntake#detail</text>
</g>
<!-- HigherLevelReviewIntake -->
<g id="node36" class="node">
<title>HigherLevelReviewIntake</title>
<polygon fill="#ffffcc" stroke="black" points="687.79,-1524 498.79,-1524 498.79,-1486 687.79,-1486 699.79,-1505 687.79,-1524"/>
<text text-anchor="middle" x="599.29" y="-1501.3" font-family="Times,serif" font-size="14.00">HigherLevelReviewIntake</text>
</g>
<!-- HigherLevelReviewIntake&#45;&gt;HigherLevelReview -->
<g id="edge16" class="edge">
<title>HigherLevelReviewIntake&#45;&gt;HigherLevelReview</title>
<path fill="none" stroke="#0000ff" d="M699.81,-1509.81C772.44,-1514.29 873.07,-1522.54 960.58,-1537 978.39,-1539.94 997.47,-1544.12 1015.02,-1548.39"/>
<polygon fill="#0000ff" stroke="#0000ff" points="1014.61,-1551.9 1025.16,-1550.91 1016.3,-1545.1 1014.61,-1551.9"/>
<text text-anchor="middle" x="841.58" y="-1540.8" font-family="Times,serif" font-size="14.00" fill="#0000ff">HigherLevelReviewIntake#detail</text>
</g>
<!-- SupplementalClaimIntake -->
<g id="node37" class="node">
<title>SupplementalClaimIntake</title>
<polygon fill="#ffffcc" stroke="black" points="688.29,-1697 498.29,-1697 498.29,-1659 688.29,-1659 700.29,-1678 688.29,-1697"/>
<text text-anchor="middle" x="599.29" y="-1674.3" font-family="Times,serif" font-size="14.00">SupplementalClaimIntake</text>
</g>
<!-- SupplementalClaimIntake&#45;&gt;SupplementalClaim -->
<g id="edge17" class="edge">
<title>SupplementalClaimIntake&#45;&gt;SupplementalClaim</title>
<path fill="none" stroke="#0000ff" d="M700.48,-1678C778.65,-1678 887.18,-1678 968.1,-1678"/>
<polygon fill="#0000ff" stroke="#0000ff" points="968.32,-1681.5 978.32,-1678 968.32,-1674.5 968.32,-1681.5"/>
<text text-anchor="middle" x="841.58" y="-1681.8" font-family="Times,serif" font-size="14.00" fill="#0000ff">SupplementalClaimIntake#detail</text>
</g>
<!-- DecisionReviewIntake -->
<g id="node38" class="node">
<title>DecisionReviewIntake</title>
<polygon fill="#ffffcc" stroke="black" points="198.5,-610 36.5,-610 36.5,-572 198.5,-572 210.5,-591 198.5,-610"/>
<text text-anchor="middle" x="123.5" y="-587.3" font-family="Times,serif" font-size="14.00">DecisionReviewIntake</text>
</g>
<!-- DecisionReviewIntake&#45;&gt;DecisionReview -->
<g id="edge18" class="edge">
<title>DecisionReviewIntake&#45;&gt;DecisionReview</title>
<path fill="none" stroke="#0000ff" d="M210.57,-591C294.92,-591 422.93,-591 508.52,-591"/>
<polygon fill="#0000ff" stroke="#0000ff" points="508.74,-594.5 518.74,-591 508.74,-587.5 508.74,-594.5"/>
<text text-anchor="middle" x="370.5" y="-594.8" font-family="Times,serif" font-size="14.00" fill="#0000ff">DecisionReviewIntake#detail</text>
</g>
<!-- ClaimReviewIntake -->
<g id="node39" class="node">
<title>ClaimReviewIntake</title>
<polygon fill="#ffffcc" stroke="black" points="189,-705 46,-705 46,-667 189,-667 201,-686 189,-705"/>
<text text-anchor="middle" x="123.5" y="-682.3" font-family="Times,serif" font-size="14.00">ClaimReviewIntake</text>
</g>
<!-- ClaimReviewIntake&#45;&gt;ClaimReview -->
<g id="edge19" class="edge">
<title>ClaimReviewIntake&#45;&gt;ClaimReview</title>
<path fill="none" stroke="#0000ff" d="M201.15,-686C285.13,-686 419.68,-686 508.52,-686"/>
<polygon fill="#0000ff" stroke="#0000ff" points="508.59,-689.5 518.59,-686 508.59,-682.5 508.59,-689.5"/>
<text text-anchor="middle" x="370.5" y="-689.8" font-family="Times,serif" font-size="14.00" fill="#0000ff">ClaimReviewIntake#detail</text>
</g>
<!-- RampIssue -->
<g id="node40" class="node">
<title>RampIssue</title>
<ellipse fill="#cc99ff" stroke="black" cx="123.5" cy="-766" rx="61.99" ry="18"/>
<text text-anchor="middle" x="123.5" y="-762.3" font-family="Times,serif" font-size="14.00">RampIssue</text>
</g>
<!-- RampIssue&#45;&gt;RampReview -->
<g id="edge25" class="edge">
<title>RampIssue&#45;&gt;RampReview</title>
<path fill="none" stroke="#6600cc" d="M185.47,-766C273.52,-766 435.85,-766 528.55,-766"/>
<polygon fill="#6600cc" stroke="#6600cc" points="528.67,-769.5 538.67,-766 528.67,-762.5 528.67,-769.5"/>
<text text-anchor="middle" x="370.5" y="-769.8" font-family="Times,serif" font-size="14.00" fill="#6600cc">(ramp_)review</text>
</g>
</g>
</svg>
