<?xml version="1.0" encoding="UTF-8" standalone="no"?>
<svg
   xmlns:dc="http://purl.org/dc/elements/1.1/"
   xmlns:cc="http://creativecommons.org/ns#"
   xmlns:rdf="http://www.w3.org/1999/02/22-rdf-syntax-ns#"
   xmlns:svg="http://www.w3.org/2000/svg"
   xmlns="http://www.w3.org/2000/svg"
   xmlns:sodipodi="http://sodipodi.sourceforge.net/DTD/sodipodi-0.dtd"
   xmlns:inkscape="http://www.inkscape.org/namespaces/inkscape"
   width="20"
   height="20"
   viewBox="135 208 20 20"
   version="1.1"
   id="svg3393"
   inkscape:version="0.91 r13725"
   sodipodi:docname="cf-logo-pill.svg">
  <metadata
     id="metadata3410">
    <rdf:RDF>
      <cc:Work
         rdf:about="">
        <dc:format>image/svg+xml</dc:format>
        <dc:type
           rdf:resource="http://purl.org/dc/dcmitype/StillImage" />
        <dc:title></dc:title>
      </cc:Work>
    </rdf:RDF>
  </metadata>
  <sodipodi:namedview
     pagecolor="#ffffff"
     bordercolor="#666666"
     borderopacity="1"
     objecttolerance="10"
     gridtolerance="10"
     guidetolerance="10"
     inkscape:pageopacity="0"
     inkscape:pageshadow="2"
     inkscape:window-width="1143"
     inkscape:window-height="602"
     id="namedview3408"
     showgrid="false"
     inkscape:zoom="12.041277"
     inkscape:cx="-1.2277213"
     inkscape:cy="6.7559535"
     inkscape:window-x="20"
     inkscape:window-y="42"
     inkscape:window-maximized="0"
     inkscape:current-layer="svg3393"
     fit-margin-top="0"
     fit-margin-left="0"
     fit-margin-right="0"
     fit-margin-bottom="0" />
  <!-- Generator: Sketch 42 (36781) - http://www.bohemiancoding.com/sketch -->
  <desc
     id="desc3395">Created with Sketch.</desc>
  <defs
     id="defs3397" />
  <g
     id="g4399"
     transform="matrix(0.90550571,0,0,0.90550571,-6.5596411,-53.250062)"
     inkscape:export-xdpi="90"
     inkscape:export-ydpi="90">
    <path
       id="Fill-14-2-1"
       d="m 167.37243,304.25615 c 0.28009,0 0.554,0.0495 0.8148,0.14762 l 4.90267,1.83824 c 0.11034,0.042 0.22299,0.063 0.3341,0.063 l 0,0 c 0.29243,0 0.56943,-0.14613 0.74304,-0.39118 0.0988,-0.14013 0.24228,-0.43089 0.0926,-0.80783 l -1.89271,-4.76084 c -0.20293,-0.51033 -0.20293,-1.07237 0,-1.5827 l 1.89039,-4.75634 c 0.14969,-0.37619 0.006,-0.66695 -0.0926,-0.80709 -0.23842,-0.33797 -0.67359,-0.48035 -1.07713,-0.32897 l -4.90036,1.83823 c -0.52236,0.19559 -1.10723,0.19559 -1.62959,0 l -4.89419,-1.83599 c -0.40354,-0.15137 -0.83871,-0.009 -1.07713,0.32898 -0.0988,0.14014 -0.24228,0.4309 -0.0926,0.80784 l 1.88962,4.75334 c 0.20292,0.51033 0.20292,1.07237 0,1.5827 l -1.89194,4.75859 c -0.14969,0.37619 -0.006,0.6677 0.0926,0.80783 0.2392,0.33798 0.67437,0.48036 1.07714,0.32823 l 4.8965,-1.83599 c 0.26079,-0.0982 0.53471,-0.14762 0.81479,-0.14762 m 6.05157,3.36698 0,0 c -0.27932,0 -0.55554,-0.051 -0.82329,-0.15138 l -4.90267,-1.83824 c -0.20832,-0.0787 -0.44289,-0.0787 -0.65122,0 l -4.89649,1.83599 c -0.26774,0.10042 -0.54474,0.15138 -0.82329,0.15138 -0.73995,0 -1.43592,-0.36045 -1.86184,-0.96446 -0.42514,-0.60175 -0.51233,-1.34065 -0.23996,-2.02708 l 1.89193,-4.75934 c 0.0818,-0.20383 0.0818,-0.42865 0,-0.63323 l -1.88962,-4.75334 c -0.27314,-0.68644 -0.18595,-1.42533 0.23919,-2.02783 0.42669,-0.60326 1.12266,-0.96371 1.86262,-0.96371 0.27854,0 0.55554,0.051 0.82328,0.15137 l 4.89418,1.83524 c 0.20833,0.0779 0.4429,0.0779 0.652,0 l 4.89958,-1.83823 c 0.26774,-0.0997 0.54474,-0.15063 0.82328,-0.15063 0.73996,0 1.43593,0.36045 1.86262,0.96371 0.42514,0.60175 0.51233,1.3414 0.23919,2.02783 l -1.89116,4.75559 c -0.081,0.20458 -0.081,0.4294 0,0.63323 l 1.89347,4.76084 c 0.27315,0.68718 0.18519,1.42607 -0.23996,2.02858 -0.42592,0.60325 -1.12189,0.96371 -1.86184,0.96371"
       inkscape:connector-curvature="0"
       style="fill:#323a45;fill-opacity:1;fill-rule:evenodd;stroke-width:1" />
    <path
       style="mix-blend-mode:multiply;fill:#323a45;fill-opacity:1;fill-rule:evenodd;stroke-width:1"
       id="Fill-12-7-4"
       d="m 167.37569,290.38323 c -0.36882,0 -0.67822,0.19559 -0.82714,0.52307 l -2.12495,4.65892 c -0.22762,0.50059 -0.63656,0.89776 -1.15199,1.11958 l -4.80236,2.0653 c -0.33718,0.14538 -0.53857,0.44513 -0.53857,0.80334 0,0.3582 0.20139,0.65871 0.53857,0.80334 l 4.79928,2.06455 c 0.51465,0.22107 0.92359,0.61899 1.15198,1.11883 l 2.12804,4.66716 c 0.14892,0.32673 0.45832,0.52233 0.82714,0.52233 0.36882,0 0.67823,-0.1956 0.82714,-0.52233 l 2.12804,-4.66716 c 0.22762,-0.49984 0.63733,-0.89776 1.15198,-1.11883 l 4.80005,-2.06455 c 0.33719,-0.14463 0.53857,-0.44514 0.53857,-0.80334 0,-0.35821 -0.20138,-0.65796 -0.53857,-0.80334 l -4.80313,-2.06605 c -0.51542,-0.22182 -0.92437,-0.61899 -1.15276,-1.11883 l -2.12418,-4.65892 c -0.14891,-0.32748 -0.45832,-0.52307 -0.82714,-0.52307 m 0,19.66458 c -0.90816,0 -1.70058,-0.50059 -2.06785,-1.30692 l -2.12804,-4.66717 c -0.0918,-0.20008 -0.2554,-0.35895 -0.46141,-0.44738 l -4.79851,-2.06455 c -0.83023,-0.35671 -1.34642,-1.12633 -1.34642,-2.00835 0,-0.88128 0.51619,-1.65164 1.34642,-2.00835 l 4.80236,-2.06605 c 0.20602,-0.0884 0.3696,-0.2473 0.46064,-0.44738 l 2.12496,-4.65892 c 0.36727,-0.80634 1.15969,-1.30768 2.06785,-1.30768 0.90816,0 1.70058,0.50134 2.06786,1.30768 l 2.12495,4.65892 c 0.0911,0.20008 0.25462,0.35895 0.46064,0.44738 l 4.80313,2.06605 c 0.83023,0.35671 1.34565,1.12707 1.34565,2.00835 0,0.88202 -0.51542,1.65164 -1.34565,2.00835 l -4.79927,2.06455 c -0.20679,0.0884 -0.37037,0.24805 -0.46141,0.44738 l -2.12804,4.66717 c -0.36728,0.80633 -1.1597,1.30692 -2.06786,1.30692"
       inkscape:connector-curvature="0" />
  </g>
</svg>
