<?xml version="1.0" encoding="UTF-8" standalone="no"?>
<svg
   xmlns:dc="http://purl.org/dc/elements/1.1/"
   xmlns:cc="http://creativecommons.org/ns#"
   xmlns:rdf="http://www.w3.org/1999/02/22-rdf-syntax-ns#"
   xmlns:svg="http://www.w3.org/2000/svg"
   xmlns="http://www.w3.org/2000/svg"
   id="svg3393"
   version="1.1"
   viewBox="135 208 20 20"
   height="20"
   width="20">
  <metadata
     id="metadata3410">
    <rdf:RDF>
      <cc:Work
         rdf:about="">
        <dc:format>image/svg+xml</dc:format>
        <dc:type
           rdf:resource="http://purl.org/dc/dcmitype/StillImage" />
        <dc:title></dc:title>
      </cc:Work>
    </rdf:RDF>
  </metadata>
  <!-- Generator: Sketch 42 (36781) - http://www.bohemiancoding.com/sketch -->
  <desc
     id="desc3395">Created with Sketch.</desc>
  <defs
     id="defs3397" />
  <path
     style="mix-blend-mode:multiply;fill:#323a45;fill-opacity:1;fill-rule:evenodd;stroke-width:1"
     id="Fill-12-7-4"
     d="m 145,209.69361 c -0.33397,0 -0.61413,0.17711 -0.74898,0.47364 l -1.92415,4.21868 c -0.20611,0.45329 -0.57641,0.81293 -1.04314,1.01379 l -4.34856,1.87014 c -0.30532,0.13164 -0.48768,0.40307 -0.48768,0.72743 0,0.32435 0.18236,0.59646 0.48768,0.72743 l 4.34578,1.86946 c 0.46601,0.20018 0.83631,0.5605 1.04312,1.01311 l 1.92695,4.22614 c 0.13485,0.29585 0.41501,0.47297 0.74898,0.47297 0.33397,0 0.61414,-0.17712 0.74898,-0.47297 l 1.92695,-4.22614 c 0.20612,-0.45261 0.57711,-0.81293 1.04313,-1.01311 l 4.34647,-1.86946 c 0.30533,-0.13097 0.48768,-0.40308 0.48768,-0.72743 0,-0.32436 -0.18235,-0.59579 -0.48768,-0.72743 l -4.34926,-1.87082 c -0.46672,-0.20086 -0.83702,-0.5605 -1.04383,-1.01311 l -1.92346,-4.21868 C 145.61414,209.87072 145.33397,209.69361 145,209.69361 M 145,227.5 c -0.82234,0 -1.53988,-0.45329 -1.87245,-1.18342 l -1.92695,-4.22615 c -0.0831,-0.18118 -0.23127,-0.32503 -0.41781,-0.40511 l -4.34508,-1.86946 c -0.75178,-0.323 -1.21919,-1.0199 -1.21919,-1.81857 0,-0.79801 0.46741,-1.49557 1.21919,-1.81857 l 4.34857,-1.87082 c 0.18655,-0.08 0.33467,-0.22394 0.41711,-0.40511 l 1.92416,-4.21868 C 143.46012,208.95397 144.17766,208.5 145,208.5 c 0.82235,0 1.53989,0.45397 1.87246,1.18411 l 1.92416,4.21868 c 0.0825,0.18117 0.23056,0.32503 0.41711,0.40511 l 4.34926,1.87082 c 0.75178,0.323 1.21849,1.02056 1.21849,1.81857 0,0.79867 -0.46671,1.49557 -1.21849,1.81857 l -4.34577,1.86946 c -0.18725,0.08 -0.33537,0.22461 -0.41781,0.40511 l -1.92695,4.22615 C 146.53989,227.04671 145.82235,227.5 145,227.5" />
</svg>
