<svg id="Layer_1" data-name="Layer 1" xmlns="http://www.w3.org/2000/svg" viewBox="0 0 500 500"><defs><style>.cls-1{fill:#844e9f;}.cls-2{fill:#d6d7d8;}.cls-3{fill:#7a4b91;}</style></defs><title>Caseflow Dispatch Logo SVG</title><path class="cls-1" d="M209.33,407.54,180,418.87l22.14,50a52.35,52.35,0,0,0,95.73,0L320,418.93l-29.33-11.33-21.49,48.53a20.94,20.94,0,0,1-38.29,0l-21.52-48.59M378.82,303.31l-33.76,15a52.21,52.21,0,0,0-26.67,26.67l-15,33.92,29.33,11.33,14.41-32.53A20.89,20.89,0,0,1,357.77,347l32.37-14.34-11.33-29.33m-257.71,0-11.33,29.33L142.22,347a20.9,20.9,0,0,1,10.66,10.66l14.38,32.47,29.34-11.33-15-33.87a52.25,52.25,0,0,0-26.67-26.66l-33.82-15M81,180l-49.89,22.1a52.35,52.35,0,0,0,0,95.73L81,319.88l11.33-29.33L43.87,269.07a20.94,20.94,0,0,1,0-38.29l48.5-21.48L81,180m337.85,0-11.33,29.33,48.57,21.51a20.94,20.94,0,0,1,0,38.29l-48.56,21.51,11.33,29.33,50-22.12a52.35,52.35,0,0,0,0-95.73l-50-22.12m-251.6-70.11L153,142.18a20.89,20.89,0,0,1-10.67,10.66l-32.5,14.39,11.33,29.33,33.89-15a52.21,52.21,0,0,0,26.67-26.67l14.94-33.74-29.33-11.33m165.39-.06L303.34,121.1l15,33.79A52.25,52.25,0,0,0,345,181.56l33.84,15,11.33-29.33-32.44-14.37A20.9,20.9,0,0,1,347,142.17l-14.35-32.4M250,0a51.71,51.71,0,0,0-47.86,31.15L180,81.08,209.36,92.4l21.49-48.53a20.94,20.94,0,0,1,38.29,0l21.47,48.47L319.94,81,297.86,31.15A51.71,51.71,0,0,0,250,0" transform="translate(0 0)"/><path class="cls-2" d="M249.9,362A52.14,52.14,0,0,0,231,365.49l-34.45,13.3,12.73,28.75,33-12.75a21,21,0,0,1,15.08,0l33.19,12.82,12.73-28.75-34.61-13.36A52.17,52.17,0,0,0,249.9,362m169-42.06-28.75,12.73,19.14,49.57a20.26,20.26,0,0,1-2.14,19.25A21,21,0,0,1,390,410.8h0a21.45,21.45,0,0,1-7.74-1.5L332.7,390.18,320,418.93,370.9,438.6a52.89,52.89,0,0,0,19,3.6h0a52.38,52.38,0,0,0,43.09-23,51.49,51.49,0,0,0,5.55-48.33l-19.69-51M81,319.88l-19.68,51a51.48,51.48,0,0,0,5.54,48.32A52,52,0,0,0,129,438.54l51-19.67-12.73-28.75-49.54,19.13a20.8,20.8,0,0,1-24.93-7.83,20.25,20.25,0,0,1-2.14-19.24l19.13-49.56L81,319.88m40.09-123.31L92.37,209.3l12.77,33.07a20.87,20.87,0,0,1,0,15.08l-12.78,33.1,28.75,12.73,13.32-34.51a52.24,52.24,0,0,0,0-37.72l-13.32-34.49m257.69,0-13.33,34.52a52.27,52.27,0,0,0,0,37.71l13.34,34.54,28.75-12.73-12.79-33.13a20.89,20.89,0,0,1,0-15.08l12.78-33.1-28.75-12.73m-88.2-104.2-33.16,12.81a21.09,21.09,0,0,1-15.09,0l-33-12.74-12.73,28.75L231,134.45a52.57,52.57,0,0,0,37.71,0l34.59-13.35L290.61,92.34M110,57.81a52.38,52.38,0,0,0-43.1,23A51.49,51.49,0,0,0,61.4,129.1L81,180l28.75-12.73L90.7,117.79a20.25,20.25,0,0,1,2.14-19.25,20.82,20.82,0,0,1,24.93-7.83l49.51,19.12L180,81.08,129.09,61.41a52.8,52.8,0,0,0-19-3.6m279.86-.06a52.78,52.78,0,0,0-19,3.6L319.94,81l12.73,28.75,49.49-19.11a20.82,20.82,0,0,1,24.93,7.83,20.25,20.25,0,0,1,2.14,19.24l-19.11,49.48,28.75,12.73L438.54,129A51.48,51.48,0,0,0,433,80.72a52.38,52.38,0,0,0-43.1-23" transform="translate(0 0)"/><path class="cls-3" d="M303.36,378.85l-12.73,28.75L320,418.93l12.73-28.75-29.33-11.33m-106.77-.06-29.34,11.33L180,418.87l29.34-11.33L196.6,378.79m211-88.21-28.75,12.73,11.33,29.33,28.75-12.73-11.33-29.33m-315.21,0L81,319.88l28.75,12.73,11.33-29.33L92.36,290.55m17.44-123.31L81,180,92.37,209.3l28.75-12.73-11.33-29.33m280.34,0-11.33,29.33,28.75,12.73,11.33-29.33-28.75-12.73M180,81.08l-12.73,28.75,29.33,11.33L209.36,92.4,180,81.08M319.94,81,290.61,92.34l12.73,28.75,29.33-11.33L319.94,81" transform="translate(0 0)"/></svg>