<svg id="Layer_1" data-name="Layer 1" xmlns="http://www.w3.org/2000/svg" viewBox="0 0 500 500"><defs><style>.cls-1{fill:#d6d7d9;}.cls-2{fill:#5c626b;}.cls-3{fill:#4d535b;}</style></defs><title>CF Logo Default</title><path class="cls-1" d="M389.39,441.43h0a52.67,52.67,0,0,1-19-3.59l-113-43.63a20.88,20.88,0,0,0-15,0L129.52,437.79a51.77,51.77,0,0,1-61.9-19.29,51.27,51.27,0,0,1-5.52-48.12l43.61-112.95a20.78,20.78,0,0,0,0-15L62.15,129.59a51.28,51.28,0,0,1,5.52-48.13,51.77,51.77,0,0,1,61.9-19.29l112.81,43.56a21,21,0,0,0,15,0l113-43.62a51.76,51.76,0,0,1,61.9,19.29,51.28,51.28,0,0,1,5.52,48.12L394.2,242.4a20.81,20.81,0,0,0,0,15l43.64,113a51.28,51.28,0,0,1-5.52,48.13,52.17,52.17,0,0,1-42.92,22.88M249.9,361.52a52,52,0,0,1,18.78,3.5l113,43.63a21.36,21.36,0,0,0,7.71,1.49h0a20.9,20.9,0,0,0,17.12-9.29,20.18,20.18,0,0,0,2.14-19.17L365,268.7a52.06,52.06,0,0,1,0-37.56L408.6,118.26a20.17,20.17,0,0,0-2.14-19.16,20.77,20.77,0,0,0-24.83-7.8l-113,43.62a52.36,52.36,0,0,1-37.55,0L118.31,91.35a20.77,20.77,0,0,0-24.83,7.8,20.17,20.17,0,0,0-2.13,19.17L134.9,231.13a52,52,0,0,1,0,37.57L91.29,381.65a20.17,20.17,0,0,0,2.13,19.16,20.76,20.76,0,0,0,24.83,7.8L231.12,365a51.93,51.93,0,0,1,18.78-3.5"/><path class="cls-2" d="M209.49,406.91l-29.22,11.28,22,49.78a52.14,52.14,0,0,0,95.34,0l22-49.72L290.47,407l-21.41,48.33a20.85,20.85,0,0,1-38.14,0l-21.43-48.4M378.3,303.1,344.67,318a52,52,0,0,0-26.56,26.56l-15,33.78,29.22,11.28,14.35-32.4a20.81,20.81,0,0,1,10.62-10.62l32.25-14.28L378.3,303.1m-256.67,0-11.28,29.22,32.3,14.3a20.82,20.82,0,0,1,10.62,10.62l14.32,32.34,29.22-11.28-14.94-33.73A52,52,0,0,0,155.31,318l-33.68-14.92M81.72,180.25l-49.7,22a52.14,52.14,0,0,0,0,95.34l49.69,22L93,290.39,44.69,269a20.85,20.85,0,0,1,0-38.14L93,209.47,81.72,180.25m336.49,0-11.28,29.22,48.38,21.42a20.85,20.85,0,0,1,0,38.14l-48.37,21.42,11.28,29.22,49.75-22a52.14,52.14,0,0,0,0-95.34l-49.76-22M167.62,110.39l-14.27,32.22a20.81,20.81,0,0,1-10.62,10.62l-32.37,14.34,11.28,29.22,33.75-14.95A52,52,0,0,0,182,155.27l14.88-33.6-29.22-11.28m164.72-.06-29.22,11.28L318,155.26a52,52,0,0,0,26.56,26.57l33.7,14.93,11.28-29.22-32.31-14.31a20.82,20.82,0,0,1-10.63-10.63l-14.29-32.27M250,1a51.51,51.51,0,0,0-47.67,31l-22,49.72L209.52,93,230.93,44.7a20.85,20.85,0,0,1,38.14,0L290.44,93l29.22-11.28L297.67,32A51.51,51.51,0,0,0,250,1"/><path class="cls-3" d="M303.15,378.34,290.47,407l29.22,11.28,12.68-28.64-29.22-11.28m-106.34-.06-29.22,11.28,12.68,28.64,29.22-11.28-12.68-28.64m210.13-87.86L378.3,303.1l11.28,29.22,28.64-12.68-11.28-29.22m-314,0L81.71,319.6l28.64,12.68,11.28-29.22L93,290.39m17.37-122.82L81.72,180.25,93,209.47l28.64-12.68-11.28-29.22m279.22,0-11.28,29.22,28.64,12.68,11.28-29.22-28.64-12.68M180.3,81.75l-12.68,28.64,29.22,11.28L209.52,93,180.3,81.75m139.36-.06L290.44,93l12.68,28.64,29.22-11.28L319.66,81.69"/></svg>