<?xml version="1.0" encoding="UTF-8" standalone="no"?>
<svg width="500px" height="500px" viewBox="0 0 500 500" version="1.1" xmlns="http://www.w3.org/2000/svg" xmlns:xlink="http://www.w3.org/1999/xlink">
    <!-- Generator: Sketch 41.2 (35397) - http://www.bohemiancoding.com/sketch -->
    <title>Caseflow Logo - Feedback</title>
    <desc>Created with Sketch.</desc>
    <defs></defs>
    <g id="Page-1" stroke="none" stroke-width="1" fill="none" fill-rule="evenodd">
        <g id="Caseflow-Logo---Feedback">
            <g id="Feedback">
                <path d="M263.591052,357.785714 C270.073195,357.785714 276.412481,358.964286 282.448195,361.303571 L395.912481,405.107143 C398.466052,406.107143 401.073195,406.607143 403.644623,406.607143 L403.644623,406.607143 C410.412481,406.607143 416.823195,403.125 420.841052,397.285714 C423.126766,393.946429 426.448195,387.017857 422.983909,378.035714 L379.180338,264.589286 C374.483909,252.428571 374.483909,239.035714 379.180338,226.875 L422.930338,113.535714 C426.394623,104.571429 423.073195,97.6428571 420.787481,94.3035714 C415.269623,86.25 405.198195,82.8571429 395.858909,86.4642857 L282.448195,130.267857 C270.358909,134.928571 256.823195,134.928571 244.733909,130.267857 L131.466052,86.5178571 C122.126766,82.9107143 112.055338,86.3035714 106.537481,94.3571429 C104.251766,97.6964286 100.930338,104.625 104.394623,113.607143 L148.126766,226.875 C152.823195,239.035714 152.823195,252.428571 148.126766,264.589286 L104.341052,377.982143 C100.876766,386.946429 104.198195,393.892857 106.483909,397.232143 C112.019623,405.285714 122.091052,408.678571 131.412481,405.053571 L244.733909,361.303571 C250.769623,358.964286 257.108909,357.785714 263.591052,357.785714 M403.644623,438.017857 L403.644623,438.017857 C397.180338,438.017857 390.787481,436.803571 384.591052,434.410714 L271.126766,390.607143 C266.305338,388.732143 260.876766,388.732143 256.055338,390.607143 L142.733909,434.357143 C136.537481,436.75 130.126766,437.964286 123.680338,437.964286 C106.555338,437.964286 90.4481948,429.375 80.5910519,414.982143 C70.7517662,400.642857 68.7339091,383.035714 75.0374805,366.678571 L118.823195,253.267857 C120.716052,248.410714 120.716052,243.053571 118.823195,238.178571 L75.0910519,124.910714 C68.7696234,108.553571 70.7874805,90.9464286 80.6267662,76.5892857 C90.5017662,62.2142857 106.608909,53.625 123.733909,53.625 C130.180338,53.625 136.591052,54.8392857 142.787481,57.2321429 L256.055338,100.964286 C260.876766,102.821429 266.305338,102.821429 271.144623,100.964286 L384.537481,57.1607143 C390.733909,54.7857143 397.144623,53.5714286 403.591052,53.5714286 C420.716052,53.5714286 436.823195,62.1607143 446.698195,76.5357143 C456.537481,90.875 458.555338,108.5 452.233909,124.857143 L408.466052,238.178571 C406.591052,243.053571 406.591052,248.410714 408.466052,253.267857 L452.287481,366.714286 C458.608909,383.089286 456.573195,400.696429 446.733909,415.053571 C436.876766,429.428571 420.769623,438.017857 403.644623,438.017857" id="Fill-25" fill="#D6D7D9"></path>
                <path d="M250,31.4107143 C241.464286,31.4107143 234.303571,36.0714286 230.857143,43.875 L181.678571,154.892857 C176.410714,166.821429 166.946429,176.285714 155.017857,181.571429 L43.875,230.785714 C36.0714286,234.25 31.4107143,241.392857 31.4107143,249.928571 C31.4107143,258.464286 36.0714286,265.625 43.875,269.071429 L154.946429,318.267857 C166.857143,323.535714 176.321429,333.017857 181.607143,344.928571 L230.857143,456.142857 C234.303571,463.928571 241.464286,468.589286 250,468.589286 C258.535714,468.589286 265.696429,463.928571 269.142857,456.142857 L318.392857,344.928571 C323.660714,333.017857 333.142857,323.535714 345.053571,318.267857 L456.142857,269.071429 C463.946429,265.625 468.607143,258.464286 468.607143,249.928571 C468.607143,241.392857 463.946429,234.25 456.142857,230.785714 L344.982143,181.553571 C333.053571,176.267857 323.589286,166.803571 318.303571,154.892857 L269.142857,43.875 C265.696429,36.0714286 258.535714,31.4107143 250,31.4107143 M202.142857,468.857143 L152.892857,357.642857 C150.767857,352.875 146.982143,349.089286 142.214286,346.982143 L31.1607143,297.785714 C11.9464286,289.285714 0,270.946429 0,249.928571 C0,228.928571 11.9464286,210.571429 31.1607143,202.071429 L142.303571,152.839286 C147.071429,150.732143 150.857143,146.946429 152.964286,142.178571 L202.142857,31.1607143 C210.642857,11.9464286 228.982143,0 250,0 C271.017857,0 289.357143,11.9464286 297.857143,31.1607143 L347.035714,142.178571 C349.142857,146.946429 352.928571,150.732143 357.696429,152.839286 L468.857143,202.071429 C488.071429,210.571429 500,228.928571 500,249.928571 C500,270.946429 488.071429,289.285714 468.857143,297.785714 L357.785714,346.982143 C353,349.089286 349.214286,352.892857 347.107143,357.642857 L297.857143,468.857143 C289.357143,488.071429 271.017857,500 250,500 C228.982143,500 210.642857,488.071429 202.142857,468.857143 Z" id="Fill-23" fill="#73E5D4" style="mix-blend-mode: multiply;"></path>
            </g>
        </g>
    </g>
</svg>