<?xml version="1.0" encoding="UTF-8"?>
<svg width="29px" height="29px" viewBox="0 0 29 29" version="1.1" xmlns="http://www.w3.org/2000/svg" xmlns:xlink="http://www.w3.org/1999/xlink">
    <!-- Generator: Sketch 51.1 (57501) - http://www.bohemiancoding.com/sketch -->
    <title>Group</title>
    <desc>Created with Sketch.</desc>
    <defs></defs>
    <g id="Page-1" stroke="none" stroke-width="1" fill="none" fill-rule="evenodd">
        <g id="List-view-judge-filled" transform="translate(-126.000000, -21.000000)">
            <g id="Group" transform="translate(126.000000, 21.000000)">
                <path d="M13.9956893,20.4087045 C14.3666027,20.4087045 14.7293416,20.4761485 15.07471,20.6100144 L21.5672263,23.1166798 C21.7133437,23.173905 21.8625265,23.2025175 22.0096656,23.2025175 L22.0096656,23.2025175 C22.3969278,23.2025175 22.7637539,23.0032514 22.9936589,22.6690975 C23.1244493,22.4780064 23.3145041,22.081518 23.1162749,21.5675136 L20.6097998,15.075526 C20.3410665,14.3796275 20.3410665,13.6132194 20.6097998,12.9173208 L23.1132095,6.43146454 C23.3114387,5.91848205 23.1213839,5.52199359 22.9905935,5.3309025 C22.6748573,4.87003577 22.0985622,4.67587905 21.5641609,4.8822983 L15.07471,7.38896372 C14.3829515,7.65567374 13.6084272,7.65567374 12.9166687,7.38896372 L6.43539219,4.88536393 C5.90099086,4.67894468 5.32469574,4.8731014 5.00895959,5.33396814 C4.8781692,5.52505922 4.68811443,5.92154768 4.8863436,6.43555205 L7.38873146,12.9173208 C7.65746482,13.6132194 7.65746482,14.3796275 7.38873146,15.075526 L4.8832782,21.564448 C4.68504903,22.0774304 4.87510381,22.4749408 5.00589419,22.6660319 C5.32265214,23.1268986 5.89894726,23.3210553 6.43232679,23.1136142 L12.9166687,20.6100144 C13.262037,20.4761485 13.624776,20.4087045 13.9956893,20.4087045 M22.0096656,25 L22.0096656,25 C21.6397741,25 21.2739697,24.9305123 20.9194052,24.7935808 L14.4268889,22.2869153 C14.1510029,22.1796182 13.8403758,22.1796182 13.5644898,22.2869153 L7.0801479,24.7905151 C6.72558335,24.9274467 6.3587572,24.9969344 5.98988745,24.9969344 C5.00998139,24.9969344 4.08831791,24.5054113 3.52428439,23.6817781 C2.96127267,22.8612105 2.84580929,21.8536393 3.20650464,20.9175995 L5.71195789,14.4276557 C5.82026867,14.149705 5.82026867,13.8431418 5.71195789,13.5641693 L3.20957004,7.08240048 C2.84785289,6.14636072 2.96331627,5.13878954 3.52632799,4.31720006 C4.09138331,3.49458869 5.01304679,3.00306563 5.99295285,3.00306563 C6.3618226,3.00306563 6.72864875,3.0725533 7.0832133,3.20948488 L13.5644898,5.7120628 C13.8403758,5.81833806 14.1510029,5.81833806 14.4279107,5.7120628 L20.9163398,3.20539737 C21.2709043,3.06948767 21.6377305,3 22.0066002,3 C22.9865063,3 23.9081698,3.49152306 24.4732251,4.31413442 C25.0362368,5.13470203 25.1517002,6.14329509 24.789983,7.07933485 L22.2855516,13.5641693 C22.1782626,13.8431418 22.1782626,14.149705 22.2855516,14.4276557 L24.7930484,20.9196433 C25.1547656,21.8567049 25.0382804,22.8642761 24.4752687,23.6858656 C23.9112352,24.5084769 22.9895717,25 22.0096656,25" id="Fill-14-Copy" fill="#D6D7D9"></path>
                <path d="M14.5,1.82182143 C14.0049286,1.82182143 13.5896071,2.09214286 13.3897143,2.54475 L10.5373571,8.98378571 C10.2318214,9.67564286 9.68289286,10.2245714 8.99103571,10.5311429 L2.54475,13.3855714 C2.09214286,13.5865 1.82182143,14.0007857 1.82182143,14.4958571 C1.82182143,14.9909286 2.09214286,15.40625 2.54475,15.6061429 L8.98689286,18.4595357 C9.67771429,18.7650714 10.2266429,19.3150357 10.5332143,20.0058571 L13.3897143,26.4562857 C13.5896071,26.9078571 14.0049286,27.1781786 14.5,27.1781786 C14.9950714,27.1781786 15.4103929,26.9078571 15.6102857,26.4562857 L18.4667857,20.0058571 C18.7723214,19.3150357 19.3222857,18.7650714 20.0131071,18.4595357 L26.4562857,15.6061429 C26.9088929,15.40625 27.1792143,14.9909286 27.1792143,14.4958571 C27.1792143,14.0007857 26.9088929,13.5865 26.4562857,13.3855714 L20.0089643,10.5301071 C19.3171071,10.2235357 18.7681786,9.67460714 18.4616071,8.98378571 L15.6102857,2.54475 C15.4103929,2.09214286 14.9950714,1.82182143 14.5,1.82182143 M14.5,29 C13.2809643,29 12.2172857,28.3081429 11.7242857,27.1937143 L8.86778571,20.7432857 C8.74453571,20.46675 8.52496429,20.2471786 8.24842857,20.1249643 L1.80732143,17.2715714 C0.692892857,16.7785714 0,15.7148929 0,14.4958571 C0,13.2778571 0.692892857,12.2131429 1.80732143,11.7201429 L8.25360714,8.86467857 C8.53014286,8.74246429 8.74971429,8.52289286 8.87192857,8.24635714 L11.7242857,1.80732143 C12.2172857,0.692892857 13.2809643,0 14.5,0 C15.7190357,0 16.7827143,0.692892857 17.2757143,1.80732143 L20.1280714,8.24635714 C20.2502857,8.52289286 20.4698571,8.74246429 20.7463929,8.86467857 L27.1937143,11.7201429 C28.3081429,12.2131429 29,13.2778571 29,14.4958571 C29,15.7148929 28.3081429,16.7785714 27.1937143,17.2715714 L20.7515714,20.1249643 C20.474,20.2471786 20.2544286,20.4677857 20.1322143,20.7432857 L17.2757143,27.1937143 C16.7827143,28.3081429 15.7190357,29 14.5,29" id="Fill-12-Copy" fill="#BB87C8" style="mix-blend-mode: multiply;"></path>
            </g>
        </g>
    </g>
</svg>