<?xml version="1.0" encoding="UTF-8" standalone="no"?>
<svg width="500px" height="500px" viewBox="0 0 500 500" version="1.1" xmlns="http://www.w3.org/2000/svg" xmlns:xlink="http://www.w3.org/1999/xlink">
    <!-- Generator: Sketch 41.2 (35397) - http://www.bohemiancoding.com/sketch -->
    <title>Caseflow Logo - Express</title>
    <desc>Created with Sketch.</desc>
    <defs></defs>
    <g id="Page-1" stroke="none" stroke-width="1" fill="none" fill-rule="evenodd">
        <g id="Caseflow-Logo---Express">
            <g id="eFolder-express">
                <path d="M243.182889,360.336735 C249.665032,360.336735 256.004317,361.515306 262.040032,363.854592 L375.504317,407.658163 C378.057889,408.658163 380.665032,409.158163 383.23646,409.158163 L383.23646,409.158163 C390.004317,409.158163 396.415032,405.67602 400.432889,399.836735 C402.718603,396.497449 406.040032,389.568878 402.575746,380.586735 L358.772174,267.140306 C354.075746,254.979592 354.075746,241.586735 358.772174,229.42602 L402.522174,116.086735 C405.98646,107.122449 402.665032,100.193878 400.379317,96.8545918 C394.86146,88.8010204 384.790032,85.4081633 375.450746,89.0153061 L262.040032,132.818878 C249.950746,137.479592 236.415032,137.479592 224.325746,132.818878 L111.057889,89.0688776 C101.718603,85.4617347 91.6471744,88.8545918 86.1293172,96.9081633 C83.843603,100.247449 80.5221744,107.17602 83.9864601,116.158163 L127.718603,229.42602 C132.415032,241.586735 132.415032,254.979592 127.718603,267.140306 L83.9328887,380.533163 C80.468603,389.497449 83.7900315,396.443878 86.0757458,399.783163 C91.6114601,407.836735 101.682889,411.229592 111.004317,407.604592 L224.325746,363.854592 C230.36146,361.515306 236.700746,360.336735 243.182889,360.336735 M383.23646,440.568878 L383.23646,440.568878 C376.772174,440.568878 370.379317,439.354592 364.182889,436.961735 L250.718603,393.158163 C245.897174,391.283163 240.468603,391.283163 235.647174,393.158163 L122.325746,436.908163 C116.129317,439.30102 109.718603,440.515306 103.272174,440.515306 C86.1471744,440.515306 70.0400315,431.92602 60.1828887,417.533163 C50.343603,403.193878 48.3257458,385.586735 54.6293172,369.229592 L98.4150315,255.818878 C100.307889,250.961735 100.307889,245.604592 98.4150315,240.729592 L54.6828887,127.461735 C48.3614601,111.104592 50.3793172,93.497449 60.218603,79.1403061 C70.093603,64.7653061 86.2007458,56.1760204 103.325746,56.1760204 C109.772174,56.1760204 116.182889,57.3903061 122.379317,59.7831633 L235.647174,103.515306 C240.468603,105.372449 245.897174,105.372449 250.73646,103.515306 L364.129317,59.7117347 C370.325746,57.3367347 376.73646,56.122449 383.182889,56.122449 C400.307889,56.122449 416.415032,64.7117347 426.290032,79.0867347 C436.129317,93.4260204 438.147174,111.05102 431.825746,127.408163 L388.057889,240.729592 C386.182889,245.604592 386.182889,250.961735 388.057889,255.818878 L431.879317,369.265306 C438.200746,385.640306 436.165032,403.247449 426.325746,417.604592 C416.468603,431.979592 400.36146,440.568878 383.23646,440.568878" id="Fill-14" fill="#D6D7D9"></path>
                <path d="M250,31.4107143 C241.464286,31.4107143 234.303571,36.0714286 230.857143,43.875 L181.678571,154.892857 C176.410714,166.821429 166.946429,176.285714 155.017857,181.571429 L43.875,230.785714 C36.0714286,234.25 31.4107143,241.392857 31.4107143,249.928571 C31.4107143,258.464286 36.0714286,265.625 43.875,269.071429 L154.946429,318.267857 C166.857143,323.535714 176.321429,333.017857 181.607143,344.928571 L230.857143,456.142857 C234.303571,463.928571 241.464286,468.589286 250,468.589286 C258.535714,468.589286 265.696429,463.928571 269.142857,456.142857 L318.392857,344.928571 C323.660714,333.017857 333.142857,323.535714 345.053571,318.267857 L456.142857,269.071429 C463.946429,265.625 468.607143,258.464286 468.607143,249.928571 C468.607143,241.392857 463.946429,234.25 456.142857,230.785714 L344.982143,181.553571 C333.053571,176.267857 323.589286,166.803571 318.303571,154.892857 L269.142857,43.875 C265.696429,36.0714286 258.535714,31.4107143 250,31.4107143 M202.142857,468.857143 L152.892857,357.642857 C150.767857,352.875 146.982143,349.089286 142.214286,346.982143 L31.1607143,297.785714 C11.9464286,289.285714 0,270.946429 0,249.928571 C0,228.928571 11.9464286,210.571429 31.1607143,202.071429 L142.303571,152.839286 C147.071429,150.732143 150.857143,146.946429 152.964286,142.178571 L202.142857,31.1607143 C210.642857,11.9464286 228.982143,0 250,0 C271.017857,0 289.357143,11.9464286 297.857143,31.1607143 L347.035714,142.178571 C349.142857,146.946429 352.928571,150.732143 357.696429,152.839286 L468.857143,202.071429 C488.071429,210.571429 500,228.928571 500,249.928571 C500,270.946429 488.071429,289.285714 468.857143,297.785714 L357.785714,346.982143 C353,349.089286 349.214286,352.892857 347.107143,357.642857 L297.857143,468.857143 C289.357143,488.071429 271.017857,500 250,500 C228.982143,500 210.642857,488.071429 202.142857,468.857143 Z" id="Fill-12" fill="#F0825D" style="mix-blend-mode: multiply;"></path>
            </g>
        </g>
    </g>
</svg>