<?xml version="1.0" encoding="UTF-8" standalone="no"?>
<svg width="500px" height="500px" viewBox="0 0 500 500" version="1.1" xmlns="http://www.w3.org/2000/svg" xmlns:xlink="http://www.w3.org/1999/xlink">
    <!-- Generator: Sketch 47 (45396) - http://www.bohemiancoding.com/sketch -->
    <title>Caseflow Logo - Reader</title>
    <desc>Created with Sketch.</desc>
    <defs></defs>
    <g id="Logos" stroke="none" stroke-width="1" fill="none" fill-rule="evenodd">
        <g id="Caseflow-Logo---Reader">
            <g id="Caseflow-Logo---Dashboard" transform="translate(0.000000, 1.000000)">
                <g id="Layer_1">
                    <path d="M389.959839,441.284569 C383.432096,441.271612 376.963574,440.048453 370.883534,437.677355 L257.429719,393.98998 C252.590851,392.086238 247.208346,392.086238 242.369478,393.98998 L129.016064,437.677355 C106.320107,446.603374 80.4584687,438.55605 66.8674699,418.338677 C57.0515074,404.211352 54.9782782,386.116356 61.3453815,370.142285 L105.120482,257.016032 C107.028046,252.186861 107.028046,246.815143 105.120482,241.985972 L61.3453815,128.95992 C54.9782782,112.985849 57.0515074,94.8908522 66.8674699,80.7635271 C80.4584687,60.5461545 106.320107,52.4988304 129.016064,61.4248497 L242.269076,105.112224 C247.107944,107.015966 252.490449,107.015966 257.329317,105.112224 L370.783133,61.4248497 C393.47909,52.4988304 419.340728,60.5461545 432.931727,80.7635271 C442.747689,94.8908522 444.820919,112.985849 438.453815,128.95992 L394.678715,242.086172 C392.77115,246.915343 392.77115,252.287062 394.678715,257.116232 L438.453815,370.342685 C444.820919,386.316757 442.747689,404.411753 432.931727,418.539078 C423.237855,432.723837 407.164043,441.231882 389.959839,441.284569 M249.899598,361.224449 C256.353168,361.233978 262.750462,362.422577 268.7751,364.731463 L382.228916,408.418838 C384.691595,409.389201 387.312266,409.898698 389.959839,409.921844 C396.866782,409.810028 403.280763,406.328714 407.128514,400.603206 C411.093101,394.97649 411.889064,387.713698 409.236948,381.364729 L365.461847,268.138277 C360.743378,256.021258 360.743378,242.579944 365.461847,230.462926 L409.236948,117.336673 C411.813252,110.977018 411.021397,103.751703 407.128514,98.0981964 C401.695283,89.9837231 391.338118,86.7327557 382.228916,90.2825651 L268.7751,133.96994 C256.614316,138.574339 243.184881,138.574339 231.024096,133.96994 L117.771084,90.2825651 C108.661882,86.7327557 98.3047167,89.9837231 92.8714859,98.0981964 C88.9068988,103.724913 88.1109359,110.987705 90.7630522,117.336673 L134.538153,230.362725 C139.256622,242.479744 139.256622,255.921058 134.538153,268.038076 L90.7630522,381.164329 C87.7347473,388.869273 89.5592305,397.632331 95.4124457,403.495531 C101.265661,409.358732 110.039485,411.212063 117.771084,408.218437 L231.124498,364.531062 C237.149529,362.373645 243.498568,361.255472 249.899598,361.224449" id="Shape" fill="#D6D7D9"></path>
                    <path d="M209.226908,406.765531 L179.959839,418.048096 L202.108434,467.937876 C210.52076,486.825367 229.289165,498.997401 250,498.997401 C270.710835,498.997401 289.47924,486.825367 297.891566,467.937876 L319.97992,418.088176 L290.753012,406.815631 L269.176707,455.412826 C265.803034,462.96969 258.289598,467.837793 250,467.837793 C241.710402,467.837793 234.196966,462.96969 230.823293,455.412826 L209.226908,406.765531 M378.905622,302.837675 L345.180723,317.737475 C333.273614,323.007833 323.754837,332.507534 318.473896,344.390782 L303.504016,378.108216 L332.771084,389.380762 L347.188755,356.915832 C349.28122,352.172217 353.078185,348.382861 357.831325,346.294589 L390.150602,332.006012 L378.875502,302.837675 M121.074297,302.837675 L109.789157,331.995992 L142.168675,346.294589 C146.901437,348.412477 150.689105,352.192554 152.811245,356.915832 L167.138554,389.190381 L196.405622,377.907816 L181.526104,344.390782 C176.245163,332.507534 166.726386,323.007833 154.819277,317.737475 L121.074297,302.817635 M80.9136546,179.571142 L31.124498,201.60521 C12.1990801,210.000678 0.00260459933,228.731472 0.00260459933,249.400802 C0.00260459933,270.070132 12.1990801,288.800925 31.124498,297.196393 L81.0341365,319.240481 L92.3192771,290.082164 L43.7751004,268.639279 C36.2030617,265.272366 31.3251832,257.773988 31.3251832,249.501002 C31.3251832,241.228016 36.2030617,233.729638 43.7751004,230.362725 L92.3092369,208.91984 L80.9538153,179.591182 M418.885542,179.521042 L407.540161,208.849699 L456.2249,230.362725 C463.796938,233.729638 468.674817,241.228016 468.674817,249.501002 C468.674817,257.773988 463.796938,265.272366 456.2249,268.639279 L407.46988,290.192385 L418.74498,319.360721 L468.875502,297.196393 C487.80092,288.800925 499.997395,270.070132 499.997395,249.400802 C499.997395,228.731472 487.80092,210.000678 468.875502,201.60521 L418.885542,179.561122 M167.329317,109.420842 L152.911647,141.885772 C150.819182,146.629387 147.022217,150.418742 142.269076,152.507014 L109.919679,166.795591 L121.2751,196.124248 L154.919679,181.264529 C166.826788,175.994171 176.345565,166.49447 181.626506,154.611222 L196.686747,120.723447 L167.349398,109.400802 M332.670683,109.400802 L303.323293,120.703407 L318.383534,154.641283 C323.664475,166.52453 333.183252,176.024231 345.090361,181.294589 L378.75502,196.164329 L390.100402,166.835671 L357.730924,152.507014 C352.977783,150.418742 349.180818,146.629387 347.088353,141.885772 L332.650602,109.370741 M250,0.00200400802 C229.237589,-0.170449296 210.38235,12.058923 202.108434,31.0641283 L179.909639,81.0541082 L209.246988,92.3767535 L230.823293,43.7895792 C234.196966,36.2327148 241.710402,31.3646117 250,31.3646117 C258.289598,31.3646117 265.803034,36.2327148 269.176707,43.7895792 L290.692771,92.2665331 L320.040161,80.9639279 L297.891566,31.0641283 C289.61765,12.058923 270.762411,-0.170449296 250,0.00200400802" id="Shape" fill="#FFCC4E"></path>
                    <path d="M303.504016,378.108216 L290.753012,406.815631 L320.02008,418.088176 L332.771084,389.370741 L303.504016,378.098196 M196.405622,377.907816 L167.138554,389.190381 L179.949799,418.048096 L209.216867,406.765531 L196.405622,377.907816 M407.459839,290.192385 L378.865462,302.837675 L390.140562,332.006012 L418.73494,319.360721 L407.459839,290.192385 M92.3092369,290.102204 L81.0240964,319.260521 L109.789157,331.975952 L121.074297,302.817635 L92.3192771,290.102204 M390.090361,166.805611 L378.74498,196.134269 L407.540161,208.849699 L418.885542,179.521042 L390.090361,166.805611 M109.909639,166.805611 L80.9538153,179.591182 L92.3192771,208.91984 L121.285141,196.124248 L109.929719,166.795591 M179.929719,81.0541082 L167.349398,109.400802 L196.686747,120.723447 L209.267068,92.3767535 L179.929719,81.0541082 M320.060241,80.9539078 L290.692771,92.2665331 L303.303213,120.673347 L332.650602,109.370741 L320.040161,80.9639279" id="Shape" fill="#CA9E00"></path>
                </g>
            </g>
        </g>
    </g>
</svg>