<?xml version="1.0" encoding="UTF-8" standalone="no"?>
<!DOCTYPE svg PUBLIC "-//W3C//DTD SVG 1.1//EN"
 "http://www.w3.org/Graphics/SVG/1.1/DTD/svg11.dtd">
<!-- Generated by graphviz version 2.47.1 (20210417.1919)
 -->
<!-- Title: belongs_to_erd_subclasses Pages: 1 -->
<svg width="1112pt" height="2111pt"
 viewBox="0.00 0.00 1112.26 2111.00" xmlns="http://www.w3.org/2000/svg" xmlns:xlink="http://www.w3.org/1999/xlink">
<g id="graph0" class="graph" transform="scale(1 1) rotate(0) translate(4 2107)">
<title>belongs_to_erd_subclasses</title>
<polygon fill="white" stroke="transparent" points="-4,4 -4,-2107 1108.26,-2107 1108.26,4 -4,4"/>
<!-- AppealSeries -->
<g id="node1" class="node">
<title>AppealSeries</title>
<ellipse fill="none" stroke="black" cx="557.74" cy="-18" rx="57.69" ry="18"/>
<text text-anchor="middle" x="557.74" y="-14.3" font-family="Times,serif" font-size="14.00">AppealSeries</text>
</g>
<!-- LegacyAppeal -->
<g id="node2" class="node">
<title>LegacyAppeal</title>
<ellipse fill="yellow" stroke="black" cx="98" cy="-18" rx="61.99" ry="18"/>
<text text-anchor="middle" x="98" y="-14.3" font-family="Times,serif" font-size="14.00">LegacyAppeal</text>
</g>
<!-- LegacyAppeal&#45;&gt;AppealSeries -->
<g id="edge1" class="edge">
<title>LegacyAppeal&#45;&gt;AppealSeries</title>
<path fill="none" stroke="black" d="M159.78,-18C245.28,-18 400.54,-18 489.43,-18"/>
<polygon fill="black" stroke="black" points="489.67,-21.5 499.67,-18 489.67,-14.5 489.67,-21.5"/>
<text text-anchor="middle" x="294" y="-21.8" font-family="Times,serif" font-size="14.00">appeal_series</text>
</g>
<!-- ETL::Appeal -->
<g id="node3" class="node">
<title>ETL::Appeal</title>
<ellipse fill="none" stroke="black" cx="1022.36" cy="-182" rx="57.39" ry="18"/>
<text text-anchor="middle" x="1022.36" y="-178.3" font-family="Times,serif" font-size="14.00">ETL::Appeal</text>
</g>
<!-- ETL::Appeal&#45;&gt;ETL::Appeal -->
<g id="edge2" class="edge">
<title>ETL::Appeal&#45;&gt;ETL::Appeal</title>
<path fill="none" stroke="black" d="M990.22,-197.17C980.48,-207.66 991.19,-218 1022.36,-218 1043.31,-218 1055.02,-213.33 1057.49,-207.09"/>
<polygon fill="black" stroke="black" points="1060.74,-205.74 1054.51,-197.17 1054.04,-207.75 1060.74,-205.74"/>
<text text-anchor="middle" x="1022.36" y="-221.8" font-family="Times,serif" font-size="14.00">parent</text>
</g>
<!-- ETL::Build -->
<g id="node4" class="node">
<title>ETL::Build</title>
<ellipse fill="none" stroke="black" cx="557.74" cy="-318" rx="51.19" ry="18"/>
<text text-anchor="middle" x="557.74" y="-314.3" font-family="Times,serif" font-size="14.00">ETL::Build</text>
</g>
<!-- ETL::BuildTable -->
<g id="node5" class="node">
<title>ETL::BuildTable</title>
<ellipse fill="none" stroke="black" cx="98" cy="-318" rx="71.49" ry="18"/>
<text text-anchor="middle" x="98" y="-314.3" font-family="Times,serif" font-size="14.00">ETL::BuildTable</text>
</g>
<!-- ETL::BuildTable&#45;&gt;ETL::Build -->
<g id="edge3" class="edge">
<title>ETL::BuildTable&#45;&gt;ETL::Build</title>
<path fill="none" stroke="black" d="M169.52,-318C258.95,-318 411.66,-318 496.11,-318"/>
<polygon fill="black" stroke="black" points="496.31,-321.5 506.31,-318 496.31,-314.5 496.31,-321.5"/>
<text text-anchor="middle" x="294" y="-321.8" font-family="Times,serif" font-size="14.00">etl_build</text>
</g>
<!-- ETL::HearingRecord -->
<g id="node6" class="node">
<title>ETL::HearingRecord</title>
<polygon fill="none" stroke="blue" stroke-dasharray="5,2" points="32.5,-195 32.5,-231 163.5,-231 163.5,-195 32.5,-195"/>
<text text-anchor="middle" x="98" y="-209.3" font-family="Times,serif" font-size="14.00" fill="blue">ETL::HearingRecord</text>
</g>
<!-- ETL::HearingRecord&#45;&gt;ETL::Appeal -->
<g id="edge4" class="edge">
<title>ETL::HearingRecord&#45;&gt;ETL::Appeal</title>
<path fill="none" stroke="black" d="M163.66,-221.03C286.71,-236.07 539.74,-267 539.74,-267 539.74,-267 832.4,-215.46 961.92,-192.64"/>
<polygon fill="black" stroke="black" points="962.84,-196.04 972.08,-190.86 961.62,-189.14 962.84,-196.04"/>
<text text-anchor="middle" x="557.74" y="-270.8" font-family="Times,serif" font-size="14.00">appeal</text>
</g>
<!-- ETL::Hearing -->
<g id="node8" class="node">
<title>ETL::Hearing</title>
<ellipse fill="#66ccff" stroke="black" cx="557.74" cy="-213" rx="59.59" ry="18"/>
<text text-anchor="middle" x="557.74" y="-209.3" font-family="Times,serif" font-size="14.00">ETL::Hearing</text>
</g>
<!-- ETL::HearingRecord&#45;&gt;ETL::Hearing -->
<g id="edge29" class="edge">
<title>ETL::HearingRecord&#45;&gt;ETL::Hearing</title>
<path fill="none" stroke="blue" stroke-dasharray="1,5" d="M163.61,-213C249.3,-213 399.93,-213 487.76,-213"/>
<polygon fill="blue" stroke="blue" points="487.89,-216.5 497.89,-213 487.89,-209.5 487.89,-216.5"/>
</g>
<!-- ETL::LegacyHearing -->
<g id="node9" class="node">
<title>ETL::LegacyHearing</title>
<ellipse fill="#66ccff" stroke="black" cx="557.74" cy="-159" rx="85.59" ry="18"/>
<text text-anchor="middle" x="557.74" y="-155.3" font-family="Times,serif" font-size="14.00">ETL::LegacyHearing</text>
</g>
<!-- ETL::HearingRecord&#45;&gt;ETL::LegacyHearing -->
<g id="edge30" class="edge">
<title>ETL::HearingRecord&#45;&gt;ETL::LegacyHearing</title>
<path fill="none" stroke="blue" stroke-dasharray="1,5" d="M163.61,-205.38C244.53,-195.83 383.34,-179.46 472.51,-168.94"/>
<polygon fill="blue" stroke="blue" points="473.07,-172.39 482.59,-167.75 472.25,-165.44 473.07,-172.39"/>
</g>
<!-- ETL::Task -->
<g id="node7" class="node">
<title>ETL::Task</title>
<ellipse fill="none" stroke="black" cx="557.74" cy="-72" rx="48.99" ry="18"/>
<text text-anchor="middle" x="557.74" y="-68.3" font-family="Times,serif" font-size="14.00">ETL::Task</text>
</g>
<!-- ETL::Task&#45;&gt;ETL::Appeal -->
<g id="edge6" class="edge">
<title>ETL::Task&#45;&gt;ETL::Appeal</title>
<path fill="none" stroke="black" d="M599.38,-81.67C682.56,-101.44 872.26,-146.55 966.35,-168.92"/>
<polygon fill="black" stroke="black" points="965.71,-172.36 976.24,-171.27 967.32,-165.55 965.71,-172.36"/>
<text text-anchor="middle" x="831.97" y="-150.8" font-family="Times,serif" font-size="14.00">appeal</text>
</g>
<!-- ETL::Task&#45;&gt;ETL::Task -->
<g id="edge5" class="edge">
<title>ETL::Task&#45;&gt;ETL::Task</title>
<path fill="none" stroke="black" d="M519.4,-83.43C496.86,-95.06 509.63,-108 557.74,-108 597.95,-108 613.47,-98.96 604.31,-89.19"/>
<polygon fill="black" stroke="black" points="606.27,-86.29 596.07,-83.43 602.25,-92.03 606.27,-86.29"/>
<text text-anchor="middle" x="557.74" y="-111.8" font-family="Times,serif" font-size="14.00">parent</text>
</g>
<!-- ETL::Hearing&#45;&gt;ETL::Appeal -->
<g id="edge7" class="edge">
<title>ETL::Hearing&#45;&gt;ETL::Appeal</title>
<path fill="none" stroke="black" d="M616.39,-209.14C702.8,-203.35 865.41,-192.45 956.08,-186.37"/>
<polygon fill="black" stroke="black" points="956.49,-189.86 966.23,-185.69 956.02,-182.87 956.49,-189.86"/>
<text text-anchor="middle" x="831.97" y="-204.8" font-family="Times,serif" font-size="14.00">appeal</text>
</g>
<!-- ETL::LegacyHearing&#45;&gt;ETL::Appeal -->
<g id="edge8" class="edge">
<title>ETL::LegacyHearing&#45;&gt;ETL::Appeal</title>
<path fill="none" stroke="black" d="M641.44,-163.11C731.26,-167.58 872.92,-174.62 955.51,-178.73"/>
<polygon fill="black" stroke="black" points="955.37,-182.22 965.53,-179.22 955.72,-175.23 955.37,-182.22"/>
<text text-anchor="middle" x="831.97" y="-175.8" font-family="Times,serif" font-size="14.00">appeal</text>
</g>
<!-- Task -->
<g id="node10" class="node">
<title>Task</title>
<polygon fill="green" stroke="blue" points="59.5,-355 59.5,-401 136.5,-401 136.5,-355 59.5,-355"/>
<text text-anchor="middle" x="98" y="-385.8" font-family="Times,serif" font-size="14.00" fill="blue">Task</text>
<polyline fill="none" stroke="blue" points="59.5,-378 136.5,-378 "/>
<text text-anchor="middle" x="98" y="-362.8" font-family="Times,serif" font-size="14.00" fill="blue">(105 tasks)</text>
</g>
<!-- Task&#45;&gt;Task -->
<g id="edge25" class="edge">
<title>Task&#45;&gt;Task</title>
<path fill="none" stroke="#6600cc" stroke-dasharray="1,5" d="M61.69,-401.05C58.72,-410.99 70.82,-419.5 98,-419.5 115.41,-419.5 126.64,-416.01 131.67,-410.88"/>
<polygon fill="#6600cc" stroke="#6600cc" points="135.1,-411.61 134.31,-401.05 128.34,-409.8 135.1,-411.61"/>
</g>
<!-- Claimant -->
<g id="node11" class="node">
<title>Claimant</title>
<polygon fill="gray" stroke="blue" points="31.5,-438 31.5,-544 164.5,-544 164.5,-438 31.5,-438"/>
<text text-anchor="middle" x="98" y="-528.8" font-family="Times,serif" font-size="14.00" fill="blue">Claimant</text>
<polyline fill="none" stroke="blue" points="31.5,-521 164.5,-521 "/>
<text text-anchor="middle" x="98" y="-505.8" font-family="Times,serif" font-size="14.00" fill="blue">AttorneyClaimant,</text>
<text text-anchor="middle" x="98" y="-490.8" font-family="Times,serif" font-size="14.00" fill="blue">BgsRelatedClaimant,</text>
<text text-anchor="middle" x="98" y="-475.8" font-family="Times,serif" font-size="14.00" fill="blue">OtherClaimant,</text>
<text text-anchor="middle" x="98" y="-460.8" font-family="Times,serif" font-size="14.00" fill="blue">DependentClaimant,</text>
<text text-anchor="middle" x="98" y="-445.8" font-family="Times,serif" font-size="14.00" fill="blue">VeteranClaimant</text>
</g>
<!-- DecisionReview -->
<g id="node12" class="node">
<title>DecisionReview</title>
<polygon fill="yellow" stroke="blue" points="493.24,-542.5 493.24,-633.5 622.24,-633.5 622.24,-542.5 493.24,-542.5"/>
<text text-anchor="middle" x="557.74" y="-618.3" font-family="Times,serif" font-size="14.00" fill="blue">DecisionReview</text>
<polyline fill="none" stroke="blue" points="493.24,-610.5 622.24,-610.5 "/>
<text text-anchor="middle" x="557.74" y="-595.3" font-family="Times,serif" font-size="14.00" fill="blue">Appeal,</text>
<text text-anchor="middle" x="557.74" y="-580.3" font-family="Times,serif" font-size="14.00" fill="blue">ClaimReview,</text>
<text text-anchor="middle" x="557.74" y="-565.3" font-family="Times,serif" font-size="14.00" fill="blue">HigherLevelReview,</text>
<text text-anchor="middle" x="557.74" y="-550.3" font-family="Times,serif" font-size="14.00" fill="blue">SupplementalClaim</text>
</g>
<!-- ClaimReview -->
<g id="node13" class="node">
<title>ClaimReview</title>
<polygon fill="yellow" stroke="blue" points="493.24,-652.5 493.24,-713.5 622.24,-713.5 622.24,-652.5 493.24,-652.5"/>
<text text-anchor="middle" x="557.74" y="-698.3" font-family="Times,serif" font-size="14.00" fill="blue">ClaimReview</text>
<polyline fill="none" stroke="blue" points="493.24,-690.5 622.24,-690.5 "/>
<text text-anchor="middle" x="557.74" y="-675.3" font-family="Times,serif" font-size="14.00" fill="blue">HigherLevelReview,</text>
<text text-anchor="middle" x="557.74" y="-660.3" font-family="Times,serif" font-size="14.00" fill="blue">SupplementalClaim</text>
</g>
<!-- RampReview -->
<g id="node14" class="node">
<title>RampReview</title>
<polygon fill="#cc99ff" stroke="blue" points="508.74,-732.5 508.74,-793.5 606.74,-793.5 606.74,-732.5 508.74,-732.5"/>
<text text-anchor="middle" x="557.74" y="-778.3" font-family="Times,serif" font-size="14.00" fill="blue">RampReview</text>
<polyline fill="none" stroke="blue" points="508.74,-770.5 606.74,-770.5 "/>
<text text-anchor="middle" x="557.74" y="-755.3" font-family="Times,serif" font-size="14.00" fill="blue">RampElection,</text>
<text text-anchor="middle" x="557.74" y="-740.3" font-family="Times,serif" font-size="14.00" fill="blue">RampRefiling</text>
</g>
<!-- RequestIssue -->
<g id="node15" class="node">
<title>RequestIssue</title>
<polygon fill="orange" stroke="blue" points="26.5,-799.5 26.5,-860.5 169.5,-860.5 169.5,-799.5 26.5,-799.5"/>
<text text-anchor="middle" x="98" y="-845.3" font-family="Times,serif" font-size="14.00" fill="blue">RequestIssue</text>
<polyline fill="none" stroke="blue" points="26.5,-837.5 169.5,-837.5 "/>
<text text-anchor="middle" x="98" y="-822.3" font-family="Times,serif" font-size="14.00" fill="blue">RatingRequestIssue,</text>
<text text-anchor="middle" x="98" y="-807.3" font-family="Times,serif" font-size="14.00" fill="blue">NonratingRequestIssue</text>
</g>
<!-- appeal_type -->
<g id="node16" class="node">
<title>appeal_type</title>
<polygon fill="yellow" stroke="blue" points="50.5,-879.5 50.5,-940.5 145.5,-940.5 145.5,-879.5 50.5,-879.5"/>
<text text-anchor="middle" x="98" y="-925.3" font-family="Times,serif" font-size="14.00" fill="blue">appeal_type</text>
<polyline fill="none" stroke="blue" points="50.5,-917.5 145.5,-917.5 "/>
<text text-anchor="middle" x="98" y="-902.3" font-family="Times,serif" font-size="14.00" fill="blue">Appeal,</text>
<text text-anchor="middle" x="98" y="-887.3" font-family="Times,serif" font-size="14.00" fill="blue">LegacyAppeal</text>
</g>
<!-- hearing_type -->
<g id="node17" class="node">
<title>hearing_type</title>
<polygon fill="none" stroke="blue" stroke-dasharray="1,5" points="48,-959.5 48,-1020.5 148,-1020.5 148,-959.5 48,-959.5"/>
<text text-anchor="middle" x="98" y="-1005.3" font-family="Times,serif" font-size="14.00" fill="blue">hearing_type</text>
<polyline fill="none" stroke="blue" stroke-dasharray="1,5" points="48,-997.5 148,-997.5 "/>
<text text-anchor="middle" x="98" y="-982.3" font-family="Times,serif" font-size="14.00" fill="blue">Hearing,</text>
<text text-anchor="middle" x="98" y="-967.3" font-family="Times,serif" font-size="14.00" fill="blue">LegacyHearing</text>
</g>
<!-- decision_review_type -->
<g id="node18" class="node">
<title>decision_review_type</title>
<polygon fill="yellow" stroke="blue" points="490.24,-1120 490.24,-1196 625.24,-1196 625.24,-1120 490.24,-1120"/>
<text text-anchor="middle" x="557.74" y="-1180.8" font-family="Times,serif" font-size="14.00" fill="blue">decision_review_type</text>
<polyline fill="none" stroke="blue" points="490.24,-1173 625.24,-1173 "/>
<text text-anchor="middle" x="557.74" y="-1157.8" font-family="Times,serif" font-size="14.00" fill="blue">Appeal,</text>
<text text-anchor="middle" x="557.74" y="-1142.8" font-family="Times,serif" font-size="14.00" fill="blue">SupplementalClaim,</text>
<text text-anchor="middle" x="557.74" y="-1127.8" font-family="Times,serif" font-size="14.00" fill="blue">HigherLevelReview</text>
</g>
<!-- decision_review_remanded_type -->
<g id="node19" class="node">
<title>decision_review_remanded_type</title>
<polygon fill="yellow" stroke="blue" points="0,-1215 0,-1291 196,-1291 196,-1215 0,-1215"/>
<text text-anchor="middle" x="98" y="-1275.8" font-family="Times,serif" font-size="14.00" fill="blue">decision_review_remanded_type</text>
<polyline fill="none" stroke="blue" points="0,-1268 196,-1268 "/>
<text text-anchor="middle" x="98" y="-1252.8" font-family="Times,serif" font-size="14.00" fill="blue">Appeal,</text>
<text text-anchor="middle" x="98" y="-1237.8" font-family="Times,serif" font-size="14.00" fill="blue">SupplementalClaim,</text>
<text text-anchor="middle" x="98" y="-1222.8" font-family="Times,serif" font-size="14.00" fill="blue">HigherLevelReview</text>
</g>
<!-- decision_review_remanded_type&#45;&gt;decision_review_type -->
<g id="edge21" class="edge">
<title>decision_review_remanded_type&#45;&gt;decision_review_type</title>
<path fill="none" stroke="#6600cc" stroke-dasharray="1,5" d="M196.07,-1232.85C280.71,-1215.29 401.83,-1190.15 479.88,-1173.95"/>
<polygon fill="#6600cc" stroke="#6600cc" points="481.05,-1177.28 490.13,-1171.82 479.63,-1170.43 481.05,-1177.28"/>
<text text-anchor="middle" x="294" y="-1231.8" font-family="Times,serif" font-size="14.00" fill="#6600cc">a.k.a.</text>
</g>
<!-- review_type -->
<g id="node20" class="node">
<title>review_type</title>
<polygon fill="yellow" stroke="blue" points="33.5,-1120 33.5,-1196 162.5,-1196 162.5,-1120 33.5,-1120"/>
<text text-anchor="middle" x="98" y="-1180.8" font-family="Times,serif" font-size="14.00" fill="blue">review_type</text>
<polyline fill="none" stroke="blue" points="33.5,-1173 162.5,-1173 "/>
<text text-anchor="middle" x="98" y="-1157.8" font-family="Times,serif" font-size="14.00" fill="blue">Appeal,</text>
<text text-anchor="middle" x="98" y="-1142.8" font-family="Times,serif" font-size="14.00" fill="blue">SupplementalClaim,</text>
<text text-anchor="middle" x="98" y="-1127.8" font-family="Times,serif" font-size="14.00" fill="blue">HigherLevelReview</text>
</g>
<!-- review_type&#45;&gt;decision_review_type -->
<g id="edge22" class="edge">
<title>review_type&#45;&gt;decision_review_type</title>
<path fill="none" stroke="#6600cc" stroke-dasharray="1,5" d="M162.65,-1158C245.67,-1158 390.81,-1158 479.87,-1158"/>
<polygon fill="#6600cc" stroke="#6600cc" points="479.92,-1161.5 489.92,-1158 479.92,-1154.5 479.92,-1161.5"/>
<text text-anchor="middle" x="294" y="-1161.8" font-family="Times,serif" font-size="14.00" fill="#6600cc">a.k.a.</text>
</g>
<!-- original_decision_review_type -->
<g id="node21" class="node">
<title>original_decision_review_type</title>
<polygon fill="yellow" stroke="blue" points="6,-1310.5 6,-1371.5 190,-1371.5 190,-1310.5 6,-1310.5"/>
<text text-anchor="middle" x="98" y="-1356.3" font-family="Times,serif" font-size="14.00" fill="blue">original_decision_review_type</text>
<polyline fill="none" stroke="blue" points="6,-1348.5 190,-1348.5 "/>
<text text-anchor="middle" x="98" y="-1333.3" font-family="Times,serif" font-size="14.00" fill="blue">SupplementalClaim,</text>
<text text-anchor="middle" x="98" y="-1318.3" font-family="Times,serif" font-size="14.00" fill="blue">HigherLevelReview</text>
</g>
<!-- source_type -->
<g id="node22" class="node">
<title>source_type</title>
<polygon fill="none" stroke="blue" stroke-dasharray="1,5" points="33.5,-1391 33.5,-1497 162.5,-1497 162.5,-1391 33.5,-1391"/>
<text text-anchor="middle" x="98" y="-1481.8" font-family="Times,serif" font-size="14.00" fill="blue">source_type</text>
<polyline fill="none" stroke="blue" stroke-dasharray="1,5" points="33.5,-1474 162.5,-1474 "/>
<text text-anchor="middle" x="98" y="-1458.8" font-family="Times,serif" font-size="14.00" fill="blue">DecisionDocument,</text>
<text text-anchor="middle" x="98" y="-1443.8" font-family="Times,serif" font-size="14.00" fill="blue">SupplementalClaim,</text>
<text text-anchor="middle" x="98" y="-1428.8" font-family="Times,serif" font-size="14.00" fill="blue">HigherLevelReview,</text>
<text text-anchor="middle" x="98" y="-1413.8" font-family="Times,serif" font-size="14.00" fill="blue">RampRefiling,</text>
<text text-anchor="middle" x="98" y="-1398.8" font-family="Times,serif" font-size="14.00" fill="blue">RampElection</text>
</g>
<!-- assigned_to_type -->
<g id="node23" class="node">
<title>assigned_to_type</title>
<polygon fill="none" stroke="blue" stroke-dasharray="1,5" points="43,-1516.5 43,-1577.5 153,-1577.5 153,-1516.5 43,-1516.5"/>
<text text-anchor="middle" x="98" y="-1562.3" font-family="Times,serif" font-size="14.00" fill="blue">assigned_to_type</text>
<polyline fill="none" stroke="blue" stroke-dasharray="1,5" points="43,-1554.5 153,-1554.5 "/>
<text text-anchor="middle" x="98" y="-1539.3" font-family="Times,serif" font-size="14.00" fill="blue">User,</text>
<text text-anchor="middle" x="98" y="-1524.3" font-family="Times,serif" font-size="14.00" fill="blue">Organization</text>
</g>
<!-- record_type -->
<g id="node24" class="node">
<title>record_type</title>
<polygon fill="yellow" stroke="blue" points="50.5,-1039.5 50.5,-1100.5 145.5,-1100.5 145.5,-1039.5 50.5,-1039.5"/>
<text text-anchor="middle" x="98" y="-1085.3" font-family="Times,serif" font-size="14.00" fill="blue">record_type</text>
<polyline fill="none" stroke="blue" points="50.5,-1077.5 145.5,-1077.5 "/>
<text text-anchor="middle" x="98" y="-1062.3" font-family="Times,serif" font-size="14.00" fill="blue">Appeal,</text>
<text text-anchor="middle" x="98" y="-1047.3" font-family="Times,serif" font-size="14.00" fill="blue">LegacyAppeal</text>
</g>
<!-- record_type&#45;&gt;decision_review_type -->
<g id="edge23" class="edge">
<title>record_type&#45;&gt;decision_review_type</title>
<path fill="none" stroke="#6600cc" d="M145.83,-1079C224.73,-1094.17 384.83,-1124.95 480.23,-1143.29"/>
<polygon fill="#6600cc" stroke="#6600cc" points="479.63,-1146.74 490.11,-1145.19 480.95,-1139.87 479.63,-1146.74"/>
<text text-anchor="middle" x="294" y="-1125.8" font-family="Times,serif" font-size="14.00" fill="#6600cc">(subset of)</text>
</g>
<!-- Message -->
<g id="node25" class="node">
<title>Message</title>
<polygon fill="#f2f2f2" stroke="#aaaaaa" points="130.5,-1632 65.5,-1632 65.5,-1628 61.5,-1628 61.5,-1624 65.5,-1624 65.5,-1604 61.5,-1604 61.5,-1600 65.5,-1600 65.5,-1596 130.5,-1596 130.5,-1632"/>
<polyline fill="none" stroke="#aaaaaa" points="65.5,-1628 69.5,-1628 69.5,-1624 65.5,-1624 "/>
<polyline fill="none" stroke="#aaaaaa" points="65.5,-1604 69.5,-1604 69.5,-1600 65.5,-1600 "/>
<text text-anchor="middle" x="98" y="-1610.3" font-family="Times,serif" font-size="14.00">Message</text>
</g>
<!-- JobNote -->
<g id="node26" class="node">
<title>JobNote</title>
<ellipse fill="none" stroke="black" cx="557.74" cy="-1614" rx="40.09" ry="18"/>
<text text-anchor="middle" x="557.74" y="-1610.3" font-family="Times,serif" font-size="14.00">JobNote</text>
</g>
<!-- Message&#45;&gt;JobNote -->
<g id="edge9" class="edge">
<title>Message&#45;&gt;JobNote</title>
<path fill="none" stroke="blue" d="M130.82,-1614C209.28,-1614 412.46,-1614 507,-1614"/>
<polygon fill="blue" stroke="blue" points="507.16,-1617.5 517.16,-1614 507.16,-1610.5 507.16,-1617.5"/>
<text text-anchor="middle" x="294" y="-1617.8" font-family="Times,serif" font-size="14.00" fill="blue">Message#detail</text>
</g>
<!-- SupplementalClaim -->
<g id="node27" class="node">
<title>SupplementalClaim</title>
<ellipse fill="yellow" stroke="black" cx="1022.36" cy="-1675" rx="81.49" ry="18"/>
<text text-anchor="middle" x="1022.36" y="-1671.3" font-family="Times,serif" font-size="14.00">SupplementalClaim</text>
</g>
<!-- Message&#45;&gt;SupplementalClaim -->
<g id="edge10" class="edge">
<title>Message&#45;&gt;SupplementalClaim</title>
<path fill="none" stroke="blue" d="M130.74,-1623.57C229.1,-1652.33 515.24,-1736 515.24,-1736 515.24,-1736 797.29,-1702.07 940.7,-1684.82"/>
<polygon fill="blue" stroke="blue" points="941.27,-1688.28 950.78,-1683.61 940.43,-1681.33 941.27,-1688.28"/>
<text text-anchor="middle" x="557.74" y="-1739.8" font-family="Times,serif" font-size="14.00" fill="blue">Message#detail</text>
</g>
<!-- HigherLevelReview -->
<g id="node28" class="node">
<title>HigherLevelReview</title>
<ellipse fill="yellow" stroke="black" cx="1022.36" cy="-1563" rx="81.79" ry="18"/>
<text text-anchor="middle" x="1022.36" y="-1559.3" font-family="Times,serif" font-size="14.00">HigherLevelReview</text>
</g>
<!-- Message&#45;&gt;HigherLevelReview -->
<g id="edge11" class="edge">
<title>Message&#45;&gt;HigherLevelReview</title>
<path fill="none" stroke="blue" d="M130.57,-1611.67C241.86,-1603.69 600.24,-1578 600.24,-1578 600.24,-1578 807.11,-1570.65 931.21,-1566.24"/>
<polygon fill="blue" stroke="blue" points="931.6,-1569.73 941.47,-1565.87 931.35,-1562.73 931.6,-1569.73"/>
<text text-anchor="middle" x="557.74" y="-1566.8" font-family="Times,serif" font-size="14.00" fill="blue">Message#detail</text>
</g>
<!-- JobNote&#45;&gt;SupplementalClaim -->
<g id="edge19" class="edge">
<title>JobNote&#45;&gt;SupplementalClaim</title>
<path fill="none" stroke="blue" d="M596.59,-1618.99C671.81,-1628.91 841.45,-1651.28 942.11,-1664.55"/>
<polygon fill="blue" stroke="blue" points="941.86,-1668.05 952.23,-1665.88 942.78,-1661.11 941.86,-1668.05"/>
<text text-anchor="middle" x="831.97" y="-1659.8" font-family="Times,serif" font-size="14.00" fill="blue">JobNote#job</text>
</g>
<!-- JobNote&#45;&gt;HigherLevelReview -->
<g id="edge20" class="edge">
<title>JobNote&#45;&gt;HigherLevelReview</title>
<path fill="none" stroke="blue" d="M596.99,-1609.78C671.5,-1601.57 837.6,-1583.26 938.49,-1572.14"/>
<polygon fill="blue" stroke="blue" points="939.09,-1575.59 948.64,-1571.02 938.32,-1568.63 939.09,-1575.59"/>
<text text-anchor="middle" x="831.97" y="-1597.8" font-family="Times,serif" font-size="14.00" fill="blue">JobNote#job</text>
</g>
<!-- AppealIntake -->
<g id="node29" class="node">
<title>AppealIntake</title>
<polygon fill="#ffffcc" stroke="black" points="130.5,-1806 53.5,-1806 53.5,-1768 130.5,-1768 142.5,-1787 130.5,-1806"/>
<text text-anchor="middle" x="98" y="-1783.3" font-family="Times,serif" font-size="14.00">AppealIntake</text>
</g>
<!-- Appeal -->
<g id="node30" class="node">
<title>Appeal</title>
<ellipse fill="yellow" stroke="black" cx="557.74" cy="-1787" rx="36.29" ry="18"/>
<text text-anchor="middle" x="557.74" y="-1783.3" font-family="Times,serif" font-size="14.00">Appeal</text>
</g>
<!-- AppealIntake&#45;&gt;Appeal -->
<g id="edge12" class="edge">
<title>AppealIntake&#45;&gt;Appeal</title>
<path fill="none" stroke="blue" d="M142.89,-1787C229.76,-1787 422.82,-1787 511.1,-1787"/>
<polygon fill="blue" stroke="blue" points="511.33,-1790.5 521.33,-1787 511.33,-1783.5 511.33,-1790.5"/>
<text text-anchor="middle" x="294" y="-1790.8" font-family="Times,serif" font-size="14.00" fill="blue">AppealIntake#detail</text>
</g>
<!-- RampElectionIntake -->
<g id="node31" class="node">
<title>RampElectionIntake</title>
<polygon fill="#ffffcc" stroke="black" points="150,-1874 34,-1874 34,-1836 150,-1836 162,-1855 150,-1874"/>
<text text-anchor="middle" x="98" y="-1851.3" font-family="Times,serif" font-size="14.00">RampElectionIntake</text>
</g>
<!-- RampElection -->
<g id="node32" class="node">
<title>RampElection</title>
<ellipse fill="#cc99ff" stroke="black" cx="557.74" cy="-1855" rx="61.99" ry="18"/>
<text text-anchor="middle" x="557.74" y="-1851.3" font-family="Times,serif" font-size="14.00">RampElection</text>
</g>
<!-- RampElectionIntake&#45;&gt;RampElection -->
<g id="edge13" class="edge">
<title>RampElectionIntake&#45;&gt;RampElection</title>
<path fill="none" stroke="blue" d="M162.17,-1855C246.86,-1855 396.8,-1855 485.44,-1855"/>
<polygon fill="blue" stroke="blue" points="485.68,-1858.5 495.68,-1855 485.68,-1851.5 485.68,-1858.5"/>
<text text-anchor="middle" x="294" y="-1858.8" font-family="Times,serif" font-size="14.00" fill="blue">RampElectionIntake#detail</text>
</g>
<!-- RampRefilingIntake -->
<g id="node33" class="node">
<title>RampRefilingIntake</title>
<polygon fill="#ffffcc" stroke="black" points="149.5,-1942 34.5,-1942 34.5,-1904 149.5,-1904 161.5,-1923 149.5,-1942"/>
<text text-anchor="middle" x="98" y="-1919.3" font-family="Times,serif" font-size="14.00">RampRefilingIntake</text>
</g>
<!-- RampRefiling -->
<g id="node34" class="node">
<title>RampRefiling</title>
<ellipse fill="#cc99ff" stroke="black" cx="557.74" cy="-1923" rx="60.39" ry="18"/>
<text text-anchor="middle" x="557.74" y="-1919.3" font-family="Times,serif" font-size="14.00">RampRefiling</text>
</g>
<!-- RampRefilingIntake&#45;&gt;RampRefiling -->
<g id="edge14" class="edge">
<title>RampRefilingIntake&#45;&gt;RampRefiling</title>
<path fill="none" stroke="blue" d="M161.69,-1923C246.71,-1923 398.12,-1923 486.76,-1923"/>
<polygon fill="blue" stroke="blue" points="486.98,-1926.5 496.98,-1923 486.98,-1919.5 486.98,-1926.5"/>
<text text-anchor="middle" x="294" y="-1926.8" font-family="Times,serif" font-size="14.00" fill="blue">RampRefilingIntake#detail</text>
</g>
<!-- HigherLevelReviewIntake -->
<g id="node35" class="node">
<title>HigherLevelReviewIntake</title>
<polygon fill="#ffffcc" stroke="black" points="625.74,-1521 477.74,-1521 477.74,-1483 625.74,-1483 637.74,-1502 625.74,-1521"/>
<text text-anchor="middle" x="557.74" y="-1498.3" font-family="Times,serif" font-size="14.00">HigherLevelReviewIntake</text>
</g>
<!-- HigherLevelReviewIntake&#45;&gt;HigherLevelReview -->
<g id="edge15" class="edge">
<title>HigherLevelReviewIntake&#45;&gt;HigherLevelReview</title>
<path fill="none" stroke="blue" d="M637.74,-1512.42C722.55,-1523.6 856.54,-1541.27 941.63,-1552.49"/>
<polygon fill="blue" stroke="blue" points="941.39,-1555.99 951.76,-1553.82 942.3,-1549.05 941.39,-1555.99"/>
<text text-anchor="middle" x="831.97" y="-1537.8" font-family="Times,serif" font-size="14.00" fill="blue">HigherLevelReviewIntake#detail</text>
</g>
<!-- SupplementalClaimIntake -->
<g id="node36" class="node">
<title>SupplementalClaimIntake</title>
<polygon fill="#ffffcc" stroke="black" points="625.24,-1694 478.24,-1694 478.24,-1656 625.24,-1656 637.24,-1675 625.24,-1694"/>
<text text-anchor="middle" x="557.74" y="-1671.3" font-family="Times,serif" font-size="14.00">SupplementalClaimIntake</text>
</g>
<!-- SupplementalClaimIntake&#45;&gt;SupplementalClaim -->
<g id="edge16" class="edge">
<title>SupplementalClaimIntake&#45;&gt;SupplementalClaim</title>
<path fill="none" stroke="blue" d="M637.48,-1675C718.77,-1675 845.46,-1675 930.84,-1675"/>
<polygon fill="blue" stroke="blue" points="931.04,-1678.5 941.04,-1675 931.04,-1671.5 931.04,-1678.5"/>
<text text-anchor="middle" x="831.97" y="-1678.8" font-family="Times,serif" font-size="14.00" fill="blue">SupplementalClaimIntake#detail</text>
</g>
<!-- DecisionReviewIntake -->
<g id="node37" class="node">
<title>DecisionReviewIntake</title>
<polygon fill="#ffffcc" stroke="black" points="156,-607 28,-607 28,-569 156,-569 168,-588 156,-607"/>
<text text-anchor="middle" x="98" y="-584.3" font-family="Times,serif" font-size="14.00">DecisionReviewIntake</text>
</g>
<!-- DecisionReviewIntake&#45;&gt;DecisionReview -->
<g id="edge17" class="edge">
<title>DecisionReviewIntake&#45;&gt;DecisionReview</title>
<path fill="none" stroke="blue" d="M168.02,-588C252.83,-588 396.11,-588 483.01,-588"/>
<polygon fill="blue" stroke="blue" points="483.06,-591.5 493.06,-588 483.06,-584.5 483.06,-591.5"/>
<text text-anchor="middle" x="294" y="-591.8" font-family="Times,serif" font-size="14.00" fill="blue">DecisionReviewIntake#detail</text>
</g>
<!-- ClaimReviewIntake -->
<g id="node38" class="node">
<title>ClaimReviewIntake</title>
<polygon fill="#ffffcc" stroke="black" points="148.5,-702 35.5,-702 35.5,-664 148.5,-664 160.5,-683 148.5,-702"/>
<text text-anchor="middle" x="98" y="-679.3" font-family="Times,serif" font-size="14.00">ClaimReviewIntake</text>
</g>
<!-- ClaimReviewIntake&#45;&gt;ClaimReview -->
<g id="edge18" class="edge">
<title>ClaimReviewIntake&#45;&gt;ClaimReview</title>
<path fill="none" stroke="blue" d="M160.73,-683C244.38,-683 393.53,-683 482.98,-683"/>
<polygon fill="blue" stroke="blue" points="483.04,-686.5 493.04,-683 483.04,-679.5 483.04,-686.5"/>
<text text-anchor="middle" x="294" y="-686.8" font-family="Times,serif" font-size="14.00" fill="blue">ClaimReviewIntake#detail</text>
</g>
<!-- RampIssue -->
<g id="node39" class="node">
<title>RampIssue</title>
<ellipse fill="#cc99ff" stroke="black" cx="98" cy="-763" rx="50.09" ry="18"/>
<text text-anchor="middle" x="98" y="-759.3" font-family="Times,serif" font-size="14.00">RampIssue</text>
</g>
<!-- RampIssue&#45;&gt;RampReview -->
<g id="edge24" class="edge">
<title>RampIssue&#45;&gt;RampReview</title>
<path fill="none" stroke="#6600cc" d="M148.42,-763C233.56,-763 407.5,-763 498.42,-763"/>
<polygon fill="#6600cc" stroke="#6600cc" points="498.56,-766.5 508.56,-763 498.56,-759.5 498.56,-766.5"/>
<text text-anchor="middle" x="294" y="-766.8" font-family="Times,serif" font-size="14.00" fill="#6600cc">(ramp_)review</text>
</g>
<!-- ETL::DecisionReview -->
<g id="node40" class="node">
<title>ETL::DecisionReview</title>
<polygon fill="none" stroke="blue" stroke-dasharray="5,2" points="29,-2013 29,-2049 167,-2049 167,-2013 29,-2013"/>
<text text-anchor="middle" x="98" y="-2027.3" font-family="Times,serif" font-size="14.00" fill="blue">ETL::DecisionReview</text>
</g>
<!-- ETL::DecisionReview::Appeal -->
<g id="node41" class="node">
<title>ETL::DecisionReview::Appeal</title>
<ellipse fill="none" stroke="black" cx="557.74" cy="-2085" rx="120.48" ry="18"/>
<text text-anchor="middle" x="557.74" y="-2081.3" font-family="Times,serif" font-size="14.00">ETL::DecisionReview::Appeal</text>
</g>
<!-- ETL::DecisionReview&#45;&gt;ETL::DecisionReview::Appeal -->
<g id="edge26" class="edge">
<title>ETL::DecisionReview&#45;&gt;ETL::DecisionReview::Appeal</title>
<path fill="none" stroke="blue" stroke-dasharray="1,5" d="M167.03,-2039.03C242.57,-2047.94 365.37,-2062.42 452.93,-2072.75"/>
<polygon fill="blue" stroke="blue" points="452.55,-2076.23 462.89,-2073.93 453.37,-2069.28 452.55,-2076.23"/>
</g>
<!-- ETL::DecisionReview::HigherLevelReview -->
<g id="node42" class="node">
<title>ETL::DecisionReview::HigherLevelReview</title>
<ellipse fill="none" stroke="black" cx="557.74" cy="-2031" rx="165.97" ry="18"/>
<text text-anchor="middle" x="557.74" y="-2027.3" font-family="Times,serif" font-size="14.00">ETL::DecisionReview::HigherLevelReview</text>
</g>
<!-- ETL::DecisionReview&#45;&gt;ETL::DecisionReview::HigherLevelReview -->
<g id="edge27" class="edge">
<title>ETL::DecisionReview&#45;&gt;ETL::DecisionReview::HigherLevelReview</title>
<path fill="none" stroke="blue" stroke-dasharray="1,5" d="M167.03,-2031C223.64,-2031 306.79,-2031 381.76,-2031"/>
<polygon fill="blue" stroke="blue" points="381.8,-2034.5 391.8,-2031 381.8,-2027.5 381.8,-2034.5"/>
</g>
<!-- ETL::DecisionReview::SupplementalClaim -->
<g id="node43" class="node">
<title>ETL::DecisionReview::SupplementalClaim</title>
<ellipse fill="none" stroke="black" cx="557.74" cy="-1977" rx="165.17" ry="18"/>
<text text-anchor="middle" x="557.74" y="-1973.3" font-family="Times,serif" font-size="14.00">ETL::DecisionReview::SupplementalClaim</text>
</g>
<!-- ETL::DecisionReview&#45;&gt;ETL::DecisionReview::SupplementalClaim -->
<g id="edge28" class="edge">
<title>ETL::DecisionReview&#45;&gt;ETL::DecisionReview::SupplementalClaim</title>
<path fill="none" stroke="blue" stroke-dasharray="1,5" d="M167.03,-2022.97C237.46,-2014.67 348.98,-2001.51 434.71,-1991.4"/>
<polygon fill="blue" stroke="blue" points="435.25,-1994.86 444.77,-1990.21 434.43,-1987.9 435.25,-1994.86"/>
</g>
</g>
</svg>
