<?xml version="1.0" encoding="UTF-8" standalone="no"?>
<!DOCTYPE svg PUBLIC "-//W3C//DTD SVG 1.1//EN"
 "http://www.w3.org/Graphics/SVG/1.1/DTD/svg11.dtd">
<!-- Generated by graphviz version 2.47.1 (20210417.1919)
 -->
<!-- Title: belongs_to_erd Pages: 1 -->
<svg width="941pt" height="1959pt"
 viewBox="0.00 0.00 940.79 1959.00" xmlns="http://www.w3.org/2000/svg" xmlns:xlink="http://www.w3.org/1999/xlink">
<g id="graph0" class="graph" transform="scale(1 1) rotate(0) translate(4 1955)">
<title>belongs_to_erd</title>
<polygon fill="white" stroke="transparent" points="-4,4 -4,-1955 936.79,-1955 936.79,4 -4,4"/>
<!-- AppealSeries -->
<g id="node1" class="node">
<title>AppealSeries</title>
<ellipse fill="none" stroke="black" cx="472" cy="-18" rx="57.69" ry="18"/>
<text text-anchor="middle" x="472" y="-14.3" font-family="Times,serif" font-size="14.00">AppealSeries</text>
</g>
<!-- LegacyAppeal -->
<g id="node2" class="node">
<title>LegacyAppeal</title>
<ellipse fill="yellow" stroke="black" cx="98" cy="-18" rx="61.99" ry="18"/>
<text text-anchor="middle" x="98" y="-14.3" font-family="Times,serif" font-size="14.00">LegacyAppeal</text>
</g>
<!-- LegacyAppeal&#45;&gt;AppealSeries -->
<g id="edge1" class="edge">
<title>LegacyAppeal&#45;&gt;AppealSeries</title>
<path fill="none" stroke="black" d="M160.01,-18C226.97,-18 334.14,-18 403.55,-18"/>
<polygon fill="black" stroke="black" points="403.93,-21.5 413.93,-18 403.93,-14.5 403.93,-21.5"/>
<text text-anchor="middle" x="294" y="-21.8" font-family="Times,serif" font-size="14.00">appeal_series</text>
</g>
<!-- ETL::Appeal -->
<g id="node3" class="node">
<title>ETL::Appeal</title>
<ellipse fill="none" stroke="black" cx="472" cy="-149" rx="57.39" ry="18"/>
<text text-anchor="middle" x="472" y="-145.3" font-family="Times,serif" font-size="14.00">ETL::Appeal</text>
</g>
<!-- ETL::Appeal&#45;&gt;ETL::Appeal -->
<g id="edge2" class="edge">
<title>ETL::Appeal&#45;&gt;ETL::Appeal</title>
<path fill="none" stroke="black" d="M441.57,-164.54C433,-174.91 443.14,-185 472,-185 491.39,-185 502.33,-180.44 504.82,-174.31"/>
<polygon fill="black" stroke="black" points="508.21,-173.42 502.43,-164.54 501.41,-175.09 508.21,-173.42"/>
<text text-anchor="middle" x="472" y="-188.8" font-family="Times,serif" font-size="14.00">parent</text>
</g>
<!-- ETL::Build -->
<g id="node4" class="node">
<title>ETL::Build</title>
<ellipse fill="none" stroke="black" cx="472" cy="-321" rx="51.19" ry="18"/>
<text text-anchor="middle" x="472" y="-317.3" font-family="Times,serif" font-size="14.00">ETL::Build</text>
</g>
<!-- ETL::BuildTable -->
<g id="node5" class="node">
<title>ETL::BuildTable</title>
<ellipse fill="none" stroke="black" cx="98" cy="-321" rx="71.49" ry="18"/>
<text text-anchor="middle" x="98" y="-317.3" font-family="Times,serif" font-size="14.00">ETL::BuildTable</text>
</g>
<!-- ETL::BuildTable&#45;&gt;ETL::Build -->
<g id="edge3" class="edge">
<title>ETL::BuildTable&#45;&gt;ETL::Build</title>
<path fill="none" stroke="black" d="M169.85,-321C239.38,-321 344.32,-321 410.18,-321"/>
<polygon fill="black" stroke="black" points="410.4,-324.5 420.4,-321 410.4,-317.5 410.4,-324.5"/>
<text text-anchor="middle" x="294" y="-324.8" font-family="Times,serif" font-size="14.00">etl_build</text>
</g>
<!-- ETL::HearingRecord -->
<g id="node6" class="node">
<title>ETL::HearingRecord</title>
<ellipse fill="#66ccff" stroke="black" cx="98" cy="-267" rx="85.29" ry="18"/>
<text text-anchor="middle" x="98" y="-263.3" font-family="Times,serif" font-size="14.00">ETL::HearingRecord</text>
</g>
<!-- ETL::HearingRecord&#45;&gt;ETL::Appeal -->
<g id="edge4" class="edge">
<title>ETL::HearingRecord&#45;&gt;ETL::Appeal</title>
<path fill="none" stroke="black" d="M146.11,-252.06C216.7,-229.67 349.27,-187.61 421.32,-164.76"/>
<polygon fill="black" stroke="black" points="422.6,-168.02 431.07,-161.66 420.48,-161.35 422.6,-168.02"/>
<text text-anchor="middle" x="294" y="-238.8" font-family="Times,serif" font-size="14.00">appeal</text>
</g>
<!-- ETL::Task -->
<g id="node7" class="node">
<title>ETL::Task</title>
<ellipse fill="none" stroke="black" cx="98" cy="-180" rx="48.99" ry="18"/>
<text text-anchor="middle" x="98" y="-176.3" font-family="Times,serif" font-size="14.00">ETL::Task</text>
</g>
<!-- ETL::Task&#45;&gt;ETL::Appeal -->
<g id="edge6" class="edge">
<title>ETL::Task&#45;&gt;ETL::Appeal</title>
<path fill="none" stroke="black" d="M145.74,-176.11C211.62,-170.61 332.05,-160.58 406.44,-154.38"/>
<polygon fill="black" stroke="black" points="406.94,-157.85 416.62,-153.53 406.36,-150.87 406.94,-157.85"/>
<text text-anchor="middle" x="294" y="-173.8" font-family="Times,serif" font-size="14.00">appeal</text>
</g>
<!-- ETL::Task&#45;&gt;ETL::Task -->
<g id="edge5" class="edge">
<title>ETL::Task&#45;&gt;ETL::Task</title>
<path fill="none" stroke="black" d="M66,-194.04C54.03,-204.91 64.7,-216 98,-216 121.94,-216 134.18,-210.27 134.73,-203.01"/>
<polygon fill="black" stroke="black" points="137.76,-201.26 130,-194.04 131.57,-204.52 137.76,-201.26"/>
<text text-anchor="middle" x="98" y="-219.8" font-family="Times,serif" font-size="14.00">parent</text>
</g>
<!-- ETL::Hearing -->
<g id="node8" class="node">
<title>ETL::Hearing</title>
<ellipse fill="#66ccff" stroke="black" cx="98" cy="-126" rx="59.59" ry="18"/>
<text text-anchor="middle" x="98" y="-122.3" font-family="Times,serif" font-size="14.00">ETL::Hearing</text>
</g>
<!-- ETL::Hearing&#45;&gt;ETL::Appeal -->
<g id="edge7" class="edge">
<title>ETL::Hearing&#45;&gt;ETL::Appeal</title>
<path fill="none" stroke="black" d="M156.72,-129.57C224.02,-133.73 335.01,-140.59 405.49,-144.95"/>
<polygon fill="black" stroke="black" points="405.38,-148.45 415.58,-145.57 405.81,-141.46 405.38,-148.45"/>
<text text-anchor="middle" x="294" y="-138.8" font-family="Times,serif" font-size="14.00">appeal</text>
</g>
<!-- ETL::LegacyHearing -->
<g id="node9" class="node">
<title>ETL::LegacyHearing</title>
<ellipse fill="#66ccff" stroke="black" cx="98" cy="-72" rx="85.59" ry="18"/>
<text text-anchor="middle" x="98" y="-68.3" font-family="Times,serif" font-size="14.00">ETL::LegacyHearing</text>
</g>
<!-- ETL::LegacyHearing&#45;&gt;ETL::Appeal -->
<g id="edge8" class="edge">
<title>ETL::LegacyHearing&#45;&gt;ETL::Appeal</title>
<path fill="none" stroke="black" d="M159.6,-84.54C229.94,-99.1 345.09,-122.94 413.91,-137.18"/>
<polygon fill="black" stroke="black" points="413.21,-140.61 423.72,-139.21 414.63,-133.76 413.21,-140.61"/>
<text text-anchor="middle" x="294" y="-114.8" font-family="Times,serif" font-size="14.00">appeal</text>
</g>
<!-- Task -->
<g id="node10" class="node">
<title>Task</title>
<polygon fill="green" stroke="blue" points="59.5,-358 59.5,-404 136.5,-404 136.5,-358 59.5,-358"/>
<text text-anchor="middle" x="98" y="-388.8" font-family="Times,serif" font-size="14.00" fill="blue">Task</text>
<polyline fill="none" stroke="blue" points="59.5,-381 136.5,-381 "/>
<text text-anchor="middle" x="98" y="-365.8" font-family="Times,serif" font-size="14.00" fill="blue">(105 tasks)</text>
</g>
<!-- Task&#45;&gt;Task -->
<g id="edge25" class="edge">
<title>Task&#45;&gt;Task</title>
<path fill="none" stroke="#6600cc" stroke-dasharray="1,5" d="M61.69,-404.05C58.72,-413.99 70.82,-422.5 98,-422.5 115.41,-422.5 126.64,-419.01 131.67,-413.88"/>
<polygon fill="#6600cc" stroke="#6600cc" points="135.1,-414.61 134.31,-404.05 128.34,-412.8 135.1,-414.61"/>
</g>
<!-- Claimant -->
<g id="node11" class="node">
<title>Claimant</title>
<polygon fill="gray" stroke="blue" points="31.5,-441 31.5,-547 164.5,-547 164.5,-441 31.5,-441"/>
<text text-anchor="middle" x="98" y="-531.8" font-family="Times,serif" font-size="14.00" fill="blue">Claimant</text>
<polyline fill="none" stroke="blue" points="31.5,-524 164.5,-524 "/>
<text text-anchor="middle" x="98" y="-508.8" font-family="Times,serif" font-size="14.00" fill="blue">AttorneyClaimant,</text>
<text text-anchor="middle" x="98" y="-493.8" font-family="Times,serif" font-size="14.00" fill="blue">BgsRelatedClaimant,</text>
<text text-anchor="middle" x="98" y="-478.8" font-family="Times,serif" font-size="14.00" fill="blue">OtherClaimant,</text>
<text text-anchor="middle" x="98" y="-463.8" font-family="Times,serif" font-size="14.00" fill="blue">DependentClaimant,</text>
<text text-anchor="middle" x="98" y="-448.8" font-family="Times,serif" font-size="14.00" fill="blue">VeteranClaimant</text>
</g>
<!-- DecisionReview -->
<g id="node12" class="node">
<title>DecisionReview</title>
<polygon fill="yellow" stroke="blue" points="407.5,-545.5 407.5,-636.5 536.5,-636.5 536.5,-545.5 407.5,-545.5"/>
<text text-anchor="middle" x="472" y="-621.3" font-family="Times,serif" font-size="14.00" fill="blue">DecisionReview</text>
<polyline fill="none" stroke="blue" points="407.5,-613.5 536.5,-613.5 "/>
<text text-anchor="middle" x="472" y="-598.3" font-family="Times,serif" font-size="14.00" fill="blue">Appeal,</text>
<text text-anchor="middle" x="472" y="-583.3" font-family="Times,serif" font-size="14.00" fill="blue">ClaimReview,</text>
<text text-anchor="middle" x="472" y="-568.3" font-family="Times,serif" font-size="14.00" fill="blue">HigherLevelReview,</text>
<text text-anchor="middle" x="472" y="-553.3" font-family="Times,serif" font-size="14.00" fill="blue">SupplementalClaim</text>
</g>
<!-- ClaimReview -->
<g id="node13" class="node">
<title>ClaimReview</title>
<polygon fill="yellow" stroke="blue" points="407.5,-655.5 407.5,-716.5 536.5,-716.5 536.5,-655.5 407.5,-655.5"/>
<text text-anchor="middle" x="472" y="-701.3" font-family="Times,serif" font-size="14.00" fill="blue">ClaimReview</text>
<polyline fill="none" stroke="blue" points="407.5,-693.5 536.5,-693.5 "/>
<text text-anchor="middle" x="472" y="-678.3" font-family="Times,serif" font-size="14.00" fill="blue">HigherLevelReview,</text>
<text text-anchor="middle" x="472" y="-663.3" font-family="Times,serif" font-size="14.00" fill="blue">SupplementalClaim</text>
</g>
<!-- RampReview -->
<g id="node14" class="node">
<title>RampReview</title>
<polygon fill="#cc99ff" stroke="blue" points="423,-735.5 423,-796.5 521,-796.5 521,-735.5 423,-735.5"/>
<text text-anchor="middle" x="472" y="-781.3" font-family="Times,serif" font-size="14.00" fill="blue">RampReview</text>
<polyline fill="none" stroke="blue" points="423,-773.5 521,-773.5 "/>
<text text-anchor="middle" x="472" y="-758.3" font-family="Times,serif" font-size="14.00" fill="blue">RampElection,</text>
<text text-anchor="middle" x="472" y="-743.3" font-family="Times,serif" font-size="14.00" fill="blue">RampRefiling</text>
</g>
<!-- RequestIssue -->
<g id="node15" class="node">
<title>RequestIssue</title>
<polygon fill="orange" stroke="blue" points="26.5,-802.5 26.5,-863.5 169.5,-863.5 169.5,-802.5 26.5,-802.5"/>
<text text-anchor="middle" x="98" y="-848.3" font-family="Times,serif" font-size="14.00" fill="blue">RequestIssue</text>
<polyline fill="none" stroke="blue" points="26.5,-840.5 169.5,-840.5 "/>
<text text-anchor="middle" x="98" y="-825.3" font-family="Times,serif" font-size="14.00" fill="blue">RatingRequestIssue,</text>
<text text-anchor="middle" x="98" y="-810.3" font-family="Times,serif" font-size="14.00" fill="blue">NonratingRequestIssue</text>
</g>
<!-- appeal_type -->
<g id="node16" class="node">
<title>appeal_type</title>
<polygon fill="yellow" stroke="blue" points="50.5,-882.5 50.5,-943.5 145.5,-943.5 145.5,-882.5 50.5,-882.5"/>
<text text-anchor="middle" x="98" y="-928.3" font-family="Times,serif" font-size="14.00" fill="blue">appeal_type</text>
<polyline fill="none" stroke="blue" points="50.5,-920.5 145.5,-920.5 "/>
<text text-anchor="middle" x="98" y="-905.3" font-family="Times,serif" font-size="14.00" fill="blue">Appeal,</text>
<text text-anchor="middle" x="98" y="-890.3" font-family="Times,serif" font-size="14.00" fill="blue">LegacyAppeal</text>
</g>
<!-- hearing_type -->
<g id="node17" class="node">
<title>hearing_type</title>
<polygon fill="none" stroke="blue" stroke-dasharray="1,5" points="48,-962.5 48,-1023.5 148,-1023.5 148,-962.5 48,-962.5"/>
<text text-anchor="middle" x="98" y="-1008.3" font-family="Times,serif" font-size="14.00" fill="blue">hearing_type</text>
<polyline fill="none" stroke="blue" stroke-dasharray="1,5" points="48,-1000.5 148,-1000.5 "/>
<text text-anchor="middle" x="98" y="-985.3" font-family="Times,serif" font-size="14.00" fill="blue">Hearing,</text>
<text text-anchor="middle" x="98" y="-970.3" font-family="Times,serif" font-size="14.00" fill="blue">LegacyHearing</text>
</g>
<!-- decision_review_type -->
<g id="node18" class="node">
<title>decision_review_type</title>
<polygon fill="yellow" stroke="blue" points="404.5,-1123 404.5,-1199 539.5,-1199 539.5,-1123 404.5,-1123"/>
<text text-anchor="middle" x="472" y="-1183.8" font-family="Times,serif" font-size="14.00" fill="blue">decision_review_type</text>
<polyline fill="none" stroke="blue" points="404.5,-1176 539.5,-1176 "/>
<text text-anchor="middle" x="472" y="-1160.8" font-family="Times,serif" font-size="14.00" fill="blue">Appeal,</text>
<text text-anchor="middle" x="472" y="-1145.8" font-family="Times,serif" font-size="14.00" fill="blue">SupplementalClaim,</text>
<text text-anchor="middle" x="472" y="-1130.8" font-family="Times,serif" font-size="14.00" fill="blue">HigherLevelReview</text>
</g>
<!-- decision_review_remanded_type -->
<g id="node19" class="node">
<title>decision_review_remanded_type</title>
<polygon fill="yellow" stroke="blue" points="0,-1218 0,-1294 196,-1294 196,-1218 0,-1218"/>
<text text-anchor="middle" x="98" y="-1278.8" font-family="Times,serif" font-size="14.00" fill="blue">decision_review_remanded_type</text>
<polyline fill="none" stroke="blue" points="0,-1271 196,-1271 "/>
<text text-anchor="middle" x="98" y="-1255.8" font-family="Times,serif" font-size="14.00" fill="blue">Appeal,</text>
<text text-anchor="middle" x="98" y="-1240.8" font-family="Times,serif" font-size="14.00" fill="blue">SupplementalClaim,</text>
<text text-anchor="middle" x="98" y="-1225.8" font-family="Times,serif" font-size="14.00" fill="blue">HigherLevelReview</text>
</g>
<!-- decision_review_remanded_type&#45;&gt;decision_review_type -->
<g id="edge21" class="edge">
<title>decision_review_remanded_type&#45;&gt;decision_review_type</title>
<path fill="none" stroke="#6600cc" stroke-dasharray="1,5" d="M196.25,-1231.16C258.22,-1215.34 337.35,-1195.13 394.76,-1180.47"/>
<polygon fill="#6600cc" stroke="#6600cc" points="395.67,-1183.85 404.5,-1177.98 393.94,-1177.07 395.67,-1183.85"/>
<text text-anchor="middle" x="294" y="-1229.8" font-family="Times,serif" font-size="14.00" fill="#6600cc">a.k.a.</text>
</g>
<!-- review_type -->
<g id="node20" class="node">
<title>review_type</title>
<polygon fill="yellow" stroke="blue" points="33.5,-1123 33.5,-1199 162.5,-1199 162.5,-1123 33.5,-1123"/>
<text text-anchor="middle" x="98" y="-1183.8" font-family="Times,serif" font-size="14.00" fill="blue">review_type</text>
<polyline fill="none" stroke="blue" points="33.5,-1176 162.5,-1176 "/>
<text text-anchor="middle" x="98" y="-1160.8" font-family="Times,serif" font-size="14.00" fill="blue">Appeal,</text>
<text text-anchor="middle" x="98" y="-1145.8" font-family="Times,serif" font-size="14.00" fill="blue">SupplementalClaim,</text>
<text text-anchor="middle" x="98" y="-1130.8" font-family="Times,serif" font-size="14.00" fill="blue">HigherLevelReview</text>
</g>
<!-- review_type&#45;&gt;decision_review_type -->
<g id="edge22" class="edge">
<title>review_type&#45;&gt;decision_review_type</title>
<path fill="none" stroke="#6600cc" stroke-dasharray="1,5" d="M162.53,-1161C226.58,-1161 325.51,-1161 393.99,-1161"/>
<polygon fill="#6600cc" stroke="#6600cc" points="394.28,-1164.5 404.28,-1161 394.28,-1157.5 394.28,-1164.5"/>
<text text-anchor="middle" x="294" y="-1164.8" font-family="Times,serif" font-size="14.00" fill="#6600cc">a.k.a.</text>
</g>
<!-- original_decision_review_type -->
<g id="node21" class="node">
<title>original_decision_review_type</title>
<polygon fill="yellow" stroke="blue" points="6,-1313.5 6,-1374.5 190,-1374.5 190,-1313.5 6,-1313.5"/>
<text text-anchor="middle" x="98" y="-1359.3" font-family="Times,serif" font-size="14.00" fill="blue">original_decision_review_type</text>
<polyline fill="none" stroke="blue" points="6,-1351.5 190,-1351.5 "/>
<text text-anchor="middle" x="98" y="-1336.3" font-family="Times,serif" font-size="14.00" fill="blue">SupplementalClaim,</text>
<text text-anchor="middle" x="98" y="-1321.3" font-family="Times,serif" font-size="14.00" fill="blue">HigherLevelReview</text>
</g>
<!-- source_type -->
<g id="node22" class="node">
<title>source_type</title>
<polygon fill="none" stroke="blue" stroke-dasharray="1,5" points="33.5,-1394 33.5,-1500 162.5,-1500 162.5,-1394 33.5,-1394"/>
<text text-anchor="middle" x="98" y="-1484.8" font-family="Times,serif" font-size="14.00" fill="blue">source_type</text>
<polyline fill="none" stroke="blue" stroke-dasharray="1,5" points="33.5,-1477 162.5,-1477 "/>
<text text-anchor="middle" x="98" y="-1461.8" font-family="Times,serif" font-size="14.00" fill="blue">DecisionDocument,</text>
<text text-anchor="middle" x="98" y="-1446.8" font-family="Times,serif" font-size="14.00" fill="blue">SupplementalClaim,</text>
<text text-anchor="middle" x="98" y="-1431.8" font-family="Times,serif" font-size="14.00" fill="blue">HigherLevelReview,</text>
<text text-anchor="middle" x="98" y="-1416.8" font-family="Times,serif" font-size="14.00" fill="blue">RampRefiling,</text>
<text text-anchor="middle" x="98" y="-1401.8" font-family="Times,serif" font-size="14.00" fill="blue">RampElection</text>
</g>
<!-- assigned_to_type -->
<g id="node23" class="node">
<title>assigned_to_type</title>
<polygon fill="none" stroke="blue" stroke-dasharray="1,5" points="43,-1519.5 43,-1580.5 153,-1580.5 153,-1519.5 43,-1519.5"/>
<text text-anchor="middle" x="98" y="-1565.3" font-family="Times,serif" font-size="14.00" fill="blue">assigned_to_type</text>
<polyline fill="none" stroke="blue" stroke-dasharray="1,5" points="43,-1557.5 153,-1557.5 "/>
<text text-anchor="middle" x="98" y="-1542.3" font-family="Times,serif" font-size="14.00" fill="blue">User,</text>
<text text-anchor="middle" x="98" y="-1527.3" font-family="Times,serif" font-size="14.00" fill="blue">Organization</text>
</g>
<!-- record_type -->
<g id="node24" class="node">
<title>record_type</title>
<polygon fill="yellow" stroke="blue" points="50.5,-1042.5 50.5,-1103.5 145.5,-1103.5 145.5,-1042.5 50.5,-1042.5"/>
<text text-anchor="middle" x="98" y="-1088.3" font-family="Times,serif" font-size="14.00" fill="blue">record_type</text>
<polyline fill="none" stroke="blue" points="50.5,-1080.5 145.5,-1080.5 "/>
<text text-anchor="middle" x="98" y="-1065.3" font-family="Times,serif" font-size="14.00" fill="blue">Appeal,</text>
<text text-anchor="middle" x="98" y="-1050.3" font-family="Times,serif" font-size="14.00" fill="blue">LegacyAppeal</text>
</g>
<!-- record_type&#45;&gt;decision_review_type -->
<g id="edge23" class="edge">
<title>record_type&#45;&gt;decision_review_type</title>
<path fill="none" stroke="#6600cc" d="M145.74,-1084.06C208.21,-1098.83 319.72,-1125.21 394.52,-1142.91"/>
<polygon fill="#6600cc" stroke="#6600cc" points="393.83,-1146.34 404.36,-1145.24 395.44,-1139.53 393.83,-1146.34"/>
<text text-anchor="middle" x="294" y="-1141.8" font-family="Times,serif" font-size="14.00" fill="#6600cc">(subset of)</text>
</g>
<!-- Message -->
<g id="node25" class="node">
<title>Message</title>
<polygon fill="#f2f2f2" stroke="#aaaaaa" points="130.5,-1635 65.5,-1635 65.5,-1631 61.5,-1631 61.5,-1627 65.5,-1627 65.5,-1607 61.5,-1607 61.5,-1603 65.5,-1603 65.5,-1599 130.5,-1599 130.5,-1635"/>
<polyline fill="none" stroke="#aaaaaa" points="65.5,-1631 69.5,-1631 69.5,-1627 65.5,-1627 "/>
<polyline fill="none" stroke="#aaaaaa" points="65.5,-1607 69.5,-1607 69.5,-1603 65.5,-1603 "/>
<text text-anchor="middle" x="98" y="-1613.3" font-family="Times,serif" font-size="14.00">Message</text>
</g>
<!-- JobNote -->
<g id="node26" class="node">
<title>JobNote</title>
<ellipse fill="none" stroke="black" cx="472" cy="-1617" rx="40.09" ry="18"/>
<text text-anchor="middle" x="472" y="-1613.3" font-family="Times,serif" font-size="14.00">JobNote</text>
</g>
<!-- Message&#45;&gt;JobNote -->
<g id="edge9" class="edge">
<title>Message&#45;&gt;JobNote</title>
<path fill="none" stroke="blue" d="M130.72,-1617C195.62,-1617 344.01,-1617 421.63,-1617"/>
<polygon fill="blue" stroke="blue" points="421.64,-1620.5 431.64,-1617 421.64,-1613.5 421.64,-1620.5"/>
<text text-anchor="middle" x="294" y="-1620.8" font-family="Times,serif" font-size="14.00" fill="blue">Message#detail</text>
</g>
<!-- SupplementalClaim -->
<g id="node27" class="node">
<title>SupplementalClaim</title>
<ellipse fill="yellow" stroke="black" cx="850.89" cy="-1678" rx="81.49" ry="18"/>
<text text-anchor="middle" x="850.89" y="-1674.3" font-family="Times,serif" font-size="14.00">SupplementalClaim</text>
</g>
<!-- Message&#45;&gt;SupplementalClaim -->
<g id="edge10" class="edge">
<title>Message&#45;&gt;SupplementalClaim</title>
<path fill="none" stroke="blue" d="M130.69,-1629.03C214.33,-1659.81 429.5,-1739 429.5,-1739 429.5,-1739 650.84,-1706.96 772.69,-1689.32"/>
<polygon fill="blue" stroke="blue" points="773.32,-1692.77 782.72,-1687.87 772.32,-1685.84 773.32,-1692.77"/>
<text text-anchor="middle" x="472" y="-1742.8" font-family="Times,serif" font-size="14.00" fill="blue">Message#detail</text>
</g>
<!-- HigherLevelReview -->
<g id="node28" class="node">
<title>HigherLevelReview</title>
<ellipse fill="yellow" stroke="black" cx="850.89" cy="-1566" rx="81.79" ry="18"/>
<text text-anchor="middle" x="850.89" y="-1562.3" font-family="Times,serif" font-size="14.00">HigherLevelReview</text>
</g>
<!-- Message&#45;&gt;HigherLevelReview -->
<g id="edge11" class="edge">
<title>Message&#45;&gt;HigherLevelReview</title>
<path fill="none" stroke="blue" d="M130.68,-1614.18C228.87,-1605.69 514.5,-1581 514.5,-1581 514.5,-1581 660.59,-1574.49 760.23,-1570.04"/>
<polygon fill="blue" stroke="blue" points="760.48,-1573.53 770.32,-1569.59 760.17,-1566.54 760.48,-1573.53"/>
<text text-anchor="middle" x="472" y="-1569.8" font-family="Times,serif" font-size="14.00" fill="blue">Message#detail</text>
</g>
<!-- JobNote&#45;&gt;SupplementalClaim -->
<g id="edge19" class="edge">
<title>JobNote&#45;&gt;SupplementalClaim</title>
<path fill="none" stroke="blue" d="M510.17,-1623.02C571.43,-1632.93 694.79,-1652.9 774.78,-1665.84"/>
<polygon fill="blue" stroke="blue" points="774.37,-1669.32 784.8,-1667.46 775.49,-1662.41 774.37,-1669.32"/>
<text text-anchor="middle" x="660.5" y="-1662.8" font-family="Times,serif" font-size="14.00" fill="blue">JobNote#job</text>
</g>
<!-- JobNote&#45;&gt;HigherLevelReview -->
<g id="edge20" class="edge">
<title>JobNote&#45;&gt;HigherLevelReview</title>
<path fill="none" stroke="blue" d="M510.86,-1611.88C571.28,-1603.7 690.79,-1587.53 770.54,-1576.74"/>
<polygon fill="blue" stroke="blue" points="771.11,-1580.19 780.55,-1575.38 770.17,-1573.26 771.11,-1580.19"/>
<text text-anchor="middle" x="660.5" y="-1605.8" font-family="Times,serif" font-size="14.00" fill="blue">JobNote#job</text>
</g>
<!-- AppealIntake -->
<g id="node29" class="node">
<title>AppealIntake</title>
<polygon fill="#ffffcc" stroke="black" points="130.5,-1809 53.5,-1809 53.5,-1771 130.5,-1771 142.5,-1790 130.5,-1809"/>
<text text-anchor="middle" x="98" y="-1786.3" font-family="Times,serif" font-size="14.00">AppealIntake</text>
</g>
<!-- Appeal -->
<g id="node30" class="node">
<title>Appeal</title>
<ellipse fill="yellow" stroke="black" cx="472" cy="-1790" rx="36.29" ry="18"/>
<text text-anchor="middle" x="472" y="-1786.3" font-family="Times,serif" font-size="14.00">Appeal</text>
</g>
<!-- AppealIntake&#45;&gt;Appeal -->
<g id="edge12" class="edge">
<title>AppealIntake&#45;&gt;Appeal</title>
<path fill="none" stroke="blue" d="M142.77,-1790C213.7,-1790 353.1,-1790 425.27,-1790"/>
<polygon fill="blue" stroke="blue" points="425.42,-1793.5 435.42,-1790 425.42,-1786.5 425.42,-1793.5"/>
<text text-anchor="middle" x="294" y="-1793.8" font-family="Times,serif" font-size="14.00" fill="blue">AppealIntake#detail</text>
</g>
<!-- RampElectionIntake -->
<g id="node31" class="node">
<title>RampElectionIntake</title>
<polygon fill="#ffffcc" stroke="black" points="150,-1877 34,-1877 34,-1839 150,-1839 162,-1858 150,-1877"/>
<text text-anchor="middle" x="98" y="-1854.3" font-family="Times,serif" font-size="14.00">RampElectionIntake</text>
</g>
<!-- RampElection -->
<g id="node32" class="node">
<title>RampElection</title>
<ellipse fill="#cc99ff" stroke="black" cx="472" cy="-1858" rx="61.99" ry="18"/>
<text text-anchor="middle" x="472" y="-1854.3" font-family="Times,serif" font-size="14.00">RampElection</text>
</g>
<!-- RampElectionIntake&#45;&gt;RampElection -->
<g id="edge13" class="edge">
<title>RampElectionIntake&#45;&gt;RampElection</title>
<path fill="none" stroke="blue" d="M162.1,-1858C227.96,-1858 331.02,-1858 399.75,-1858"/>
<polygon fill="blue" stroke="blue" points="400.06,-1861.5 410.06,-1858 400.06,-1854.5 400.06,-1861.5"/>
<text text-anchor="middle" x="294" y="-1861.8" font-family="Times,serif" font-size="14.00" fill="blue">RampElectionIntake#detail</text>
</g>
<!-- RampRefilingIntake -->
<g id="node33" class="node">
<title>RampRefilingIntake</title>
<polygon fill="#ffffcc" stroke="black" points="149.5,-1945 34.5,-1945 34.5,-1907 149.5,-1907 161.5,-1926 149.5,-1945"/>
<text text-anchor="middle" x="98" y="-1922.3" font-family="Times,serif" font-size="14.00">RampRefilingIntake</text>
</g>
<!-- RampRefiling -->
<g id="node34" class="node">
<title>RampRefiling</title>
<ellipse fill="#cc99ff" stroke="black" cx="472" cy="-1926" rx="60.39" ry="18"/>
<text text-anchor="middle" x="472" y="-1922.3" font-family="Times,serif" font-size="14.00">RampRefiling</text>
</g>
<!-- RampRefilingIntake&#45;&gt;RampRefiling -->
<g id="edge14" class="edge">
<title>RampRefilingIntake&#45;&gt;RampRefiling</title>
<path fill="none" stroke="blue" d="M161.68,-1926C227.96,-1926 332.25,-1926 401.13,-1926"/>
<polygon fill="blue" stroke="blue" points="401.45,-1929.5 411.45,-1926 401.45,-1922.5 401.45,-1929.5"/>
<text text-anchor="middle" x="294" y="-1929.8" font-family="Times,serif" font-size="14.00" fill="blue">RampRefilingIntake#detail</text>
</g>
<!-- HigherLevelReviewIntake -->
<g id="node35" class="node">
<title>HigherLevelReviewIntake</title>
<polygon fill="#ffffcc" stroke="black" points="540,-1524 392,-1524 392,-1486 540,-1486 552,-1505 540,-1524"/>
<text text-anchor="middle" x="472" y="-1501.3" font-family="Times,serif" font-size="14.00">HigherLevelReviewIntake</text>
</g>
<!-- HigherLevelReviewIntake&#45;&gt;HigherLevelReview -->
<g id="edge15" class="edge">
<title>HigherLevelReviewIntake&#45;&gt;HigherLevelReview</title>
<path fill="none" stroke="blue" d="M552.01,-1517.79C617.47,-1528.38 709.9,-1543.34 774.38,-1553.78"/>
<polygon fill="blue" stroke="blue" points="774.05,-1557.27 784.48,-1555.41 775.17,-1550.36 774.05,-1557.27"/>
<text text-anchor="middle" x="660.5" y="-1540.8" font-family="Times,serif" font-size="14.00" fill="blue">HigherLevelReviewIntake#detail</text>
</g>
<!-- SupplementalClaimIntake -->
<g id="node36" class="node">
<title>SupplementalClaimIntake</title>
<polygon fill="#ffffcc" stroke="black" points="539.5,-1697 392.5,-1697 392.5,-1659 539.5,-1659 551.5,-1678 539.5,-1697"/>
<text text-anchor="middle" x="472" y="-1674.3" font-family="Times,serif" font-size="14.00">SupplementalClaimIntake</text>
</g>
<!-- SupplementalClaimIntake&#45;&gt;SupplementalClaim -->
<g id="edge16" class="edge">
<title>SupplementalClaimIntake&#45;&gt;SupplementalClaim</title>
<path fill="none" stroke="blue" d="M551.55,-1678C612.04,-1678 695.75,-1678 759.11,-1678"/>
<polygon fill="blue" stroke="blue" points="759.49,-1681.5 769.49,-1678 759.49,-1674.5 759.49,-1681.5"/>
<text text-anchor="middle" x="660.5" y="-1681.8" font-family="Times,serif" font-size="14.00" fill="blue">SupplementalClaimIntake#detail</text>
</g>
<!-- DecisionReviewIntake -->
<g id="node37" class="node">
<title>DecisionReviewIntake</title>
<polygon fill="#ffffcc" stroke="black" points="156,-610 28,-610 28,-572 156,-572 168,-591 156,-610"/>
<text text-anchor="middle" x="98" y="-587.3" font-family="Times,serif" font-size="14.00">DecisionReviewIntake</text>
</g>
<!-- DecisionReviewIntake&#45;&gt;DecisionReview -->
<g id="edge17" class="edge">
<title>DecisionReviewIntake&#45;&gt;DecisionReview</title>
<path fill="none" stroke="blue" d="M168.1,-591C233.25,-591 330.59,-591 397.23,-591"/>
<polygon fill="blue" stroke="blue" points="397.24,-594.5 407.24,-591 397.24,-587.5 397.24,-594.5"/>
<text text-anchor="middle" x="294" y="-594.8" font-family="Times,serif" font-size="14.00" fill="blue">DecisionReviewIntake#detail</text>
</g>
<!-- ClaimReviewIntake -->
<g id="node38" class="node">
<title>ClaimReviewIntake</title>
<polygon fill="#ffffcc" stroke="black" points="148.5,-705 35.5,-705 35.5,-667 148.5,-667 160.5,-686 148.5,-705"/>
<text text-anchor="middle" x="98" y="-682.3" font-family="Times,serif" font-size="14.00">ClaimReviewIntake</text>
</g>
<!-- ClaimReviewIntake&#45;&gt;ClaimReview -->
<g id="edge18" class="edge">
<title>ClaimReviewIntake&#45;&gt;ClaimReview</title>
<path fill="none" stroke="blue" d="M160.85,-686C225.79,-686 327.91,-686 397.07,-686"/>
<polygon fill="blue" stroke="blue" points="397.45,-689.5 407.45,-686 397.45,-682.5 397.45,-689.5"/>
<text text-anchor="middle" x="294" y="-689.8" font-family="Times,serif" font-size="14.00" fill="blue">ClaimReviewIntake#detail</text>
</g>
<!-- RampIssue -->
<g id="node39" class="node">
<title>RampIssue</title>
<ellipse fill="#cc99ff" stroke="black" cx="98" cy="-766" rx="50.09" ry="18"/>
<text text-anchor="middle" x="98" y="-762.3" font-family="Times,serif" font-size="14.00">RampIssue</text>
</g>
<!-- RampIssue&#45;&gt;RampReview -->
<g id="edge24" class="edge">
<title>RampIssue&#45;&gt;RampReview</title>
<path fill="none" stroke="#6600cc" d="M148.4,-766C216.68,-766 339.72,-766 412.51,-766"/>
<polygon fill="#6600cc" stroke="#6600cc" points="412.87,-769.5 422.87,-766 412.87,-762.5 412.87,-769.5"/>
<text text-anchor="middle" x="294" y="-769.8" font-family="Times,serif" font-size="14.00" fill="#6600cc">(ramp_)review</text>
</g>
</g>
</svg>
