<?xml version="1.0" encoding="UTF-8" standalone="no"?>
<!DOCTYPE svg PUBLIC "-//W3C//DTD SVG 1.1//EN"
 "http://www.w3.org/Graphics/SVG/1.1/DTD/svg11.dtd">
<!-- Generated by graphviz version 2.47.1 (20210417.1919)
 -->
<!-- Title: subclasses Pages: 1 -->
<svg width="513pt" height="260pt"
 viewBox="0.00 0.00 513.47 260.00" xmlns="http://www.w3.org/2000/svg" xmlns:xlink="http://www.w3.org/1999/xlink">
<g id="graph0" class="graph" transform="scale(1 1) rotate(0) translate(4 256)">
<title>subclasses</title>
<polygon fill="white" stroke="transparent" points="-4,4 -4,-256 509.47,-256 509.47,4 -4,4"/>
<!-- ETL::DecisionReview -->
<g id="node1" class="node">
<title>ETL::DecisionReview</title>
<polygon fill="none" stroke="blue" stroke-dasharray="5,2" points="0,-54 0,-90 138,-90 138,-54 0,-54"/>
<text text-anchor="middle" x="69" y="-68.3" font-family="Times,serif" font-size="14.00" fill="blue">ETL::DecisionReview</text>
</g>
<!-- ETL::DecisionReview::Appeal -->
<g id="node2" class="node">
<title>ETL::DecisionReview::Appeal</title>
<ellipse fill="none" stroke="black" cx="339.74" cy="-126" rx="120.48" ry="18"/>
<text text-anchor="middle" x="339.74" y="-122.3" font-family="Times,serif" font-size="14.00">ETL::DecisionReview::Appeal</text>
</g>
<!-- ETL::DecisionReview&#45;&gt;ETL::DecisionReview::Appeal -->
<g id="edge1" class="edge">
<title>ETL::DecisionReview&#45;&gt;ETL::DecisionReview::Appeal</title>
<path fill="none" stroke="blue" stroke-dasharray="1,5" d="M138.16,-85.7C174.27,-92.95 218.9,-101.92 256.87,-109.55"/>
<polygon fill="blue" stroke="blue" points="256.39,-113.02 266.89,-111.56 257.77,-106.16 256.39,-113.02"/>
</g>
<!-- ETL::DecisionReview::HigherLevelReview -->
<g id="node3" class="node">
<title>ETL::DecisionReview::HigherLevelReview</title>
<ellipse fill="none" stroke="black" cx="339.74" cy="-72" rx="165.97" ry="18"/>
<text text-anchor="middle" x="339.74" y="-68.3" font-family="Times,serif" font-size="14.00">ETL::DecisionReview::HigherLevelReview</text>
</g>
<!-- ETL::DecisionReview&#45;&gt;ETL::DecisionReview::HigherLevelReview -->
<g id="edge2" class="edge">
<title>ETL::DecisionReview&#45;&gt;ETL::DecisionReview::HigherLevelReview</title>
<path fill="none" stroke="blue" stroke-dasharray="1,5" d="M138.16,-72C146.3,-72 154.86,-72 163.69,-72"/>
<polygon fill="blue" stroke="blue" points="163.75,-75.5 173.75,-72 163.75,-68.5 163.75,-75.5"/>
</g>
<!-- ETL::DecisionReview::SupplementalClaim -->
<g id="node4" class="node">
<title>ETL::DecisionReview::SupplementalClaim</title>
<ellipse fill="none" stroke="black" cx="339.74" cy="-18" rx="165.17" ry="18"/>
<text text-anchor="middle" x="339.74" y="-14.3" font-family="Times,serif" font-size="14.00">ETL::DecisionReview::SupplementalClaim</text>
</g>
<!-- ETL::DecisionReview&#45;&gt;ETL::DecisionReview::SupplementalClaim -->
<g id="edge3" class="edge">
<title>ETL::DecisionReview&#45;&gt;ETL::DecisionReview::SupplementalClaim</title>
<path fill="none" stroke="blue" stroke-dasharray="1,5" d="M138.16,-58.3C172.13,-51.48 213.63,-43.14 250.05,-35.82"/>
<polygon fill="blue" stroke="blue" points="251.06,-39.19 260.17,-33.79 249.68,-32.33 251.06,-39.19"/>
</g>
<!-- ETL::HearingRecord -->
<g id="node5" class="node">
<title>ETL::HearingRecord</title>
<polygon fill="none" stroke="blue" stroke-dasharray="5,2" points="3.5,-189 3.5,-225 134.5,-225 134.5,-189 3.5,-189"/>
<text text-anchor="middle" x="69" y="-203.3" font-family="Times,serif" font-size="14.00" fill="blue">ETL::HearingRecord</text>
</g>
<!-- ETL::Hearing -->
<g id="node6" class="node">
<title>ETL::Hearing</title>
<ellipse fill="#66ccff" stroke="black" cx="339.74" cy="-234" rx="59.59" ry="18"/>
<text text-anchor="middle" x="339.74" y="-230.3" font-family="Times,serif" font-size="14.00">ETL::Hearing</text>
</g>
<!-- ETL::HearingRecord&#45;&gt;ETL::Hearing -->
<g id="edge4" class="edge">
<title>ETL::HearingRecord&#45;&gt;ETL::Hearing</title>
<path fill="none" stroke="blue" stroke-dasharray="1,5" d="M134.71,-213.5C176.46,-217.7 230.62,-223.14 272.64,-227.36"/>
<polygon fill="blue" stroke="blue" points="272.47,-230.86 282.77,-228.38 273.17,-223.9 272.47,-230.86"/>
</g>
<!-- ETL::LegacyHearing -->
<g id="node7" class="node">
<title>ETL::LegacyHearing</title>
<ellipse fill="#66ccff" stroke="black" cx="339.74" cy="-180" rx="85.59" ry="18"/>
<text text-anchor="middle" x="339.74" y="-176.3" font-family="Times,serif" font-size="14.00">ETL::LegacyHearing</text>
</g>
<!-- ETL::HearingRecord&#45;&gt;ETL::LegacyHearing -->
<g id="edge5" class="edge">
<title>ETL::HearingRecord&#45;&gt;ETL::LegacyHearing</title>
<path fill="none" stroke="blue" stroke-dasharray="1,5" d="M134.71,-200.5C169.78,-196.97 213.61,-192.57 251.64,-188.75"/>
<polygon fill="blue" stroke="blue" points="252.09,-192.22 261.69,-187.74 251.39,-185.26 252.09,-192.22"/>
</g>
</g>
</svg>
