<?xml version="1.0" encoding="UTF-8" standalone="no"?>
<svg width="20px" height="20px" viewBox="0 0 20 20" version="1.1" xmlns="http://www.w3.org/2000/svg" xmlns:xlink="http://www.w3.org/1999/xlink">
    <!-- Generator: Sketch 43 (38999) - http://www.bohemiancoding.com/sketch -->
    <title>pink tab</title>
    <desc>Created with Sketch.</desc>
    <defs></defs>
    <g id="Symbols" stroke="none" stroke-width="1" fill="none" fill-rule="evenodd">
        <g id="pink-tab" fill="#FF6868">
            <path d="M4.64092309,1 C3.21738445,1 2,2.16989858 2,3.68789356 L2,17.9336416 C2,18.2762127 2.06871806,18.7149247 2.37159862,19.0431298 C2.67415351,19.371335 3.04184399,19.4258517 3.32062438,19.4258517 C3.47694983,19.4229048 3.62839011,19.3683882 3.75800997,19.2674586 L10.4497163,14.2184033 L17.1414226,19.2674586 C17.2700654,19.3683882 17.4215057,19.4229048 17.5791339,19.4258517 C17.8575886,19.4258517 18.2252791,19.371335 18.5268569,19.0431298 C18.8297375,18.7149247 18.8984556,18.2762127 18.8984556,17.9336416 L18.8984556,3.68789356 C18.8984556,2.16989858 17.6820481,1 16.2585095,1 L4.64092309,1 Z" id="Page-1-Copy-6"></path>
        </g>
    </g>
</svg>